<?xml version="1.0" encoding="utf-8"?>
<!-- Generator: Adobe Illustrator 26.0.1, SVG Export Plug-In . SVG Version: 6.00 Build 0)  -->
<svg version="1.1" id="Page_1" xmlns="http://www.w3.org/2000/svg" xmlns:xlink="http://www.w3.org/1999/xlink" x="0px" y="0px"
	 viewBox="0 0 95.5 96" style="enable-background:new 0 0 95.5 96;" xml:space="preserve">
<style type="text/css">
	.st0{fill-rule:evenodd;clip-rule:evenodd;fill:#FFFFFF;}
</style>
<g>
	<path class="st0" d="M47.8,0.2c26.4,0,47.8,21.4,47.8,47.8S74.2,95.8,47.8,95.8S0,74.4,0,47.9S21.4,0.2,47.8,0.2L47.8,0.2z
		 M47.8,9.3c21.4,0,38.8,17.3,38.8,38.8c0,14.2-7.7,26.7-19.2,33.4c2.4-8.4,3.4-17,3-26.9c2.5,0.7,3.9,1.1,6.4,1.9
		c-2.9-7.3-6-13.9-10.1-20.6c-3.6,6.9-8.5,13.4-13.4,18.5l8-0.5c-6.9,12.3-16.6,18.3-28.9,20c-2.8-13.9-0.7-36.7,15-47.3l1.6,7.6
		C52,29.3,58,22.8,62.5,18.3c-7.1-2.8-15.3-3.7-23.3-2.2c1.3,1.1,2.9,2.5,4.2,3.6C25.6,27.2,15.9,39.5,9.5,53.9
		C9.2,52,9.1,50,9.1,48.1C9.1,26.6,26.4,9.3,47.8,9.3L47.8,9.3z"/>
</g>
</svg>
