<svg version="1.1" id="wot" xmlns="http://www.w3.org/2000/svg" xmlns:xlink="http://www.w3.org/1999/xlink" x="0px" y="0px" width="24px" height="43px" viewBox="0 0 24 43" enable-background="new 0 0 24 43" xml:space="preserve">
<path fill-rule="evenodd" clip-rule="evenodd" fill="#FFFFFF" d="M12.0079,38L0.1203,26.2519V11.3133L6.5077,5h11.1349
	l6.2371,6.1648v15.1031L12.0079,38z M22.6072,11.6439l-5.5698-5.505H7.0958l-5.703,5.6372v13.8976l10.6144,10.4895l10.6-10.4767
	V11.6439z M9.6349,12.8178H2.7966l4.8942-4.9479h8.7921l4.8087,4.9479h-6.8403v19.9073l-2.4074,2.405l-2.409-2.405V12.8178z
	 M16.6219,14.1333h4.6433v11.1782l-3.5211,3.5552l-3.2382-3.229v-0.006l2.116-2.0969V14.1333z M7.3813,23.5348l2.2045,2.1019
	l-3.3285,3.2301l-3.5185-3.5551V14.1331h4.6425V23.5348z"></path>
</svg>