<?xml version="1.0" encoding="utf-8"?>
<svg width="769.4px" height="417.1px" xmlns="http://www.w3.org/2000/svg">
  <path d="M 305.377 68.201 C 305.836 66.767 309.637 70.088 309.877 68.601 C 310.159 66.852 304.403 66.084 305.877 65.101 C 308.082 63.631 311.139 66.261 313.777 66.001 C 314.37 65.942 312.396 64.533 312.977 64.401 C 314.016 64.165 315.032 65.992 315.977 65.501 C 316.702 65.124 314.66 63.127 315.477 63.101 C 316.928 63.056 317.834 65.954 319.177 65.401 C 320.288 64.943 316.715 63.51 317.177 62.401 C 317.569 61.46 319.487 63.752 320.177 63.001 C 320.894 62.221 318.815 60.728 319.477 59.901 C 320.014 59.229 320.119 61.937 320.977 62.001 C 323.194 62.167 325.272 60.212 327.477 60.501 C 335.117 61.502 342.488 63.988 349.977 65.801 C 353.089 66.554 362.448 67.757 359.277 68.201 C 349.141 69.622 338.789 68.113 328.577 68.801 C 328.005 68.84 330.147 70.134 329.577 70.201 C 328.083 70.377 326.651 68.902 325.177 69.201 C 324.181 69.403 324.176 71.688 323.177 71.501 C 322.149 71.308 322.98 68.302 321.977 68.601 C 320.206 69.129 320.249 72.377 318.477 72.901 C 317.476 73.197 318.564 69.559 317.577 69.901 C 316.237 70.365 317.248 73.438 315.877 73.801 C 314.766 74.095 315.205 70.287 314.177 70.801 C 313.113 71.333 315.89 73.677 314.877 74.301 C 313.923 74.888 313.991 71.719 312.877 71.601 C 311.214 71.425 309.8 74.291 308.277 73.601 C 306.416 72.757 304.754 70.147 305.377 68.201 Z M 424.669 61.256 C 424.604 61.27 424.54 61.285 424.477 61.301 C 423.949 61.432 424.783 61.561 425.688 61.5 C 426.978 61.91 428.006 62.667 428.077 63.801 C 428.165 65.199 426.239 64.808 424.355 64.555 C 424.023 63.15 420.318 61.631 421.677 61.301 C 422.518 61.096 423.618 61.077 424.669 61.256 Z M 424.377 64.701 C 424.429 65.535 421.065 64.699 421.877 64.501 C 422.537 64.34 423.441 64.431 424.355 64.555 C 424.366 64.603 424.374 64.652 424.377 64.701 Z M 344.977 12.601 C 345.971 13.2 348.298 15.604 347.177 15.301 C 343.377 14.273 339.849 12.332 336.477 10.301 C 335.792 9.888 338.105 10.092 338.877 10.301 C 340.975 10.869 343.116 11.48 344.977 12.601 Z M 723.977 198.501 C 722.21 196.671 724.213 193.267 723.277 190.901 C 722.369 188.606 718.727 187.568 718.677 185.101 C 718.579 180.23 722.964 175.972 722.877 171.101 C 722.724 162.512 718.537 154.373 717.977 145.801 C 717.755 142.396 721.704 139.121 720.577 135.901 C 718.827 130.902 712.668 128.527 710.277 123.801 C 709.497 122.258 712.767 120.439 711.977 118.901 C 711.399 117.776 708.527 118.845 708.377 120.101 C 707.888 124.193 708.977 128.425 710.377 132.301 C 710.64 133.028 712.728 131.23 712.677 132.001 C 712.494 134.789 710.334 137.145 709.877 139.901 C 709.354 143.058 709.697 146.302 709.777 149.501 C 709.797 150.312 710.764 152.461 710.177 151.901 C 708.924 150.705 709.167 148.089 707.577 147.401 C 706.628 146.991 707.488 150.083 706.477 150.301 C 705.388 150.536 704.486 149.134 703.877 148.201 C 702.378 145.904 702.669 142.143 700.277 140.801 C 698.787 139.965 700.835 144.56 699.777 145.901 C 698.942 146.959 695.956 145.165 695.777 146.501 C 694.184 158.399 694.416 170.506 694.877 182.501 C 694.917 183.537 696.056 180.484 697.077 180.301 C 698.59 180.03 702.214 179.903 701.577 181.301 C 699.484 185.899 694.685 188.698 691.477 192.601 C 690.209 194.144 689.827 198.726 688.177 197.601 C 686.361 196.363 691.473 191.013 689.277 191.101 C 683.416 191.335 677.842 194.645 673.177 198.201 C 672.062 199.051 676.007 201.051 674.977 202.001 C 671.7 205.024 666.328 204.878 662.877 207.701 C 661.793 208.588 663.784 210.834 662.877 211.901 C 662.277 212.607 662.054 209.402 661.177 209.701 C 658.495 210.616 656.737 213.234 654.377 214.801 C 652.662 215.94 649.588 215.835 648.977 217.801 C 644.765 231.347 643.784 245.706 640.477 259.501 C 639.111 265.2 637.048 270.718 634.977 276.201 C 634.108 278.502 629.606 281.474 631.677 282.801 C 634.824 284.818 639.181 280.18 642.777 281.201 C 645.163 281.878 644.7 287.331 647.177 287.201 C 648.314 287.141 648.522 285.966 648.513 284.559 C 649.526 284.153 650.835 282.87 651.177 283.701 C 651.95 285.577 647.871 290.527 649.677 289.601 C 651.819 288.502 652.131 285.271 653.417 283.217 C 652.413 281.189 651.859 279.243 653.477 278.701 C 660.299 276.415 668.021 278.764 674.977 280.601 C 676.472 280.996 670.389 282.135 671.277 283.401 C 673.466 286.523 679.164 286.003 681.077 289.301 C 683.796 293.99 682.111 300.212 683.977 305.301 C 686.195 311.35 693.012 315.86 693.177 322.301 C 693.735 344.056 691.159 366.04 686.077 387.201 C 684.298 394.609 678.153 400.319 673.077 406.001 C 672.396 406.764 671.192 404.878 670.177 405.001 C 668.815 405.166 667.726 407.367 666.477 406.801 C 665.112 406.183 666.355 402.847 664.877 402.601 C 663.523 402.375 664.187 405.789 662.877 406.201 C 661.95 406.492 661.747 402.802 661.377 403.701 C 660.185 406.595 661.768 410.367 660.077 413.001 C 659.337 414.154 657.075 412.56 655.817 412.863 C 653.323 405.605 650.114 398.54 648.777 391.001 C 648.54 389.662 651.345 389.747 652.077 388.601 C 652.969 387.204 651.877 384.508 653.377 383.801 C 656.121 382.508 660.135 385.629 662.477 383.701 C 664.489 382.045 662.96 378.506 662.977 375.901 C 663.027 368.101 663.688 360.236 662.677 352.501 C 662.502 351.164 660.211 351.092 659.577 349.901 C 659.012 348.84 660.39 345.654 659.377 346.301 C 651.365 351.416 646.395 361.88 637.177 364.201 C 633.147 365.216 634.629 355.062 630.777 353.501 C 623.282 350.464 614.173 354.575 606.577 351.801 C 603.338 350.618 603.581 345.533 601.477 342.801 C 595.952 335.629 592.713 323.651 583.777 322.201 C 571.685 320.24 559.392 327.694 549.077 334.301 C 546.592 335.893 554.834 337.373 555.677 340.201 C 556.283 342.234 553.263 343.731 552.477 345.701 C 548.986 354.457 550.85 367.272 542.877 372.301 C 535.553 376.92 525.861 366.766 517.277 367.901 C 513.024 368.463 511.824 374.811 508.077 376.901 C 503.225 379.607 497.681 381.141 492.177 381.901 C 487.382 382.563 482.182 382.873 477.677 381.101 C 475.368 380.193 475.989 376.003 473.877 374.701 C 469.633 372.084 464.65 370.363 459.677 370.001 C 453.838 369.576 448.057 373.336 442.277 372.401 C 439.251 371.911 437.166 368.722 435.577 366.101 C 434.458 364.255 436.358 360.922 434.577 359.701 C 430.298 356.767 424.429 357.284 419.677 355.201 C 417.551 354.269 416.574 351.142 414.277 350.801 C 413.005 350.612 412.935 352.996 412.277 354.101 C 408.235 360.896 407.253 370.975 400.177 374.501 C 394.714 377.223 387.929 372.072 382.777 368.801 C 380.955 367.644 382.959 363.854 381.277 362.501 C 379.112 360.76 375.65 362.051 373.077 361.001 C 371.346 360.295 370.626 357.124 368.777 357.401 C 358.543 358.932 348.897 363.154 338.977 366.101 C 336.329 366.888 333.688 369.501 331.077 368.601 C 328.72 367.788 327.866 364.546 327.377 362.101 C 327.192 361.176 330.271 360.399 329.377 360.101 C 325.981 358.969 321.799 360.952 318.677 359.201 C 317.194 358.37 319.43 355.625 318.677 354.101 C 317.939 352.607 315.431 352.587 314.677 351.101 C 313.085 347.965 314.803 342.994 311.977 340.901 C 308.329 338.199 302.457 341.285 298.477 339.101 C 296.209 337.856 298.029 332.727 295.577 331.901 C 293.264 331.121 290.453 338.38 289.577 336.101 C 284.593 323.127 282.732 309.042 281.477 295.201 C 281.32 293.474 287.293 292.245 285.577 292.001 C 277.491 290.852 268.989 294.329 261.077 292.301 C 258.786 291.714 264.74 289.072 265.677 286.901 C 265.996 286.161 263.95 287.646 263.277 287.201 C 261.757 286.196 261.465 283.689 259.777 283.001 C 258.925 282.654 258.219 285.855 257.877 285.001 C 257.252 283.438 258.897 281.653 258.577 280.001 C 258.431 279.248 258.037 282.008 257.277 281.901 C 255.137 281.6 252.684 280.794 251.477 279.001 C 250.855 278.077 253.199 277.449 253.577 276.401 C 254.693 273.306 256.668 269.995 255.877 266.801 C 255.446 265.062 252.352 265.956 250.777 265.101 C 249.171 264.23 248.243 262.17 246.477 261.701 C 232.879 258.093 218.84 256.357 205.177 253.001 C 201.57 252.115 198.47 249.4 194.777 249.001 C 193.323 248.844 198.005 250.757 197.777 252.201 C 197.587 253.403 194.177 251.584 194.177 252.801 C 194.177 255.105 199.815 257.626 197.777 258.701 C 194.952 260.191 191.808 255.069 188.677 255.701 C 187.023 256.035 189.43 260.04 187.877 260.701 C 185.421 261.745 182.497 258.523 179.977 259.401 C 178.772 259.821 181.309 261.726 181.277 263.001 C 181.173 267.172 182.882 272.855 179.577 275.401 C 177.193 277.237 175.342 270.889 172.577 269.701 C 171.008 269.027 168.458 271.6 167.477 270.201 C 165.498 267.379 167.723 262.846 165.777 260.001 C 164.607 258.291 161.335 260.044 159.677 258.801 C 158.797 258.141 160.555 256.279 159.777 255.501 C 158.111 253.835 155.701 252.888 153.377 252.501 C 151.694 252.22 149.553 254.837 148.377 253.601 C 146.146 251.255 148.035 246.408 145.577 244.301 C 145.209 243.986 144.871 244.05 144.548 244.335 C 144.881 241.739 144.89 239.014 143.977 236.601 C 143.142 234.396 139.83 233.735 139.077 231.501 C 138.625 230.159 141.862 228.807 140.977 227.701 C 139.509 225.865 135.951 227.152 134.277 225.501 C 133.082 224.322 135.085 221.415 133.677 220.501 C 132.205 219.546 130.316 222.033 128.577 221.801 C 123.912 221.177 119.674 217.688 114.977 218.001 C 111.969 218.202 110.504 223.922 107.577 223.201 C 104.003 222.32 104.378 215.262 100.777 214.501 C 98.098 213.935 97.651 219.237 95.277 220.601 C 92.947 221.94 89.337 220.363 87.377 222.201 C 86.247 223.261 89.181 225.082 88.877 226.601 C 88.445 228.76 86.361 230.232 85.377 232.201 C 85.144 232.667 86.557 230.681 86.577 231.201 C 86.79 236.634 87.233 242.211 85.977 247.501 C 85.699 248.673 84.274 244.426 83.277 245.101 C 80.898 246.71 79.438 249.298 77.807 251.725 C 77.823 251.555 77.786 251.41 77.677 251.301 C 76.767 250.391 75.27 253.186 74.077 252.701 C 72.706 252.143 73.136 249.49 71.777 248.901 C 70.983 248.557 71.887 251.705 71.077 251.401 C 70.203 251.073 71.872 248.868 70.977 248.601 C 69.441 248.143 67.971 249.837 66.377 250.001 C 63.393 250.308 59.886 248.356 57.377 250.001 C 55.732 251.079 57.688 253.959 57.377 255.901 C 57.113 257.546 55.231 258.996 55.677 260.601 C 55.969 261.653 59.723 260.611 58.877 261.301 C 56.104 263.562 51.922 263.605 49.177 265.901 C 44.252 270.019 41.54 276.524 36.277 280.201 C 35.064 281.048 34.829 277.559 34.577 276.101 C 33.687 270.946 31.987 265.656 32.877 260.501 C 33.147 258.939 36.966 260.801 37.477 259.301 C 37.956 257.895 34.992 257.453 34.377 256.101 C 33.754 254.73 34.909 252.784 33.977 251.601 C 32.437 249.647 28.719 249.86 27.677 247.601 C 26.052 244.08 27.863 239.724 26.777 236.001 C 25.257 230.789 22.385 226.067 19.977 221.201 C 19.214 219.659 18.567 217.94 17.277 216.801 C 16.677 216.271 14.902 217.501 14.877 216.701 C 14.545 206.196 15.035 195.638 16.277 185.201 C 16.394 184.218 17.398 187.446 18.377 187.301 C 19.225 187.175 18.335 184.233 18.977 184.801 C 20.275 185.949 19.25 189.75 20.977 189.601 C 25.776 189.188 29.263 183.676 34.077 183.501 C 36.231 183.423 35.753 187.708 37.477 189.001 C 38.121 189.484 37.673 186.758 38.477 186.801 C 40.807 186.925 42.675 189.785 44.977 189.401 C 46.647 189.123 42.303 187.314 40.877 186.401 C 32.933 181.312 24.055 177.523 16.877 171.401 C 15.532 170.254 17.75 167.736 17.077 166.101 C 16.762 165.335 15.691 167.201 15.477 168.001 C 14.765 170.665 13.594 173.557 14.377 176.201 C 15.318 179.378 20.552 180.899 20.277 184.201 C 20.048 186.952 16.442 180.179 14.177 178.601 C 9.711 175.491 3.003 174.852 0.177 170.201 C -1.146 168.025 5.371 167.981 6.277 165.601 C 7.327 162.842 2.675 158.196 5.277 156.801 C 8.594 155.023 12.677 162.21 15.977 160.401 C 18.409 159.067 11.106 156.15 11.477 153.401 C 11.745 151.416 16.198 153.248 17.177 151.501 C 18.01 150.016 13.474 146.801 15.177 146.801 C 17.234 146.801 17.242 150.803 19.177 151.501 C 21.003 152.16 23.398 149.042 24.877 150.301 C 28.218 153.145 27.692 159.272 31.277 161.801 C 32.911 162.954 34.687 156.763 36.077 158.201 C 39.103 161.333 36.161 168.43 39.877 170.701 C 42.728 172.443 45.401 166.556 48.677 165.901 C 49.79 165.678 49.747 168.389 50.877 168.501 C 55.171 168.928 61.26 170.907 63.777 167.401 C 66.615 163.448 63.277 157.617 62.077 152.901 C 61.757 151.644 58.956 151.327 59.377 150.101 C 60.421 147.057 64.779 145.819 65.577 142.701 C 66.091 140.693 61.834 139.094 62.677 137.201 C 64.328 133.493 71.463 133.054 71.677 129.001 C 71.866 125.437 66.485 122.744 64.322 119.881 C 63.997 119.753 63.749 119.622 63.617 119.49 C 62.572 118.445 59.705 119.03 58.783 118.108 C 58.526 117.852 56.654 118.108 56.25 118.108 C 51.748 118.108 52.657 120.781 50.495 122.943 C 50.295 123.143 48.245 123.454 47.963 123.173 C 46.989 122.198 49.711 118.296 50.035 117.648 C 50.132 117.454 51.449 116.99 50.956 116.497 C 49.358 114.9 47.649 114.111 46.582 113.044 C 45.348 111.81 43.062 112.286 41.978 111.202 C 41.352 110.576 38.806 111.253 38.065 110.512 C 37.576 110.024 37.141 108.437 36.683 107.979 C 35.151 106.447 32.796 106.394 30.928 104.526 C 30.614 104.212 30.451 103.252 29.777 102.915 C 28.774 102.414 26.341 102.488 25.864 101.534 C 25.099 100.004 28.974 99.007 27.936 96.93 C 27.348 95.753 25.461 93.764 24.713 93.016 C 24.015 92.319 25.321 89.186 25.634 88.873 C 26.7 87.807 29.987 89.353 30.928 88.412 C 32.896 86.445 34.072 84.118 35.993 82.197 C 37.594 80.596 34.951 78.756 35.763 77.133 C 36.267 76.125 37.192 75.037 38.525 74.37 C 39.056 74.105 41.716 74.568 41.978 74.831 C 42.57 75.422 44.698 74.925 45.431 75.291 C 47.227 76.189 50.117 76.631 51.877 75.751 C 52.347 75.516 55.513 75.705 55.79 75.982 C 56.339 76.53 60.166 77.592 61.545 76.902 C 64.49 75.43 64.456 72.915 67.53 71.378 C 68.259 71.013 69.704 69.817 70.983 70.457 C 71.915 70.923 73.236 70.432 74.206 70.917 C 76.371 72 78.729 72.962 80.882 73.68 C 82.79 74.316 85.126 73.55 86.637 75.061 C 87.599 76.023 88.989 79.06 90.232 79.199 C 92.79 75.882 97.783 75.015 100.877 72.101 C 101.837 71.197 100.801 68.898 101.977 68.301 C 103.477 67.539 105.326 69.325 106.977 69.001 C 112.078 68.001 117.013 66.234 121.877 64.401 C 123.418 63.82 124.732 60.851 126.077 61.801 C 129.206 64.01 128.305 72.269 132.077 71.601 C 135.806 70.94 132.56 63.912 133.977 60.401 C 134.291 59.623 136.943 61.399 136.477 60.701 C 135.445 59.153 130.123 57.248 131.977 57.401 C 142.867 58.302 153.465 64.583 164.277 63.001 C 168.209 62.426 166.228 54.964 168.877 52.001 C 169.93 50.824 172.263 53.477 173.577 52.601 C 176.514 50.643 177.323 46.333 180.277 44.401 C 182.822 42.737 186.484 43.812 189.177 42.401 C 193.63 40.069 196.836 35.755 201.277 33.401 C 202.604 32.698 204.738 34.685 205.777 33.601 C 207.542 31.758 205.78 27.412 208.077 26.301 C 212.994 23.922 218.929 24.195 224.377 24.601 C 225.343 24.673 223.754 26.629 224.177 27.501 C 224.829 28.844 225.651 30.094 226.548 31.297 C 226.271 32.185 227.771 34.145 227.377 35.301 C 227.173 35.9 225.373 34.676 225.477 35.301 C 225.61 36.096 228.099 35.887 227.577 36.501 C 226.739 37.487 223.407 36.06 223.777 37.301 C 224.809 40.764 230.404 42.288 230.377 45.901 C 230.297 56.552 234.128 77.185 223.477 77.101 C 211.329 77.005 212.382 55.331 204.977 45.701 C 203.897 44.297 204.45 49.469 203.177 50.701 C 202.124 51.719 199.411 50.238 198.877 51.601 C 198.068 53.665 201.29 56.129 200.277 58.101 C 196.604 65.253 190.681 71.008 185.677 77.301 C 185.233 77.859 183.351 78.942 183.977 78.601 C 188.33 76.23 191.931 70.869 196.877 71.201 C 199.642 71.387 197.907 76.78 197.377 79.501 C 197.244 80.184 195.069 78.277 195.377 78.901 C 197.036 82.258 198.029 87.359 201.677 88.201 C 204.284 88.803 203.208 82.05 205.777 81.301 C 210.846 79.824 216.773 80.212 221.577 82.401 C 223.832 83.428 223.949 87.029 223.777 89.501 C 223.715 90.399 221.577 88.852 221.077 89.601 C 220.642 90.254 223.169 89.345 223.377 90.101 C 223.704 91.29 220.992 93.942 222.177 93.601 C 225.661 92.599 228.866 90.416 231.377 87.801 C 232.377 86.76 230.786 84.445 231.877 83.501 C 234.161 81.525 238.151 82.247 240.277 80.101 C 242.125 78.236 241.399 74.893 242.677 72.601 C 243.059 71.916 242.969 74.145 243.177 74.901 C 244.236 78.746 247.652 82.59 246.477 86.401 C 245.824 88.519 240.963 83.669 239.877 85.601 C 237.77 89.35 237.029 95.113 239.677 98.501 C 241.353 100.645 243.962 94.478 246.677 94.301 C 248.08 94.209 247.525 97.515 248.877 97.901 C 249.809 98.167 249.221 95.141 250.177 95.301 C 255.345 96.168 260.406 98.039 264.977 100.601 C 265.009 100.619 265.034 100.639 265.053 100.661 C 265.149 100.611 265.256 100.588 265.377 100.601 C 267.202 100.804 268.89 101.589 270.582 102.368 C 269.672 103.661 269.792 106.082 268.377 106.901 C 267.305 107.521 265.642 104.356 264.977 105.401 C 264.306 106.455 267.353 106.794 267.677 108.001 C 267.866 108.707 265.372 109.309 266.077 109.501 C 267.333 109.843 268.649 108.169 269.877 108.601 C 270.57 108.844 269.095 110.528 269.777 110.801 C 273.936 112.465 278.448 113.129 282.877 113.801 C 283.636 113.916 280.225 112.35 280.977 112.501 C 283.685 113.043 287.629 112.537 288.877 115.001 C 289.851 116.924 282.736 120.695 284.777 120.001 C 289.957 118.24 293.572 110.263 298.877 111.601 C 304.39 112.991 305.153 121.086 308.177 125.901 C 308.962 127.15 309.669 128.446 310.384 129.737 C 311.191 134.07 309.529 144.392 313.477 142.501 C 318.494 140.099 315.392 131.458 317.477 126.301 C 317.976 125.066 320.227 125.364 320.877 124.201 C 322.703 120.934 322.056 116.367 324.577 113.601 C 326.331 111.677 329.693 112.58 332.177 111.801 C 337.569 110.11 343.782 102.65 348.177 106.201 C 352.041 109.324 343.46 115.029 342.077 119.801 C 341.694 121.121 343.575 122.52 343.077 123.801 C 340.732 129.834 336.385 134.934 333.877 140.901 C 331.959 145.464 333.055 151.406 329.877 155.201 C 327.736 157.758 324.07 158.174 320.75 159.169 C 325.961 159.725 331.151 160.296 335.977 158.601 C 339.17 157.479 336.365 146.748 338.977 148.901 C 342.113 151.485 344.001 155.078 345.605 158.912 C 346.653 155.382 348.871 151.863 347.977 148.401 C 347.287 145.73 343.03 145.948 340.477 144.901 C 339.684 144.576 337.581 145.061 337.977 144.301 C 343.952 132.827 350.941 121.892 358.077 111.101 C 358.488 110.479 358.768 112.615 358.477 113.301 C 356.746 117.378 351.957 120.577 352.177 125.001 C 352.331 128.112 356.964 128.943 359.179 131.189 C 357.657 127.914 355.673 124.648 356.677 121.401 C 357.408 119.037 360.906 124.461 363.377 124.601 C 364.449 124.662 361.34 122.565 361.977 121.701 C 362.904 120.445 365.223 119.471 366.477 120.401 C 369.612 122.724 370.386 127.274 373.177 130.001 C 374.851 131.637 379.617 130.765 379.477 133.101 C 379.332 135.53 377.361 137.25 375.362 138.957 C 375.513 139.023 375.652 139.166 375.777 139.401 C 376.809 141.336 377.161 143.51 377.148 145.757 C 377.443 145.742 377.674 145.648 377.777 145.401 C 378.698 143.185 377.039 140.515 377.677 138.201 C 378.165 136.434 381.09 135.631 380.977 133.801 C 380.622 128.038 377.377 122.788 376.377 117.101 C 376.09 115.471 375.53 112.367 377.177 112.201 C 384.199 111.492 391.184 115.856 398.177 114.901 C 400.112 114.637 394.963 111.585 395.477 109.701 C 395.846 108.347 399.433 110.783 399.677 109.401 C 399.952 107.841 396.182 107.881 396.077 106.301 C 395.992 105.021 398.329 108.199 399.577 107.901 C 401.044 107.551 402.487 106.181 402.777 104.701 C 402.949 103.82 399.604 103.509 400.477 103.301 C 407.989 101.514 415.85 101.526 423.377 99.801 C 424.614 99.517 418.5 99.376 419.677 98.901 C 422.777 97.651 426.369 96.362 429.577 97.301 C 430.967 97.708 426.452 101.04 427.877 101.301 C 430.895 101.854 433.619 98.851 436.677 98.601 C 437.621 98.524 438.778 101.343 438.877 100.401 C 439.024 99.007 436.166 97.909 436.877 96.701 C 437.555 95.549 439.633 97.49 440.877 97.001 C 444.581 95.545 448.063 93.6 451.556 91.677 C 451.563 91.685 451.57 91.693 451.577 91.701 C 453.489 93.798 457.924 90.351 460.077 92.201 C 461.448 93.379 456.892 95.755 457.977 97.201 C 458.914 98.451 460.396 94.105 461.877 94.601 C 466.433 96.127 470.369 99.02 474.427 101.659 C 475.105 103.441 479.348 103.796 478.677 105.601 C 477.085 109.888 472.034 111.93 469.177 115.501 C 467.206 117.965 466.761 121.655 464.277 123.601 C 462.383 125.085 459.318 123.804 457.177 124.901 C 456.256 125.373 460.451 124.703 460.177 125.701 C 459.776 127.162 458.939 128.42 457.99 129.629 C 462.338 126.888 467.675 125.88 471.913 122.985 C 474.125 123.253 476.333 123.48 478.477 123.001 C 479.361 122.804 477.711 119.525 478.177 120.301 C 479.515 122.53 479.769 125.316 481.177 127.501 C 481.665 128.258 480.474 125.47 481.077 124.801 C 482.255 123.495 484.031 122.619 485.777 122.401 C 490.044 121.868 494.449 121.815 498.677 122.601 C 499.491 122.752 496.261 124.358 497.077 124.501 C 501.905 125.349 507.346 126.998 511.777 124.901 C 514.038 123.831 509.625 117.898 512.077 117.401 C 519.298 115.937 526.82 118.648 533.977 120.401 C 534.847 120.614 531.744 121.469 532.077 122.301 C 532.694 123.843 535.64 123.775 535.977 125.401 C 536.218 126.563 532.731 126.501 533.177 127.601 C 533.747 129.008 536.606 127.857 537.477 129.101 C 537.986 129.828 534.609 130.017 535.277 130.601 C 537.925 132.918 541.683 133.554 544.677 135.401 C 545.307 135.79 545.795 137.918 545.977 137.201 C 546.996 133.187 547.259 129.025 547.689 124.897 C 554.04 124.654 560.635 124.196 566.477 121.701 C 568.012 121.045 565.669 117.95 566.777 116.701 C 567.752 115.601 571.104 117.869 571.177 116.401 C 571.27 114.538 567.609 114.456 566.977 112.701 C 566.516 111.42 569.466 109.838 568.477 108.901 C 567.522 107.997 564.865 112.199 565.077 110.901 C 565.511 108.244 568.849 106.659 569.277 104.001 C 569.453 102.906 565.455 102.634 566.477 102.201 C 576.289 98.042 586.376 94.121 596.877 92.301 C 598.426 92.032 594.943 96.655 596.477 97.001 C 599.742 97.738 602.831 94.482 606.177 94.401 C 607.359 94.372 607.892 97.355 608.877 96.701 C 612.886 94.039 614.389 88.284 618.677 86.101 C 623.967 83.408 630.245 83.03 636.177 82.801 C 637.53 82.749 638.026 85.215 639.377 85.301 C 640.623 85.38 641.233 83.104 642.477 83.201 C 643.873 83.31 644.87 86.868 645.777 85.801 C 647.202 84.125 644.636 81.018 645.877 79.201 C 649.148 74.411 654.894 71.762 658.477 67.201 C 659.473 65.933 657.811 63.4 659.077 62.401 C 662.558 59.654 670.452 61.457 671.277 57.101 C 671.973 53.428 661.617 56.566 660.877 52.901 C 660.179 49.441 666.821 48.915 669.077 46.201 C 671.501 43.286 671.349 38.117 674.677 36.301 C 690.582 27.623 708.787 23.834 724.977 15.701 C 727.396 14.486 715.524 17.446 716.877 15.101 C 720.666 8.533 727.389 3.855 733.977 0.101 C 735.386 -0.702 733.95 3.506 734.777 4.901 C 735.197 5.61 737.351 4.695 737.177 5.501 C 736.863 6.953 733.648 7.153 733.977 8.601 C 734.258 9.839 737.857 6.444 737.677 7.701 C 737.304 10.31 732.08 11.805 733.177 14.201 C 734.179 16.391 738.362 12.282 740.377 13.601 C 742.042 14.69 740.335 17.749 741.277 19.501 C 742.118 21.065 745.985 21.233 745.377 22.901 C 744.257 25.973 740.843 27.965 737.777 29.101 C 735.664 29.884 732.88 26.849 731.077 28.201 C 727.961 30.538 728.995 36.959 725.377 38.401 C 722.372 39.599 719.953 34.519 716.777 33.901 C 715.664 33.685 718.59 35.945 718.177 37.001 C 717.881 37.757 715.377 35.562 715.877 36.201 C 719.541 40.885 727.295 43.483 727.877 49.401 C 728.173 52.411 726.966 55.158 725.255 57.796 C 725.621 58.314 726.026 59.301 726.577 59.301 C 728.212 59.301 730.223 58.928 731.177 57.601 C 731.711 56.858 727.989 55.88 728.877 56.101 C 736.555 58.011 744.791 58.804 751.677 62.701 C 753.39 63.67 747.524 64.485 747.077 66.401 C 744.845 75.965 743.922 85.88 743.977 95.701 C 743.99 98.042 746.706 99.631 747.277 101.901 C 748.068 105.045 747.253 108.441 747.977 111.601 C 748.282 112.935 751.369 114.176 750.277 115.001 C 747.264 117.279 741.472 114.958 739.377 118.101 C 736.498 122.42 740.503 129.124 737.877 133.601 C 736.719 135.576 734.656 126.674 733.277 128.501 C 731.185 131.273 734.995 135.614 733.877 138.901 C 733.452 140.151 731.047 137.426 729.977 138.201 C 729.491 138.552 729.866 139.153 730.294 139.784 C 729.372 140.721 728.291 142.072 728.677 143.301 C 729.342 145.419 732.092 146.311 733.077 148.301 C 735.406 153.008 734.697 159.455 738.477 163.101 C 740.174 164.738 742.205 158.285 744.377 159.201 C 747.934 160.701 748.256 166.098 751.277 168.501 C 753.099 169.951 757.376 167.881 758.077 170.101 C 758.824 172.466 752.761 173.796 753.677 176.101 C 755.438 180.531 762.96 181.12 764.277 185.701 C 765.646 190.464 759.592 195.244 760.577 200.101 C 761.299 203.663 768.332 203.783 768.677 207.401 C 768.992 210.714 762.273 211.487 761.977 214.801 C 761.756 217.272 766.863 217.326 767.577 219.701 C 769.476 226.016 769.083 232.814 769.377 239.401 C 769.408 240.087 768.887 238.06 768.377 237.601 C 753.725 224.401 737.677 212.687 723.977 198.501 Z M 730.377 139.701 C 730.714 139.364 731.1 141.462 730.977 141.001 C 730.876 140.623 730.574 140.197 730.294 139.784 C 730.322 139.756 730.35 139.728 730.377 139.701 Z M 723.907 59.738 C 723.117 60.817 722.283 61.884 721.477 62.95 C 721.995 63.499 722.505 64.09 722.877 63.701 C 723.816 62.721 723.731 61.16 723.907 59.738 Z M 547.577 124.901 C 546.734 124.933 548.086 121.564 547.977 122.401 C 547.869 123.231 547.776 124.063 547.689 124.897 C 547.652 124.898 547.614 124.9 547.577 124.901 Z M 467.877 122.601 C 466.443 122.555 473.347 121.97 472.177 122.801 C 472.09 122.863 472.002 122.924 471.913 122.985 C 470.565 122.822 469.215 122.643 467.877 122.601 Z M 474.377 101.501 C 474.002 100.003 479.629 104.747 478.277 104.001 C 476.967 103.278 475.691 102.481 474.427 101.659 C 474.407 101.607 474.39 101.555 474.377 101.501 Z M 456.977 88.801 C 455.146 89.708 453.35 90.69 451.556 91.677 C 450.291 90.167 458.798 87.899 456.977 88.801 Z M 372.619 141.532 C 372.571 141.588 372.524 141.644 372.477 141.701 C 371.756 142.578 369.346 144.95 370.277 144.301 C 371.039 143.77 371.847 142.628 372.619 141.532 Z M 349.491 167.289 C 349.266 167.151 349.038 167.015 348.81 166.879 C 349.403 168.234 350.045 169.553 350.777 170.801 C 351.414 171.888 349.714 168.911 349.491 167.289 Z M 313.836 158.638 C 312.318 156.775 310.3 155.117 308.077 155.201 C 306.265 155.269 308.497 159.024 309.677 160.401 C 310.155 160.958 310.345 158.751 311.077 158.701 C 311.991 158.638 312.912 158.622 313.836 158.638 Z M 310.377 129.701 C 310.248 129.027 311.721 132.095 311.377 131.501 C 311.039 130.917 310.711 130.327 310.384 129.737 C 310.381 129.725 310.379 129.713 310.377 129.701 Z M 271.377 101.701 C 272.71 101.124 276.505 104.263 275.077 104.001 C 273.514 103.714 272.046 103.043 270.582 102.368 C 270.786 102.079 271.041 101.846 271.377 101.701 Z M 264.373 101.624 C 263.703 102.166 262.879 102.701 263.377 102.701 C 263.857 102.701 264.116 102.158 264.373 101.624 Z M 226.977 30.901 C 228.389 30.455 230.218 35.844 229.277 34.701 C 228.356 33.583 227.417 32.463 226.548 31.297 C 226.605 31.114 226.737 30.977 226.977 30.901 Z M 75.777 254.401 C 76.521 253.577 77.177 252.663 77.807 251.725 C 77.699 252.89 75.068 255.186 75.777 254.401 Z M 144.377 245.501 C 144.186 246.668 141.241 249.037 142.077 248.201 C 142.969 247.309 143.707 245.076 144.548 244.335 C 144.498 244.727 144.44 245.116 144.377 245.501 Z M 657.077 416.801 C 657.454 418.089 654.446 414.254 655.277 413.201 C 655.42 413.02 655.604 412.914 655.817 412.863 C 656.265 414.168 656.69 415.48 657.077 416.801 Z M 647.577 284.501 C 646.718 283.611 648.658 279.677 648.477 280.901 C 648.33 281.895 648.505 283.318 648.513 284.559 C 648.14 284.709 647.807 284.739 647.577 284.501 Z M 726.377 337.601 C 727.826 340.295 719.92 333.034 717.577 335.001 C 715.171 337.021 720.061 346.987 718.277 344.401 C 707.798 329.213 701.133 311.641 690.877 296.301 C 689.174 293.754 684.825 294.045 682.977 291.601 C 680.553 288.396 680.594 283.885 678.777 280.301 C 678.148 279.061 675.777 278.792 675.777 277.401 C 675.777 275.247 677.106 273.349 678.167 271.412 C 676.822 270.162 675.895 268.495 674.977 266.901 C 674.654 266.34 674.121 264.542 674.577 265.001 C 679.599 270.059 684.424 275.335 688.877 280.901 C 688.905 280.936 688.923 280.976 688.932 281.021 C 688.948 280.847 688.983 280.772 689.077 280.901 C 690.205 282.446 689.958 284.816 691.277 286.201 C 697.464 292.695 704.581 298.234 711.277 304.201 C 712.548 305.334 715.652 305.866 715.177 307.501 C 714.081 311.276 706.306 312.917 707.677 316.601 C 710.946 325.386 721.936 329.347 726.377 337.601 Z M 688.921 281.245 C 688.8 281.763 688.147 282.501 688.577 282.501 C 688.918 282.501 688.907 281.738 688.921 281.245 Z M 757.077 336.901 C 756.746 338.119 757.633 334.439 757.877 333.201 C 758.433 330.372 758.72 327.483 759.477 324.701 C 759.96 322.927 761.932 317.797 761.577 319.601 C 760.427 325.448 758.641 331.151 757.077 336.901 Z M 427.277 61.001 C 427.037 61.314 426.344 61.457 425.688 61.5 C 425.361 61.397 425.018 61.315 424.669 61.256 C 425.472 61.078 426.362 61.005 427.292 60.982 C 427.287 60.988 427.282 60.995 427.277 61.001 Z M 427.292 60.982 C 428.182 59.803 428.397 58.06 428.08 56.615 C 432.506 56.588 439.401 55.039 438.177 58.301 C 436.844 61.856 431.633 60.874 427.292 60.982 Z M 426.277 56.501 C 425.684 56.401 427.947 56.014 428.077 56.601 C 428.078 56.606 428.079 56.61 428.08 56.615 C 427.41 56.619 426.797 56.589 426.277 56.501 Z M 442.377 66.101 C 443.829 67.172 440.315 69.151 439.877 70.901 C 439.553 72.198 441.51 74.802 440.177 74.901 C 436.337 75.185 432.376 73.686 429.077 71.701 C 427.945 71.02 429.185 68.846 428.377 67.801 C 427.627 66.832 423.91 67.004 424.977 66.401 C 428.569 64.372 432.752 63.001 436.877 63.001 C 438.411 63.001 432.441 65.648 433.777 66.401 C 436.276 67.809 440.069 64.398 442.377 66.101 Z M 545.977 76.101 C 546.068 73.506 551.163 79.378 553.477 78.201 C 555.056 77.398 550.502 74.527 551.677 73.201 C 552.944 71.771 555.469 73.888 557.377 73.801 C 559.873 73.687 565.216 70.141 564.777 72.601 C 563.776 78.217 558.829 82.404 555.077 86.701 C 554.612 87.233 553.478 85.42 553.077 86.001 C 552.396 86.989 553.776 90.576 553.077 89.601 C 550.114 85.469 545.799 81.182 545.977 76.101 Z M 289.477 72.601 C 289.999 71.785 290.409 74.76 291.377 74.801 C 293.221 74.879 295.39 74.314 296.577 72.901 C 297.275 72.07 294.662 70.386 295.577 69.801 C 296.646 69.117 297.843 71.596 299.077 71.301 C 299.992 71.082 299.334 68.284 300.177 68.701 C 303.502 70.346 306.265 73.1 308.577 76.001 C 309.185 76.764 306.529 75.125 305.677 75.601 C 302.383 77.443 298.415 79.201 296.777 82.601 C 294.624 87.072 296.619 92.653 295.177 97.401 C 294.904 98.3 293.573 95.818 292.677 96.101 C 292.671 96.103 292.665 96.105 292.659 96.107 C 292.406 95.21 292.137 94.326 291.577 93.601 C 291.129 93.021 292.081 96.334 291.577 95.801 C 288.922 92.989 285.557 90.189 284.777 86.401 C 284.457 84.844 288.24 86.599 289.477 85.601 C 290.083 85.113 287.796 84.675 287.877 83.901 C 288.006 82.66 290.142 82.038 289.977 80.801 C 289.867 79.974 287.528 81.733 287.477 80.901 C 287.304 78.06 287.944 74.999 289.477 72.601 Z M 293.277 98.001 C 293.541 98.603 292.073 96.346 292.659 96.107 C 292.84 96.751 293.013 97.4 293.277 98.001 Z M 446.677 71.901 C 447.014 71.336 447.561 69.554 447.677 70.201 C 448.007 72.041 445.954 74.589 447.377 75.801 C 448.509 76.765 448.906 72.716 450.377 72.501 C 451.339 72.36 450.872 74.441 451.477 75.201 C 452.346 76.293 455.768 77.031 454.677 77.901 C 451.791 80.202 447.557 79.87 444.077 81.101 C 442.643 81.608 439.563 84.564 439.977 83.101 C 441.16 78.915 444.447 75.637 446.677 71.901 Z M 55.177 38.801 C 54.452 37.382 57.385 41.77 58.977 41.701 C 60.094 41.652 56.363 38.796 57.477 38.701 C 59.249 38.549 60.608 40.316 62.17 41.234 C 62.139 41.254 62.108 41.276 62.077 41.301 C 60.962 42.2 61.835 44.638 62.977 45.501 C 63.958 46.242 65.906 43.671 66.577 44.701 C 67.516 46.143 65.891 48.084 65.777 49.801 C 65.657 51.597 67.126 56.497 65.877 55.201 C 61.348 50.501 58.148 44.613 55.177 38.801 Z M 65.051 42.482 C 66.041 42.879 66.747 43.168 66.077 43.001 C 65.737 42.916 65.393 42.719 65.051 42.482 Z M 62.477 41.401 C 62.374 41.349 62.271 41.293 62.17 41.234 C 63.007 40.693 64.02 41.769 65.051 42.482 C 64.158 42.125 63.034 41.679 62.477 41.401 Z" style="fill: rgb(255, 255, 255);"/>
</svg>