<?xml version="1.0" encoding="UTF-8" standalone="no"?>
<svg
   version="1.1"
   id="Layer_1"
   x="0px"
   y="0px"
   width="992.00006"
   viewBox="0 0 992.00005 954.73572"
   enable-background="new 0 0 992 992"
   xml:space="preserve"
   sodipodi:docname="to_logo2.svg"
   height="954.73572"
   inkscape:version="1.2.2 (b0a8486541, 2022-12-01)"
   xmlns:inkscape="http://www.inkscape.org/namespaces/inkscape"
   xmlns:sodipodi="http://sodipodi.sourceforge.net/DTD/sodipodi-0.dtd"
   xmlns="http://www.w3.org/2000/svg"
   xmlns:svg="http://www.w3.org/2000/svg"><defs
   id="defs215" /><sodipodi:namedview
   id="namedview213"
   pagecolor="#ffffff"
   bordercolor="#000000"
   borderopacity="0.25"
   inkscape:showpageshadow="2"
   inkscape:pageopacity="0.0"
   inkscape:pagecheckerboard="0"
   inkscape:deskcolor="#d1d1d1"
   showgrid="false"
   inkscape:zoom="0.8125"
   inkscape:cx="485.53846"
   inkscape:cy="443.07692"
   inkscape:window-width="1920"
   inkscape:window-height="1009"
   inkscape:window-x="-8"
   inkscape:window-y="-8"
   inkscape:window-maximized="1"
   inkscape:current-layer="Layer_1" />
<path
   fill="#000000"
   opacity="1"
   stroke="none"
   d="m 992.00004,371.03486 c 0,6.02115 0,12.0423 -0.1807,18.83893 -1.5883,3.25418 -2.2971,5.83526 -2.6542,8.74881 -1.7141,13.98031 -2.8996,28.15924 -11.2869,40.30319 -1.04352,1.51083 -1.17768,3.41049 -1.61933,5.18973 -3.14837,12.68313 -4.45538,25.96744 -11.97717,37.25946 -0.61066,0.91672 -1.02918,2.18936 -0.98804,3.27585 0.29492,7.79046 -2.85351,14.62506 -5.92767,21.43554 -4.72852,10.47541 -10.10828,20.85883 -11.54553,32.31513 -1.79072,14.2735 -7.39985,27.18921 -12.64905,40.21759 -3.59943,8.93365 -4.78644,18.62225 -9.23847,27.22961 -0.50683,0.97986 -0.46399,2.26465 -0.59021,3.41748 -0.89489,8.17078 -2.98108,15.86646 -7.21612,23.09369 -4.48603,7.65558 -7.49335,15.92499 -6.87592,25.11292 0.29126,4.33441 -0.64636,8.92193 -4.03729,11.35925 -3.25915,2.34271 -4.15527,5.23718 -5.18701,8.51123 -1.19977,3.80737 -1.76495,8.12341 -3.9798,11.24304 -6.11035,8.60669 -6.48206,18.49243 -8.0722,28.28925 -1.48261,9.13403 -2.94892,18.51263 -8.34259,26.42431 -1.66962,2.44898 -2.70405,4.9513 -3.17939,7.72565 -1.57574,9.19635 -3.59173,18.33453 -7.00494,26.97736 -2.8255,7.1549 -6.20917,13.87903 -7.19952,21.79919 -0.92365,7.3866 -5.11213,14.01044 -8.20936,20.8299 -3.58868,7.90142 -6.48211,16.01605 -7.9334,24.61963 -1.91327,11.34295 -4.91425,22.27484 -10.03187,32.74743 -2.24359,4.59137 -5.42065,9.38513 -5.54809,14.61865 -0.22833,9.37513 -5.23084,16.58014 -9.98639,23.72291 -5.00873,7.52307 -12.3775,12.97985 -19.59436,18.39379 -20.23432,15.17926 -42.53778,22.21821 -67.95807,17.75611 -10.04492,-1.76319 -20.16827,-1.41266 -30.33093,-0.31006 -10.19709,1.10626 -20.49396,2.9107 -30.66883,-0.52204 -0.86786,-0.29272 -2.00213,-0.10229 -2.93475,0.15088 -9.35895,2.54041 -18.7854,1.52491 -28.26385,0.93488 -5.30091,-0.32996 -10.69825,-2.46021 -15.84345,-1.04651 -10.97931,3.0166 -21.7456,1.00568 -32.6604,0.13648 -5.02325,-0.40009 -9.50543,-3.68561 -14.4386,-2.80707 -9.21209,1.6405 -18.40259,2.75384 -27.768,2.31897 -1.27216,-0.059 -2.84803,0.10278 -3.81318,0.80688 -5.06323,3.69318 -10.54748,2.84351 -15.70013,1.04736 -7.53949,-2.62811 -15.09985,-2.33941 -22.63238,-1.07037 -8.4563,1.42462 -16.8129,2.05365 -25.25342,0.26575 -5.09363,-1.0791 -10.15811,-1.86432 -15.16632,0.50336 -1.58603,0.74981 -3.28202,0.29003 -4.87113,-0.30066 -7.44915,-2.76911 -15.01785,-0.72846 -22.40292,-0.0274 -8.00354,0.75965 -15.93823,1.34125 -23.84424,0.11249 -12.93091,-2.00976 -25.78436,-2.05597 -38.79294,-0.61603 -8.81054,0.97528 -17.8331,3.06952 -26.58627,-0.78112 -1.25818,-0.55347 -2.59586,-0.49378 -3.8971,0.038 -6.56778,2.6842 -13.37732,1.7074 -20.19744,1.59357 -10.47651,-0.17481 -20.73096,-3.04932 -31.53028,-0.14905 -8.6394,2.32025 -17.79855,-0.92102 -26.72555,-1.78577 -5.28147,-0.51153 -10.32828,-3.99011 -15.60344,-2.32464 -8.37442,2.64392 -16.85036,1.3128 -25.2753,1.81152 -4.99854,0.2959 -9.4595,-1.10925 -13.93947,-3.12732 -30.3869,-13.6886 -50.14023,-36.47778 -59.29697,-68.54712 -2.31973,-8.12433 -4.10727,-16.53906 -7.0728,-24.30108 -4.45834,-11.66938 -8.36393,-23.44092 -11.63652,-35.4524 -0.69304,-2.54382 -0.71595,-5.31646 -1.95572,-7.68982 -5.11813,-9.79797 -7.83042,-20.36316 -10.31404,-31.03894 -1.41715,-6.09155 0.31696,-12.91528 -3.66203,-18.34112 -6.63971,-9.05408 -8.44264,-20.14752 -12.58885,-30.18732 -5.47395,-13.25458 -8.10023,-27.67273 -13.720472,-41.02838 -4.24575,-10.08948 -5.0611,-21.27008 -9.963993,-31.21472 -1.477699,-2.99719 -0.552391,-7.29425 -2.264297,-10.03675 C 77.932755,643.99762 76.894646,637.75482 74.54908,631.94366 69.430786,619.26306 67.82975,605.44098 62.898148,592.8161 54.125839,570.35895 47.477665,547.22858 39.619526,524.49078 37.511215,518.39038 37.061813,511.62183 34.396152,505.82947 29.495098,495.17969 26.378918,484.09848 23.614885,472.8017 22.278265,467.33887 23.746254,461.478 20.644016,456.2818 13.279364,443.94615 9.6728933,430.03721 4.639601,416.74018 2.721537,411.67301 2.459704,406.01115 0,401.03486 c 0,-7.68759 0,-15.37515 0.111476,-23.88318 0.520399,-1.90854 1.138477,-2.96551 1.305668,-4.08954 1.556902,-10.46713 5.015714,-20.36014 9.424104,-29.88794 6.033515,-13.04019 13.524583,-24.66778 27.777183,-30.61044 6.875015,-2.86655 12.406902,-8.30847 17.996849,-13.32791 8.262756,-7.4195 15.738098,-15.92691 26.777901,-19.56885 0.747177,-0.24643 1.515213,-0.80597 1.99414,-1.43326 8.250407,-10.80627 20.415659,-16.32214 31.457559,-23.35443 1.53884,-0.98004 3.60277,-1.61294 4.52801,-3.00275 6.71413,-10.08566 17.60692,-14.36721 27.35082,-20.31178 5.32025,-3.24573 11.62593,-4.40162 16.17976,-9.45042 8.95929,-9.93315 19.43674,-18.40903 30.16294,-26.2827 5.93449,-4.35623 13.09494,-7.37383 18.43457,-12.54888 4.83166,-4.68272 10.23776,-8.47662 15.45201,-12.59707 4.61441,-3.64646 10.99583,-5.04677 14.66145,-9.34505 5.76337,-6.75809 13.91861,-9.85857 20.43518,-15.46579 12.08228,-10.39628 25.70349,-18.91058 38.88468,-27.95016 13.97604,-9.58466 27.10537,-20.396604 40.8417,-30.384603 21.6781,-15.762612 43.40604,-31.466874 65.01166,-47.333989 1.7164,-1.260536 3.68536,-2.458496 5.71512,-2.950501 3.82928,-0.928211 6.31418,-3.497226 8.94085,-6.060863 11.88978,-11.604351 24.83734,-21.671406 41.01932,-26.5763322 15.17664,-4.60018899 30.74368,-5.652954 46.43643,-3.65130999 12.45426,1.58856799 24.93723,4.08246399 35.27695,11.51005219 13.46033,9.669292 28.19464,17.879192 39.01617,30.85107 3.50556,4.202183 8.87085,4.24052 12.94947,7.011928 10.32861,7.018357 19.91748,15.12719 30.22375,22.047883 14.90003,10.005432 28.73993,21.407322 43.64862,31.362735 16.99884,11.35119 31.45038,26.16801 49.6048,36.04453 13.35291,7.26439 22.65729,20.32001 36.77515,26.68074 0.71966,0.32425 1.42383,0.98804 1.82043,1.67537 2.76502,4.79146 7.63196,6.72513 12.15619,9.16458 6.32678,3.41133 12.25324,7.47576 17.29163,12.58023 3.29168,3.33483 6.95764,6.14891 10.43225,9.22127 4.24823,3.75635 9.71704,4.98424 14.30591,7.94092 8.0559,5.19072 14.02746,12.80746 20.99578,19.14986 8.51661,7.75145 17.82709,13.3213 27.71833,18.62172 8.62268,4.62063 17.41247,9.25772 22.95269,17.95669 0.4939,0.77557 1.568,1.2074 2.41626,1.72769 12.00806,7.36557 25.06434,13.30429 33.89936,24.98688 0.37469,0.49536 1.0523,0.89185 1.66388,1.05829 9.26904,2.52261 15.61694,9.26953 22.26776,15.50387 6.21545,5.82608 12.49463,11.68274 19.89471,15.82688 5.43146,3.04165 8.85401,7.35754 11.82379,12.42517 6.71479,11.45825 10.64488,23.97241 13.96678,36.71939 M 275.33878,764.94679 c -19.89838,12.47986 -39.74961,25.03607 -59.73848,37.36926 -3.61361,2.22955 -4.63451,4.49274 -3.22788,8.54431 3.60063,10.37097 6.86377,20.85895 10.27028,31.29736 2.03455,6.2345 2.78018,6.45465 7.99817,2.30353 33.50696,-26.65625 67.00613,-53.32233 100.52927,-79.95825 0.92279,-0.73322 1.70678,-2.22766 3.9122,-0.9306 -31.51673,35.56689 -62.91809,71.0036 -94.6523,106.81592 4.86442,4.07812 9.48509,6.29888 15.07335,6.29736 24.4981,-0.007 48.99655,-0.0798 73.49392,0.0526 3.98069,0.0215 6.42597,-1.25464 8.36139,-4.8125 18.46918,-33.9516 37.06732,-67.83319 55.67118,-101.71136 0.79803,-1.45325 1.13424,-3.44239 3.21676,-4.03724 0.70471,1.63636 -0.17791,2.76661 -0.63717,3.95673 -12.82593,33.23792 -25.659,66.47302 -38.49567,99.70679 -2.27243,5.88312 -1.73856,6.81378 4.39499,6.82397 23.33148,0.0389 46.66348,-0.0581 69.99414,0.0851 4.15781,0.0255 5.79535,-1.46699 6.53082,-5.56397 5.75141,-32.03955 11.71866,-64.04028 17.62631,-96.0517 2.42844,-13.15887 4.87412,-26.31451 7.36219,-39.7428 1.84439,1.25416 1.34539,2.69727 1.31671,3.88361 -0.43476,17.98334 -0.87421,35.96686 -1.42838,53.94684 -0.79519,25.80115 -1.62536,51.60156 -2.58953,77.39679 -0.16965,4.53955 1.39623,6.17181 6.01379,6.13782 22.33032,-0.16431 44.66348,-0.16724 66.99347,0.025 4.72723,0.0406 6.63727,-1.32758 6.38861,-6.27264 -0.83612,-16.62775 -1.3877,-33.2699 -2.0332,-49.90711 -0.98755,-25.45068 -1.96814,-50.90167 -2.92994,-76.35327 -0.0611,-1.61682 -0.54089,-3.31372 0.62091,-4.94635 2.22895,2.0686 1.81543,4.87665 2.27387,7.38403 7.58783,41.50391 15.20026,83.00348 22.66754,124.52918 0.73248,4.07373 2.50952,5.56622 6.63654,5.54382 24.16406,-0.13135 48.32922,-0.0475 72.49401,-0.07 5.87134,-0.005 6.32374,-0.63208 4.17524,-5.98407 -14.32611,-35.68737 -28.69068,-71.35925 -43.02942,-107.04156 -0.60767,-1.51233 -1.79401,-2.98761 -0.93122,-4.90607 1.9104,0.74811 2.30231,2.29358 2.99585,3.5741 19.59552,36.17822 39.24183,72.32934 58.68165,108.59106 2.25079,4.19843 4.80297,5.94794 9.6881,5.88794 21.32844,-0.26178 42.66315,-0.23504 63.99292,-0.0367 6.1258,0.057 11.36847,-1.86487 16.51105,-4.82343 3.14649,-1.81017 3.90888,-3.31603 1.17725,-6.42858 -28.79401,-32.80903 -57.47009,-65.72156 -86.15241,-98.62854 -1.19207,-1.36762 -3.01745,-2.46125 -3.06598,-4.90528 1.85688,0.12146 2.75019,1.15845 3.75794,1.96607 6.49939,5.20947 12.98614,10.43475 19.49176,15.63647 25.8905,20.70093 51.77673,41.40698 77.68872,62.08087 4.84003,3.8617 5.20459,3.72394 7.17737,-2.26684 3.38348,-10.2749 6.5509,-20.62457 10.13849,-30.82697 1.55041,-4.40918 0.59094,-6.96564 -3.42072,-9.45123 -21.38373,-13.24902 -42.62121,-26.73413 -63.87872,-40.18591 -1.46265,-0.9256 -3.47223,-1.35651 -4.00531,-3.57819 2.5329,-0.69513 4.57245,0.73785 6.67932,1.4624 22.66736,7.79529 45.33673,15.58734 67.92596,23.60443 3.98151,1.41309 5.98114,0.64301 6.81372,-3.42663 0.19843,-0.97003 0.63679,-1.88965 0.94538,-2.83875 28.96008,-89.10302 57.91168,-178.2088 86.87988,-267.3092 11.47357,-35.29041 23.00019,-70.56354 34.46887,-105.85556 4.59241,-14.13202 -0.4486,-30.18176 -12.20385,-38.74124 -23.56946,-17.16187 -47.18927,-34.25458 -70.77491,-51.39432 -61.99353,-45.051 -123.96862,-90.12741 -185.97302,-135.1635 -43.1319,-31.32828 -86.27252,-62.6445 -129.4707,-93.881143 -11.05182,-7.991577 -27.7186,-7.607407 -38.86041,0.49226 C 422.02542,122.18032 367.18182,162.05036 312.32602,201.90354 238.59851,255.46714 164.8584,309.01337 91.127898,362.57285 80.185089,370.52198 74.904762,387.13081 79.08725,400.0102 c 12.485518,38.44721 24.90397,76.91623 37.39828,115.36057 28.23372,86.87384 56.5264,173.72845 84.6646,260.63318 1.44289,4.45636 3.01558,5.6073 7.75501,4.11926 23.49781,-7.37793 47.11964,-14.3617 70.71455,-21.42816 1.60605,-0.48096 3.25323,-1.84174 5.65478,-0.0576 -3.27999,2.07654 -6.30593,3.99219 -9.93569,6.30939 z"
   id="path206"
   style="fill:#ffffff;fill-opacity:1" />
<path
   fill="#000000"
   opacity="1"
   stroke="none"
   d="m 661.29303,450.94624 c 9.75452,21.9324 16.33527,44.30664 17.94586,68.00518 0.58606,8.6236 -2.11969,12.81501 -10.49774,14.83741 -8.56207,2.06683 -17.21179,3.76837 -25.80792,5.69757 -1.89453,0.42517 -3.96784,0.47552 -5.51685,1.90143 2.73609,7.29077 12.82117,17.1455 21.42218,17.67566 27.72211,1.70892 55.53382,2.51269 83.14545,5.74108 20.84723,2.4375 41.56067,5.73481 60.94061,14.44349 6.28131,2.82257 12.08954,6.43469 16.44904,11.90869 5.09442,6.39673 3.40637,11.62018 -4.36609,13.94208 -7.52771,2.24871 -7.51789,2.2445 -4.5022,9.19085 1.12543,2.59235 2.23615,5.10657 1.45935,8.15607 -0.65338,2.56494 1.45618,4.29895 2.84943,6.10242 5.9881,7.75097 6.02398,11.6488 -0.16583,19.33624 -1.5492,1.92395 -1.32807,4.08563 -1.20673,6.19531 0.27362,4.75836 -1.45831,8.80329 -4.10053,12.55713 -0.65759,0.9342 -1.5285,2.34369 -2.38769,2.40961 -5.8653,0.45013 -5.92529,5.00976 -6.54474,9.0271 -0.75928,4.92425 -3.34784,8.69769 -7.93396,9.94879 -3.63721,0.99219 -5.21582,2.96521 -6.43884,6.08313 -2.13556,5.44391 -4.76606,10.24164 -11.92639,10.10296 -2.69739,-0.0522 -3.25336,3.05286 -4.30402,5.04102 -2.48181,4.69635 -5.05792,9.13092 -11.37122,8.94012 -1.11242,-0.0336 -1.92529,0.81226 -2.26513,1.73383 -1.7533,4.75366 -5.68903,6.08752 -10.13709,6.92297 -1.39483,0.26197 -3.22247,0.97638 -3.86096,2.06501 -4.45611,7.59808 -12.4635,8.4671 -19.71167,10.30865 -11.63739,2.95679 -23.57666,4.03815 -35.60211,4.20715 -8.15796,0.11463 -16.34064,0.22126 -24.46027,0.92829 -15.34393,1.33618 -28.84857,-3.5373 -41.66308,-11.2981 -17.80719,-10.78448 -35.21369,-22.23889 -53.71631,-31.86401 -4.16797,-2.16822 -8.2002,-2.72711 -12.91321,-2.38403 -20.92987,1.52362 -41.90088,2.33184 -62.89893,1.89385 -15.31759,-0.31951 -30.63208,-0.71533 -45.90206,-2.08435 -2.65946,-0.2384 -4.81486,1.09906 -7.03251,2.23713 -16.02676,8.22534 -31.48593,17.45874 -46.44119,27.45031 -17.30404,11.56073 -35.53668,18.26898 -56.83444,16.09833 -17.6713,-1.80115 -35.65469,-0.41138 -53.07025,-4.99213 -4.17468,-1.09802 -8.6698,-1.89263 -12.26715,-4.06781 -6.18796,-3.74163 -11.56852,-8.52581 -18.44022,-11.56182 -3.14932,-1.39142 -5.58195,-5.43207 -9.93414,-6.67774 -3.60533,-1.03186 -5.33864,-4.76178 -6.90569,-8.16186 -1.2818,-2.78113 -2.75456,-4.71723 -6.63226,-4.85962 -4.50418,-0.16529 -7.18187,-3.96576 -8.65784,-8.03803 -1.48033,-4.08429 -3.1042,-7.18237 -8.10698,-8.29718 -4.57348,-1.01922 -6.58549,-5.44549 -7.1811,-9.95953 -0.54232,-4.11005 -1.40772,-6.78088 -6.14255,-8.75763 -4.95865,-2.07025 -6.60329,-8.10828 -6.92206,-13.60761 -0.20366,-3.51306 -0.52542,-6.41827 -3.06868,-9.48858 -3.34351,-4.03632 -3.59453,-9.33331 -0.52187,-14.03064 2.59693,-3.97022 5.39518,-7.38422 5.26929,-12.86701 -0.086,-3.74438 2.82744,-7.55749 4.41377,-11.37341 -2.30401,-1.82471 -4.92317,-1.65546 -7.26899,-2.31256 -7.73531,-2.16651 -9.67165,-7.49585 -4.76543,-13.89099 4.26187,-5.55524 10.15739,-9.04444 16.41374,-11.93219 17.32503,-7.99677 35.84278,-11.01142 54.60918,-12.79907 21.52194,-2.05024 43.06564,-3.87195 64.60104,-5.78034 8.78116,-0.77814 17.56327,-1.5473 26.34867,-2.27557 6.91769,-0.57355 18.2308,-9.76264 19.99447,-16.18921 0.93125,-3.39337 -1.73642,-3.49457 -3.65561,-4.06061 -9.7525,-2.87665 -19.32742,-6.21814 -28.56289,-10.49261 -1.36078,-0.62983 -2.71771,-1.26996 -4.05704,-1.94385 -6.53696,-3.28882 -6.57022,-3.30182 -4.85297,-10.61182 2.88584,-12.28418 4.24228,-24.92135 8.3115,-36.92322 1.44763,-4.26968 -1.31891,-4.86584 -4.1471,-5.58444 -17.72833,-4.50445 -35.45975,-8.99722 -53.20071,-13.45175 -32.58182,-8.18079 -65.17621,-16.31152 -97.75357,-24.51004 -8.72841,-2.19659 -13.15746,-7.03217 -14.05883,-15.91864 -1.14749,-11.31284 1.26706,-21.91824 7.89571,-31.27283 4.50879,-6.363 10.29332,-9.08114 18.55923,-7.22503 55.47854,12.45764 111.02735,24.60214 166.54398,36.89047 3.59277,0.79523 6.53992,0.59781 9.68988,-1.95069 8.75846,-7.08609 19.75787,-8.37676 30.29614,-10.64819 5.35212,-1.15362 10.81391,-1.80972 16.23664,-2.62033 3.07608,-0.45984 5.1084,-1.88455 4.57705,-5.24777 -0.95919,-6.07071 2.98264,-7.84729 7.63166,-9.03858 8.73196,-2.23745 17.68441,-3.29913 26.61816,-3.92166 26.63263,-1.85574 53.23773,-1.68084 79.66443,2.77997 2.77685,0.46875 5.4939,1.3132 8.22168,2.04669 3.43451,0.9235 5.62543,3.01822 5.4527,6.75394 -0.18506,4.00208 1.93219,5.37299 5.51605,6.26709 26.85718,6.70071 53.20422,14.9794 78.32928,26.73144 7.38221,3.45295 14.43958,7.60126 21.63953,11.44269 4.45905,2.37903 7.35236,6.16641 9.63794,10.97193 m -62.17401,138.596 c 3.44495,5.70087 7.01642,11.33014 10.29663,17.12427 2.85773,5.04761 1.39209,7.90601 -4.32153,8.64655 -24.10444,3.1239 -48.31348,5.13232 -72.59638,6.00195 -18.30401,0.65552 -36.61096,0.84656 -54.94641,0.21576 -25.96249,-0.89331 -51.82471,-2.69031 -77.57455,-6.08612 -6.65,-0.87701 -7.9578,-3.50061 -4.54368,-9.46698 3.22501,-5.6358 6.83344,-11.05115 10.13169,-16.64691 1.05987,-1.79816 2.57068,-3.99585 0.68048,-5.94837 -1.98254,-2.04797 -4.40353,-0.85351 -6.47791,0.2107 -5.31771,2.72857 -9.36398,6.83703 -12.5664,11.85522 -3.94245,6.1778 -7.97614,12.29743 -11.95847,18.44989 -7.42151,11.46595 -14.98547,22.84357 -22.19684,34.44031 -4.68487,7.53393 -2.93023,11.90698 5.52906,14.71814 3.45645,1.14862 7.05826,1.91949 10.64172,2.61633 24.66086,4.79529 49.49673,8.18805 74.55377,10.27661 20.26999,1.68964 40.57657,2.55078 60.85614,2.39173 25.61402,-0.20081 51.22809,-1.3642 76.7237,-4.50995 20.14135,-2.48499 40.21856,-5.2688 60.01141,-9.7381 13.70703,-3.09515 15.45441,-7.70557 7.91174,-19.37732 -10.66925,-16.50995 -21.40973,-32.97382 -32.13788,-49.44568 -3.23663,-4.9696 -7.32922,-9.07165 -12.64587,-11.79644 -1.91931,-0.98359 -4.11163,-2.03272 -6.0014,-0.0949 -1.74341,1.78778 -0.64014,3.71887 0.63098,6.16326 m 17.92889,-78.2312 c 10.45661,0.68518 20.89209,1.77893 31.40045,1.37763 7.14582,-0.27289 9.16651,-2.77326 7.753,-9.85394 -0.55286,-2.76917 -1.2146,-5.52216 -1.63434,-8.31147 -3.68543,-24.4946 -15.79712,-41.54052 -39.96356,-50.64456 -36.71345,-13.83078 -74.58576,-21.83932 -113.33906,-26.36157 -9.09216,-1.06101 -11.60867,1.61066 -12.11856,10.7655 -0.0832,1.49283 -0.0733,2.99842 0.009,4.4917 0.91672,16.57871 6.65534,31.78763 13.37079,46.70419 1.34302,2.98316 3.86966,4.94745 6.53308,6.72037 8.58112,5.71228 18.25342,8.81223 28.05463,11.49613 25.89367,7.09063 52.37311,10.81012 79.93426,13.61602 M 361.1744,450.14196 c 12.60242,3.03546 25.21134,6.04443 37.80283,9.12457 3.22867,0.78986 6.01074,0.31277 7.98468,-2.49136 1.96979,-2.79819 1.45297,-5.70716 -0.20474,-8.45136 -2.13276,-3.53055 -5.55094,-5.03595 -9.41913,-5.94607 -30.73026,-7.23035 -61.44077,-14.5445 -92.1727,-21.76776 -33.31741,-7.83091 -66.64734,-15.60895 -99.98258,-23.36371 -4.83657,-1.12513 -8.08546,1.23126 -8.7564,6.06506 -0.72048,5.19076 1.48339,8.1283 7.70958,9.60672 52.07066,12.36447 104.15461,24.67294 157.03846,37.22391 m -6.30398,163.32919 c 4.57519,-6.53876 9.18152,-13.05615 13.7015,-19.63287 0.99479,-1.44733 2.49451,-3.06733 1.00284,-4.93518 -1.26535,-1.58448 -3.19403,-1.57398 -5.06775,-1.26892 -13.26425,2.15881 -26.54016,4.24945 -39.78735,6.50836 -7.62625,1.30041 -8.86264,3.73657 -5.77457,10.95459 4.05307,9.47345 8.22525,18.89587 12.29276,28.36316 2.55969,5.95776 4.72925,6.49578 8.59372,1.39971 5.1192,-6.75073 9.79916,-13.83459 15.03885,-21.38885 m 302.28454,10.96491 c 2.91706,4.03881 5.36939,8.42559 8.88654,12.01477 2.14758,2.19152 4.45587,2.77618 5.90637,-0.52778 4.87555,-11.10571 9.74762,-22.21984 14.25128,-33.47869 1.88147,-4.70362 0.21063,-7.22913 -4.89721,-8.11817 -13.72058,-2.38824 -27.47535,-4.58215 -41.22724,-6.78662 -1.80499,-0.28931 -3.78943,-0.31708 -5.0296,1.39172 -1.37817,1.89887 -0.03,3.48462 0.98993,4.96589 6.88318,9.99694 13.80341,19.96838 21.11993,30.53888 m -392.67086,5.78558 c -17.78827,-0.26685 -35.57662,-0.52734 -53.36474,-0.80457 -5.08778,-0.0793 -9.55433,1.32471 -12.76597,5.49115 -3.74518,4.85865 -2.08713,9.10846 3.91214,10.0141 1.96007,0.2959 3.97856,0.29779 5.96925,0.28339 22.94959,-0.16614 45.89888,-0.36908 68.84847,-0.53485 2.0158,-0.0146 3.97747,-0.13245 5.84747,-0.97589 4.20499,-1.89667 5.12158,-5.96265 1.91611,-9.26044 -2.53107,-2.60394 -5.77558,-3.89075 -9.39444,-4.04169 -3.32196,-0.13849 -6.65061,-0.11603 -10.96829,-0.1712 m 484.04318,13.96704 c 6.82483,0.1261 13.64929,0.27801 20.47455,0.37231 10.49035,0.1449 20.98114,0.29187 31.4721,0.34558 2.92798,0.015 5.86847,-0.55957 6.95355,-3.77331 1.1792,-3.49207 -0.67303,-6.18555 -3.20208,-8.29926 -2.89765,-2.42175 -6.3255,-3.48712 -10.17011,-3.45996 -13.8233,0.0975 -27.64831,8e-4 -41.47076,0.1529 -7.98962,0.0879 -15.97974,0.4256 -23.96173,0.81323 -5.88202,0.2857 -11.08087,4.25152 -11.12958,8.20056 -0.0459,3.7251 4.15808,6.08679 11.06708,6.03571 6.32708,-0.0468 12.65301,-0.24799 19.96698,-0.38776 m -531.95223,9.20233 c -3.79498,0.17212 -7.68322,-0.56146 -11.33171,1.06171 -3.70062,1.64636 -4.13592,4.17383 -1.08108,6.84662 2.87571,2.51605 6.33207,3.44696 10.14479,3.43725 21.28772,-0.0541 42.57557,-0.0627 63.86339,-0.0507 2.3583,10e-4 4.65844,-0.17474 6.82586,-1.14575 3.9148,-1.75409 4.36716,-4.44568 1.08231,-7.20776 -3.64151,-3.06189 -8.17139,-3.91864 -12.65906,-3.67353 -18.61708,1.01667 -37.24551,0.45783 -56.8445,0.73212 M 729.497,664.58995 c 19.96332,-1.03913 39.92615,0.26239 59.89075,0.0483 3.82544,-0.0411 7.2879,-0.81373 10.28436,-3.11011 3.60914,-2.76605 3.13263,-5.80323 -1.08996,-7.3515 -1.22199,-0.44806 -2.58008,-0.71534 -3.88001,-0.73163 -21.45904,-0.26917 -42.9237,-0.01 -64.37671,-0.92517 -4.35058,-0.18561 -8.66949,0.78534 -12.18786,3.64495 -3.28754,2.672 -2.80115,5.64612 1.12176,7.17658 2.97992,1.1626 6.13746,1.44202 10.23767,1.2486 m -508.61582,16.38739 c 1.80281,0.22895 3.60866,0.67798 5.40797,0.65314 20.47211,-0.2821 40.94342,-0.62591 61.41419,-0.9967 1.3096,-0.0237 2.63586,-0.31653 3.91266,-0.64582 1.43335,-0.36969 3.09726,-0.70843 3.22671,-2.59771 0.10627,-1.55066 -1.17596,-2.31372 -2.31863,-2.99195 -3.19907,-1.89874 -6.61569,-3.07025 -10.39984,-3.03772 -6.65924,0.0573 -13.32062,-0.0245 -19.97803,0.10651 -12.97919,0.25537 -25.95728,0.58337 -38.93346,0.96216 -2.8519,0.0832 -6.15713,0.42108 -7.13225,3.47406 -0.88676,2.7763 1.97646,3.78644 4.80068,5.07403 m 537.4868,0.0692 c 2.48846,0.16394 4.97864,0.48681 7.46503,0.46014 5.9472,-0.0638 11.98657,1.17572 17.80633,-0.87353 2.14789,-0.75629 4.94922,-1.64862 4.59717,-4.47614 -0.36743,-2.95129 -3.23541,-3.56061 -5.77515,-3.69543 -20.59777,-1.09302 -41.21679,-1.13397 -61.83563,-1.0976 -1.14441,0.002 -2.35211,0.1695 -3.4198,0.56128 -2.87439,1.05493 -7.42138,1.48718 -6.98334,5.13996 0.47925,3.99664 5.05463,3.44445 8.25983,3.50177 12.97003,0.23181 25.94269,0.31842 39.88556,0.47955 m -520.49092,8.34613 c -3.58168,0.68048 -9.47203,-0.30097 -9.50626,4.01105 -0.0367,4.62017 5.80898,4.34698 9.67514,4.67535 13.30275,1.12994 26.58471,-0.59216 39.8904,-0.47308 7.46903,0.0668 14.94537,-0.61109 22.41711,-0.97956 1.51902,-0.0749 3.23926,-0.24865 3.70697,-1.94311 0.59177,-2.1438 -1.3247,-2.86719 -2.77587,-3.52747 -4.3064,-1.95941 -8.9845,-2.89227 -13.59531,-2.5719 -16.29092,1.13233 -32.59873,0.26038 -49.81218,0.80872 m 506.62282,-0.25031 c -8.14734,-0.20935 -16.30219,0.1529 -24.44513,-0.6184 -5.33899,-0.50568 -10.64459,0.0526 -15.70746,1.96801 -1.64002,0.62043 -3.96491,1.11499 -3.58075,3.46509 0.40021,2.44861 2.70361,2.57025 4.75342,2.6463 5.81915,0.21576 11.6391,0.41162 17.45721,0.65241 15.13025,0.62604 30.26544,1.06457 45.40223,0.42108 3.11779,-0.13263 7.4981,-0.62915 7.55786,-4.18622 0.0653,-3.89203 -4.57575,-3.78845 -7.47937,-3.94751 -7.63709,-0.41815 -15.30335,-0.30389 -23.95801,-0.40076 m -52.82569,21.78778 c 19.66474,-0.009 39.32959,0.0252 58.9939,-0.0705 2.98773,-0.0145 6.38764,0.52338 8.65704,-3.04852 -3.23938,-3.35144 -7.3142,-3.28101 -11.16101,-3.32807 -9.98816,-0.12213 -19.95465,1.01843 -29.96545,0.48285 -6.98358,-0.37366 -13.99658,-0.64844 -20.97943,-0.42737 -4.77399,0.15119 -9.72748,0.70795 -13.53906,4.66699 2.38482,2.4679 4.85314,1.46607 7.99401,1.72461 m -421.15957,-5.69494 c -6.80759,0.0975 -13.6156,-1.13867 -20.42697,0.0639 -1.84037,0.32489 -4.03424,0.45435 -4.21952,2.68665 -0.20692,2.49286 2.10743,2.57727 3.90122,2.84228 1.47786,0.21833 2.97304,0.45514 4.46029,0.45368 20.46924,-0.0201 40.93854,-0.061 61.40751,-0.16199 1.8897,-0.009 4.00054,0.58325 6.00143,-1.46332 -4.79636,-4.08014 -10.40872,-5.16937 -16.19775,-5.13714 -11.31147,0.063 -22.62101,0.46411 -34.92621,0.71594 m 529.99551,-87.77515 c -2.74682,-1.88598 -5.86804,-2.02984 -9.06024,-2.09173 -20.46851,-0.39704 -40.90863,0.81048 -61.36554,1.03808 -0.9931,0.011 -2.02118,0.0115 -2.9682,0.26172 -1.27759,0.33759 -2.72345,0.8009 -2.74561,2.45001 -0.0234,1.74182 1.47767,2.07184 2.7826,2.27948 1.30468,0.20752 2.65185,0.23883 3.97735,0.20929 11.13941,-0.24756 22.27686,-0.60602 33.41736,-0.77368 10.47925,-0.15771 20.96234,-0.0656 31.44147,-0.229 1.88525,-0.0294 4.66229,0.88171 4.52081,-3.14417 m -543.01208,-1.1839 c -14.7905,-0.2915 -29.58019,-0.65783 -44.3721,-0.8186 -3.42942,-0.0373 -7.22323,-0.23602 -9.4217,3.40918 1.28304,1.71741 2.8124,1.75336 4.30559,1.77612 22.93683,0.35022 45.87383,0.69147 68.81108,1.01294 2.10895,0.0295 4.2305,-0.067 5.7464,-2.5387 -2.64746,-1.71453 -5.23037,-2.63989 -8.10864,-2.68237 -5.32001,-0.0785 -10.64075,-0.1051 -16.96063,-0.15857 m 59.08203,108.40442 c 5.89004,0 11.78009,0 17.67013,0 0.0572,-0.45001 0.11435,-0.89996 0.17154,-1.34997 -4.04214,-2.45984 -8.59143,-3.7472 -13.31708,-3.8382 -17.44738,-0.33588 -34.90908,0.159 -52.3435,-1.04278 -2.31583,-0.15967 -4.88312,-0.56489 -7.94046,2.1416 18.69562,5.22375 36.96323,2.09179 55.75937,4.08935 m 368.15832,-5.26352 c -4.80108,-0.0292 -9.35998,0.7572 -13.45086,3.51496 0.77044,1.80175 1.98944,1.73669 3.13031,1.69915 20.09625,-0.66223 40.19458,-1.27832 60.28466,-2.09424 2.56263,-0.10412 5.35956,-0.66687 7.15967,-3.47161 -18.79522,-0.53235 -37.48535,0.80981 -57.12378,0.35174 m -375.483,15.56647 c 12.50498,1.76984 30.87808,0.76037 35.89926,-2.29596 -21.38699,-1.48395 -42.22622,-2.42529 -63.11172,-2.52277 8.47275,3.52118 17.38122,4.12018 27.21246,4.81873 m 381.57034,-4.52661 c -5.31024,0.34796 -10.62121,0.68597 -15.9306,1.04675 -5.24121,0.35608 -10.48083,0.73505 -15.72119,1.104 0.0505,0.44471 0.10089,0.88941 0.15137,1.33411 21.65765,2.67163 43.1206,1.92761 65.20599,-3.87292 -11.54657,-0.9469 -22.13666,0.7398 -33.70557,0.38806 z"
   id="path208"
   style="fill:#ffffff;fill-opacity:1" />
<path
   fill="#000000"
   opacity="1"
   stroke="none"
   d="m 721.11145,465.72859 c 40.18628,11.44207 79.97906,22.81375 119.81799,34.1986 -0.60199,1.83173 -1.79828,2.05841 -2.87909,2.30848 -43.91223,10.15942 -87.83087,20.29119 -131.7409,30.46032 -2.47101,0.57227 -4.94501,0.83063 -7.43756,0.56714 -3.21118,-0.33941 -5.81824,-1.85736 -6.83594,-5.03558 -1.04944,-3.2771 0.54883,-5.85077 3.04944,-7.84662 2.76416,-2.20612 5.99109,-3.5614 9.2959,-4.7638 13.8955,-5.05535 27.77887,-10.14434 42.3598,-15.47442 -15.50195,-6.41473 -30.35504,-12.56656 -45.21308,-18.70639 -5.0816,-2.09986 -10.24554,-4.05704 -14.64855,-7.45932 -7.49006,-5.78757 -7.90833,-12.84473 -1.14667,-19.52127 2.7392,-2.70465 5.95288,-4.81003 9.24371,-6.79322 22.12006,-13.33059 44.23725,-26.66583 66.3479,-40.01196 2.08234,-1.2569 4.11286,-2.59961 6.16742,-3.90246 -0.11163,-0.40473 -0.22327,-0.80945 -0.33484,-1.21418 -5.73901,0 -11.48468,-0.18023 -17.21588,0.0312 -24.64184,0.90937 -49.28522,1.77915 -73.94604,1.79395 -13.25867,0.008 -18.77179,-6.9346 -15.76545,-20.15082 4.05591,-17.83032 8.5,-35.57239 12.78913,-53.34952 0.23047,-0.95501 0.76947,-1.87487 -0.0823,-3.18539 -3.42724,0.43677 -6.09393,2.79806 -8.98309,4.4862 -14.81531,8.65653 -29.53974,17.46848 -44.31256,26.19785 -1.71771,1.01498 -3.48676,1.97745 -5.32056,2.75552 -9.87891,4.19135 -17.11987,1.54303 -21.81219,-8.15091 -3.56513,-7.36517 -5.55347,-15.3276 -8.27698,-23.01217 -2.12402,-5.99277 -2.88849,-6.3443 -8.48981,-3.19589 -9.58502,5.38766 -19.10712,10.88723 -28.67267,16.30972 -1.73633,0.98428 -3.5039,1.94577 -5.3432,2.7106 -8.9057,3.70319 -16.12457,0.83899 -18.94574,-8.40759 -3.19751,-10.48023 -5.55725,-21.22025 -8.16131,-31.87659 -6.70884,-27.45407 -13.34809,-54.92517 -20.03052,-82.38573 -0.34033,-1.39853 -0.82446,-2.76208 -2.18945,-4.17863 -2.01902,9.84676 -3.99622,19.7023 -6.06491,29.5386 -6.01908,28.61972 -12.01963,57.24363 -18.15784,85.83786 -1.39481,6.49741 -7.13281,9.78385 -14.18692,8.66291 -6.16965,-0.98035 -11.77048,-3.53803 -17.31046,-6.25232 -12.28585,-6.01959 -23.94555,-13.13797 -35.58697,-20.29028 -1.49695,-0.91977 -2.84494,-2.35508 -5.43766,-1.95801 0.96497,5.90802 3.66852,11.05923 5.61338,16.42849 2.94467,8.12964 6.62558,15.99982 8.50232,24.50022 2.10351,9.52725 -2.13413,14.84909 -11.84387,14.98562 -7.54523,0.10611 -14.67942,-2.65448 -22.22873,-3.25436 -0.14627,1.99298 1.47241,2.59079 2.36981,3.63367 2.27847,2.64782 4.83526,5.08319 6.89233,7.88833 3.38834,4.62046 3.46964,9.46472 0.59699,12.35398 -3.07267,3.09042 -10.48352,3.48062 -14.36374,0.4664 -15.13034,-11.7533 -30.19596,-23.59003 -45.26468,-35.42249 -11.26825,-8.84823 -22.51749,-17.72095 -33.73786,-26.62976 -1.36962,-1.08749 -3.23586,-1.79446 -3.88098,-4.80701 31.07645,6.94492 61.69281,13.78702 93.89176,20.98276 -14.26157,-30.72888 -27.81833,-59.93912 -41.37473,-89.14859 2.50269,-1.50006 3.98786,0.0519 5.53937,0.72568 20.76471,9.01895 38.74844,22.74005 57.95407,34.39496 12.67288,7.69046 25.06952,15.84921 38.38748,22.42569 6.01297,2.96923 7.19275,2.5346 8.24576,-3.97339 3.36877,-20.81989 6.39072,-41.69583 9.7468,-62.51782 7.31955,-45.41251 13.33621,-91.05686 23.91861,-135.89443 0.99383,-4.21086 2.2258,-8.369 4.17202,-12.262144 0.97467,-1.94958 2.01932,-4.150549 4.51966,-4.185339 2.81564,-0.0392 3.85315,2.451039 4.72543,4.555079 3.46817,8.365454 4.61569,17.321364 6.22766,26.134574 5.94654,32.51218 11.75681,65.04926 17.62967,97.57494 5.48828,30.39604 10.99066,60.78957 16.4881,91.18394 0.1477,0.81668 0.27234,1.6399 0.46985,2.44483 1.22247,4.9826 1.94873,5.31006 6.20904,2.16159 16.88483,-12.47852 33.71381,-25.03256 50.57575,-37.54211 1.448,-1.07428 2.70209,-2.50242 5.74255,-2.99985 3.79022,20.51382 7.58246,41.03845 11.46247,62.03821 37.083,-26.91742 73.54736,-53.38575 110.01171,-79.8541 0.49121,0.3208 0.98242,0.6416 1.4737,0.9624 -14.45557,40.50061 -28.91107,81.00125 -43.81446,122.75662 69.90473,-5.72451 138.48633,-11.34072 207.06794,-16.9569 0.15606,0.54855 0.31213,1.09707 0.4682,1.64563 -58.68183,30.84945 -117.36365,61.69891 -176.53955,92.8081 3.13714,2.26108 6.30938,2.59262 9.604,3.66065 z"
   id="path210"
   style="fill:#ffffff;fill-opacity:1" />
</svg>
