<svg xmlns="http://www.w3.org/2000/svg" width="393" height="500" viewBox="0 0 3930 5000"><g fill="rgb(255,255,255)"><g><path d="M1908 4919 c-61 -80 -222 -286 -391 -499 -59 -74 -106 -139 -104 -143 1 -4 28 -40 60 -80 31 -40 179 -227 328 -417 149 -190 294 -374 322 -410 28 -36 74 -94 102 -130 28 -36 85 -108 126 -160 41 -52 217 -275 389 -495 173 -220 348 -443 389 -495 42 -53 105 -133 141 -179 36 -46 72 -92 80 -102 l15 -19 150 192 c205 262 258 329 337 428 37 46 68 87 68 90 0 4 -636 817 -959 1225 -70 89 -814 1037 -890 1134 -37 46 -75 95 -86 109 l-21 24 -56 -73z"/><path d="M1154 3959 c-110 -141 -156 -200 -254 -324 -47 -60 -102 -130 -123 -156 l-38 -49 147 -187 c81 -104 182 -231 223 -283 108 -136 142 -180 491 -625 173 -220 348 -443 389 -495 111 -141 153 -193 436 -555 142 -181 261 -334 265 -338 l7 -8 79 102 c110 141 156 200 254 324 47 60 103 131 124 158 l39 50 -13 21 c-11 17 -535 687 -725 926 -28 36 -260 331 -515 655 -255 325 -486 619 -515 655 -28 36 -80 102 -116 147 -35 46 -67 83 -70 83 -4 0 -42 -46 -85 -101z"/><path d="M416 3018 c-188 -240 -249 -317 -330 -418 -33 -41 -63 -80 -68 -86 l-9 -12 133 -168 c137 -176 245 -313 333 -424 43 -54 676 -860 891 -1135 35 -44 119 -150 186 -236 68 -85 188 -239 268 -342 l145 -186 15 18 c8 10 44 56 80 102 36 46 157 200 269 341 l202 258 -257 327 c-142 181 -292 371 -333 423 -41 52 -99 125 -128 163 -29 37 -77 97 -106 135 -29 37 -87 110 -128 162 -41 52 -192 244 -334 425 -258 329 -294 375 -436 555 -170 214 -195 246 -214 273 l-20 28 -159 -203z"/></g></g></svg>