<svg width="40" height="23" viewBox="0 0 40 23" xmlns="http://www.w3.org/2000/svg"><title>Shape</title><path d="M35.604 16.123s3.234 3.212 4.034 4.698a.255.255 0 0 1 .036.07c.326.55.406.98.246 1.298-.27.525-1.184.789-1.494.811H32.71c-.398 0-1.226-.105-2.234-.805-.77-.54-1.536-1.432-2.278-2.303-1.108-1.293-2.066-2.416-3.036-2.416-.124 0-.244.02-.36.06-.734.234-1.666 1.286-1.666 4.088 0 .877-.688 1.376-1.17 1.376h-2.618c-.892 0-5.536-.314-9.654-4.68C4.648 12.971.116 2.246.072 2.151c-.282-.694.31-1.072.95-1.072h5.772c.774 0 1.026.47 1.202.893.204.485.96 2.424 2.2 4.603 2.008 3.544 3.242 4.986 4.228 4.986.186 0 .362-.046.528-.14 1.288-.713 1.048-5.34.988-6.293 0-.185-.002-2.065-.662-2.975-.472-.651-1.276-.905-1.762-.997.13-.19.406-.48.76-.65C15.158.064 16.752 0 18.334 0h.878c1.716.024 2.16.135 2.784.294 1.256.301 1.28 1.12 1.17 3.908a65.667 65.667 0 0 0-.066 2.75c0 .225-.01.477-.01.732-.038 1.43-.088 3.042.916 3.703.128.08.278.125.434.125.348 0 1.39 0 4.216-4.878 1.24-2.154 2.2-4.695 2.266-4.886.056-.107.224-.406.428-.527.156-.097.364-.113.472-.113h6.79c.74 0 1.242.113 1.34.395.164.456-.032 1.85-3.132 6.066-.522.702-.98 1.31-1.382 1.841-2.81 3.71-2.81 3.896.166 6.713z" fill="#FFF" fill-rule="evenodd"/></svg>