<?xml version="1.0" encoding="utf-8"?>
<svg xmlns="http://www.w3.org/2000/svg" viewBox="0 0 14 10" width="14" height="10">
  <g style="" transform="matrix(0.0125, 0, 0, 0.0125, 6.679541, 4.643397)">
    <path fill="#009edb" fill-rule="evenodd" d="M -534.36 -371.48 L 585.637 -371.48 L 585.637 428.521 L -534.36 428.521 L -534.36 -371.48 Z" style="stroke-width: 1;"/>
    <path id="a" fill="#fff" d="M 129.687 342.254 C 125.22 347.36 119.439 352.13 113.99 356.528 C 78.782 320.142 37.448 279.816 -1.842 279.816 C -26.2 279.816 -43.744 298.358 -64.211 311.442 C -92.616 329.597 -131.58 339.822 -164.97 326.498 C -182.93 319.678 -200.32 309.634 -213.32 293.317 C -187.06 311.442 -147.69 313.879 -118.03 301.57 C -85.234 287.965 -51.858 269.9 -14.489 269.9 C 40.602 269.9 92.958 307.165 129.687 342.256 L 129.687 342.254 Z M -277.46 227.815 C -241 269.335 -181.5 255.976 -132.82 266.347 C -126.04 267.789 -119.67 270.04 -112.4 268.924 C -118.19 265.252 -125.86 264.84 -132.55 262.321 C -170.32 248.088 -176.21 207.655 -196.89 179.829 C -170.48 197.384 -148.6 221.42 -123.91 244.006 C -106.72 259.726 -85.312 266.453 -63.104 270.972 C -68.44 272.922 -75.421 272.462 -81.168 273.887 C -121.06 283.783 -165.28 299.403 -207.73 285.396 C -235.13 276.357 -263.63 254.95 -277.46 227.815 Z M -335.93 131.723 C -313.18 183.231 -256.02 187.266 -218.01 218.864 C -210.78 224.874 -203.62 230.404 -195.68 234.105 L -195.28 233.69 C -204.05 225.756 -213.54 216.299 -220.34 206.43 C -242.06 174.866 -234.83 131.724 -251.58 98.262 C -236.35 116.482 -222.08 135.243 -213.32 156.105 C -199.23 189.677 -194.44 227.974 -162.81 253.484 C -197.04 242.192 -236.52 244.44 -267.35 224.253 C -299.73 203.034 -329.76 169.54 -335.93 131.723 Z M -360.3 27.512 C -357.02 72.893 -308.7 97.134 -285.65 134.439 C -280.74 142.406 -275.67 150.631 -268.52 157.065 C -269.65 152.235 -273.63 147.953 -275.82 143.212 C -283.2 127.206 -286.55 108.684 -284.69 89.636 C -282.45 66.463 -272.8 44.943 -276.5 20.564 C -256.65 63.425 -263.05 117.008 -251.58 163.351 C -249.04 173.604 -242.79 182.576 -238.94 192.287 C -258.46 177.444 -284.03 164.27 -305.43 147.389 C -326.14 131.064 -344.12 111.93 -353.47 87.033 C -360.2 69.093 -361.96 47.694 -360.3 27.512 Z M -358.94 -56.105 C -356.62 -66.233 -354.83 -76.716 -350.44 -86.007 C -358.78 -43.197 -330.29 -12.274 -320.57 24.764 C -316.91 38.721 -315.65 53.55 -310.01 66.575 C -309.48 66.857 -309.03 66.31 -308.7 65.889 C -322.75 26.472 -302.15 -9.957 -282.09 -41.027 C -276.81 -49.193 -274.28 -58.703 -271.82 -68.317 C -269.65 -50.473 -273.45 -29.817 -276.75 -11.405 C -280.99 12.301 -289.1 34.519 -295.54 57.391 C -299.78 71.679 -298.65 87.805 -296.48 102.776 L -298.52 101.144 C -313.46 73.565 -342.94 52.02 -351.85 21.918 C -358.96 -2.139 -363.87 -29.932 -358.94 -56.105 Z M -343.19 -102.16 C -343.19 -134.55 -330.59 -160.98 -311.67 -185.1 C -311.11 -185.37 -310.72 -185.93 -310.01 -185.8 C -330.84 -154.11 -311.88 -114.12 -314.55 -78.18 L -317.31 -41.295 C -316.89 -41.027 -316.89 -39.919 -315.93 -40.344 C -314.7 -44.456 -314.32 -48.83 -313.61 -53.077 C -308.6 -82.812 -282.49 -103.51 -260.35 -124.5 C -255.27 -129.3 -251.33 -135.15 -248.81 -141.65 C -250.63 -126.84 -254.78 -111.65 -261.43 -98.193 C -278.47 -63.686 -311.39 -35.832 -317.31 3.383 C -320.18 -34.2 -343.19 -62.139 -343.19 -102.16 Z M -288.29 -211.44 C -277.82 -223.04 -266.07 -232.1 -252.11 -235.68 C -279.24 -217.01 -277.76 -183.66 -286.07 -155.78 C -289.12 -145.58 -293.58 -136.03 -295.95 -125.49 L -295.27 -124.94 C -290.74 -136.85 -283 -148.31 -272.92 -157.83 C -253.83 -175.84 -225.13 -186.75 -215.68 -213.08 C -216.11 -176.47 -247.31 -148.65 -275.82 -127.12 C -288.6 -117.46 -299.46 -104.5 -306.1 -90.907 C -304.99 -101.02 -304.47 -109.44 -305.38 -119.31 C -308.3 -151.29 -310.21 -187.14 -288.29 -211.44 Z M -178.14 -272.99 C -198.28 -255.31 -211.71 -232.56 -227.18 -212.12 C -240.05 -195.1 -257.71 -184.56 -272.9 -170.29 C -264.71 -187.29 -263.2 -206.79 -252.79 -223.24 C -234.98 -251.38 -205.56 -262.29 -178.14 -272.99 Z" style="stroke-width: 1;"/>
    <path fill="#fff" d="M 412.212 -258.71 C 407.745 -263.82 401.965 -268.58 396.516 -272.99 C 361.307 -236.59 319.973 -196.26 280.684 -196.26 C 256.325 -196.26 238.781 -214.82 218.314 -227.9 C 189.909 -246.04 150.948 -256.27 117.56 -242.96 C 99.602 -236.13 82.203 -226.09 69.199 -209.78 C 95.478 -227.9 134.831 -230.34 164.499 -218.02 C 197.292 -204.42 230.668 -186.35 268.037 -186.35 C 323.127 -186.35 375.483 -223.62 412.212 -258.71 Z M 5.058 -144.27 C 41.532 -185.78 101.018 -172.43 149.71 -182.8 C 156.487 -184.24 162.852 -186.5 170.127 -185.37 C 164.34 -181.71 156.666 -181.29 149.98 -178.78 C 112.201 -164.54 106.311 -124.11 85.635 -96.283 C 112.044 -113.84 133.922 -137.87 158.616 -160.46 C 175.801 -176.18 197.214 -182.91 219.422 -187.43 C 214.086 -189.38 207.105 -188.92 201.357 -190.34 C 161.468 -200.24 117.242 -215.86 74.797 -201.85 C 47.404 -192.81 18.899 -171.4 5.058 -144.27 Z M -53.406 -48.177 C -30.656 -99.69 26.504 -103.72 64.51 -135.32 C 71.736 -141.33 78.901 -146.86 86.839 -150.56 L 87.249 -150.14 C 78.478 -142.21 68.988 -132.75 62.195 -122.88 C 40.472 -91.32 47.702 -48.179 30.953 -14.716 C 46.17 -32.936 60.442 -51.697 69.204 -72.559 C 83.304 -106.13 88.094 -144.43 119.718 -169.94 C 85.493 -158.65 46.008 -160.9 15.187 -140.71 C -17.21 -119.49 -47.235 -85.994 -53.406 -48.177 Z M -77.777 56.034 C -74.487 10.653 -26.174 -13.588 -3.135 -50.893 C 1.785 -58.861 6.848 -67.085 13.994 -73.519 C 12.88 -68.689 8.904 -64.407 6.715 -59.666 C -0.672 -43.66 -4.017 -25.138 -2.173 -6.09 C 0.072 17.083 9.733 38.603 6.025 62.982 C 25.882 20.121 19.476 -33.462 30.953 -79.805 C 33.491 -90.058 39.735 -99.03 43.582 -108.74 C 24.071 -93.898 -1.497 -80.724 -22.912 -63.843 C -43.623 -47.519 -61.601 -28.385 -70.945 -3.487 C -77.677 14.453 -79.43 35.852 -77.777 56.034 Z M -76.427 139.651 C -74.097 149.779 -72.315 160.262 -67.907 169.553 C -76.25 126.743 -47.77 95.819 -38.047 58.782 C -34.382 44.825 -33.128 29.996 -27.484 16.97 C -26.958 16.689 -26.502 17.236 -26.177 17.657 C -40.227 57.074 -19.631 93.503 0.435 124.573 C 5.708 132.739 8.249 142.249 10.711 151.863 C 12.88 134.019 9.083 113.363 5.781 94.951 C 1.531 71.245 -6.571 49.027 -13.009 26.155 C -17.249 11.867 -16.132 -4.259 -13.956 -19.23 L -16.002 -17.598 C -30.941 9.981 -60.416 31.526 -69.317 61.627 C -76.431 85.685 -81.352 113.478 -76.427 139.651 Z M -60.671 185.7 C -60.671 218.097 -48.057 244.523 -29.135 268.65 C -28.587 268.924 -28.195 269.474 -27.487 269.347 C -48.316 237.66 -29.358 197.664 -32.034 161.726 L -34.782 124.841 C -34.374 124.573 -34.374 123.465 -33.405 123.889 C -32.175 128.002 -31.802 132.376 -31.085 136.623 C -26.071 166.358 0.039 187.055 22.184 208.048 C 27.248 212.843 31.19 218.699 33.727 225.197 C 31.886 210.384 27.754 195.2 21.105 181.739 C 4.06 147.232 -28.86 119.377 -34.782 80.163 C -37.652 117.746 -60.671 145.685 -60.671 185.7 Z M -5.765 294.981 C 4.708 306.595 16.448 315.642 30.424 319.219 C 3.286 300.559 4.76 267.207 -3.549 239.322 C -6.587 229.125 -11.053 219.572 -13.427 209.035 L -12.739 208.487 C -8.226 220.4 -0.478 231.851 9.615 241.374 C 28.703 259.382 57.401 270.283 66.846 296.626 C 66.415 260.019 35.209 232.191 6.71 210.665 C -6.075 201.007 -16.936 188.043 -23.565 174.453 C -22.458 184.568 -21.955 192.983 -22.857 202.856 C -25.783 234.834 -27.681 270.683 -5.765 294.981 Z M 104.386 356.528 C 84.246 338.855 70.808 316.106 55.333 295.657 C 42.466 278.649 24.807 268.111 9.622 253.839 C 17.818 270.846 19.332 290.333 29.742 306.785 C 47.543 334.92 76.964 345.839 104.386 356.528 Z" style="stroke-width: 1; transform-box: fill-box; transform-origin: 50% 50%;" transform="matrix(-1, 0, 0, -1, -0.000063, 0.000052)"/>
    <g fill="#fff" transform="matrix(1.658198, 0, 0, 1.658198, -969.283813, -634.756531)" style="">
      <path d="m748.33 438.85-3.588-1.958a161.5 161.5 0 0 1-29.726 42.309l-20.959-20.96c10.268-10.58 18.547-22.59 24.646-35.57l-3.57-1.953a127.56 127.56 0 0 1-23.925 34.672l-18.986-18.986a100.06 100.06 0 0 0 19.286-28.589l-3.543-1.933a96.54 96.54 0 0 1-18.584 27.687l-20.982-20.982a66.27 66.27 0 0 0 13.406-20.997l-3.544-1.933a62.703 62.703 0 0 1-12.685 20.103l-19.044-19.041a35.338 35.338 0 0 0 9.016-21.765h26.956a62.14 62.14 0 0 1-4.243 20.703l3.544 1.933a66.37 66.37 0 0 0 4.668-22.637h29.715a95.622 95.622 0 0 1-8.224 36.929l3.543 1.933c5.403-12.1 8.39-25.25 8.653-38.864h26.905a126.28 126.28 0 0 1-11.935 51.766l3.572 1.953c7.812-16.624 12.058-34.845 12.338-53.718h29.713c-.297 24.318-6.026 47.344-16.012 67.94l3.589 1.956c10.743-22.127 16.446-46.562 16.446-71.883 0-21.533-4.126-42.423-11.964-61.803l-3.682 1.583c7.382 18.288 11.384 37.955 11.63 58.234h-29.717c-.241-16.178-3.42-31.866-9.236-46.49l-3.654 1.566c5.61 14.138 8.68 29.294 8.917 44.924h-26.908a100.02 100.02 0 0 0-6.746-34.29l-3.655 1.57a96.082 96.082 0 0 1 6.433 32.72h-29.718a66.45 66.45 0 0 0-4.027-20.982l-3.654 1.568a62.433 62.433 0 0 1 3.712 19.414h-26.956a35.334 35.334 0 0 0-9.017-21.765l19.063-19.06c5.887 6.26 10.34 13.53 13.2 21.412l3.653-1.568c-3.06-8.336-7.797-16.027-14.048-22.652l21.013-21.011c8.967 9.333 15.811 20.169 20.347 31.924l3.655-1.57c-4.736-12.21-11.865-23.468-21.193-33.162l19.026-19.03c11.783 12.153 20.836 26.254 26.903 41.559l3.654-1.566c-6.268-15.762-15.605-30.285-27.749-42.796l21.01-21.014c14.86 15.222 26.321 32.885 34.061 52.066l3.682-1.583c-8.178-20.239-20.405-38.828-36.306-54.728-15.959-15.96-34.63-28.215-54.957-36.395l-1.464 3.727c19.223 7.743 36.925 19.218 52.175 34.105l-21.01 21.013c-12.3-11.92-26.55-21.16-42.02-27.42l-1.45 3.696c14.96 6.069 28.748 15.006 40.663 26.564l-19.025 19.026c-9.249-8.898-19.914-15.807-31.475-20.537l-1.452 3.695c11.062 4.533 21.264 11.145 30.12 19.65l-21.01 21.01c-5.91-5.57-12.668-9.942-19.97-12.991l-1.453 3.698a62.362 62.362 0 0 1 18.615 12.103l-19.06 19.06c-6.058-5.426-13.651-8.571-21.77-9.014V304.47a62.274 62.274 0 0 1 22.215 4.807l1.453-3.699c-7.424-3.101-15.418-4.838-23.667-5.08v-29.717c12.032.242 23.69 2.687 34.528 7.129l1.452-3.696c-11.294-4.62-23.446-7.16-35.98-7.402v-26.92c15.955.244 31.426 3.426 45.815 9.26l1.45-3.696c-14.847-6.014-30.803-9.29-47.267-9.534v-29.72c20.24.246 39.871 4.235 58.125 11.585l1.464-3.727c-19.314-7.777-40.126-11.874-61.572-11.874-26.495 0-51.529 6.321-73.729 17.477l1.811 3.466c21.482-10.764 45.25-16.628 69.933-16.926v29.72a130.2 130.2 0 0 0-56.117 13.608l1.805 3.456c16.713-8.273 35.162-12.806 54.312-13.098v26.91a99.56 99.56 0 0 0-41.81 10.081l1.815 3.472c12.341-5.99 25.911-9.3 39.995-9.584v29.719a66.129 66.129 0 0 0-26.195 6.24l1.825 3.486c7.566-3.516 15.82-5.493 24.37-5.758v26.96a35.496 35.496 0 0 0-11.846 2.737l1.822 3.483a31.63 31.63 0 0 1 12.01-2.35c8.466 0 16.425 3.297 22.413 9.283 5.988 5.987 9.284 13.95 9.284 22.417 0 17.478-14.217 31.702-31.698 31.702-8.469 0-16.43-3.298-22.417-9.285-5.987-5.99-9.284-13.95-9.284-22.417 0-8.468 3.297-16.43 9.284-22.417a31.674 31.674 0 0 1 10.407-6.933l-1.822-3.484a35.632 35.632 0 0 0-9.91 6.285l-19.07-19.071a62.443 62.443 0 0 1 16.455-11.153l-1.825-3.486a66.742 66.742 0 0 0-17.42 11.852l-21.032-21.033a96.267 96.267 0 0 1 24.653-17.194l-1.815-3.472a100.64 100.64 0 0 0-25.611 17.89l-19.06-19.058a127.08 127.08 0 0 1 32.168-22.725l-1.805-3.456a131.7 131.7 0 0 0-33.13 23.417l-21.054-21.055a160.95 160.95 0 0 1 40.368-28.763l-1.81-3.466c-32.088 16.125-58.21 42.403-74.118 74.617l3.453 1.863a160.96 160.96 0 0 1 29.3-41.445l21.056 21.056a131.53 131.53 0 0 0-24.141 34.556l3.44 1.857c5.87-12.263 13.74-23.621 23.463-33.648l19.061 19.059a100.56 100.56 0 0 0-18.75 27.436l3.447 1.86a96.044 96.044 0 0 1 18.079-26.521l21.032 21.033a66.726 66.726 0 0 0-12.863 19.673l3.475 1.88a62.34 62.34 0 0 1 12.173-18.768l19.07 19.07c-5.235 5.852-8.559 13.417-9.02 21.755h-26.962a62.413 62.413 0 0 1 4.739-22.059l-3.476-1.88a66.147 66.147 0 0 0-5.233 23.939h-29.715c.268-13.373 3.267-26.286 8.7-38.124l-3.448-1.86a99.536 99.536 0 0 0-9.218 39.985h-26.913c.283-18.584 4.546-36.512 12.358-52.832l-3.439-1.857c-7.994 16.6-12.591 35.129-12.883 54.689h-29.721c.292-24.271 5.964-47.658 16.387-68.855l-3.453-1.863c-10.835 21.946-16.952 46.619-16.952 72.704 0 15.956 2.279 31.55 6.632 46.448l3.892-.98a161.3 161.3 0 0 1-6.506-43.482h29.716a131.37 131.37 0 0 0 5.622 36.223l3.853-.97c-3.446-11.298-5.32-23.137-5.506-35.253h26.908a100.49 100.49 0 0 0 4.752 28.662l3.86-.974a96.35 96.35 0 0 1-4.64-27.688h29.715a66.558 66.558 0 0 0 3.824 20.412l3.862-.975a62.595 62.595 0 0 1-3.717-19.436h26.959a35.334 35.334 0 0 0 9.014 21.765l-19.061 19.062c-5.88-6.258-10.332-13.519-13.196-21.39l-3.862.974c3.05 8.554 7.858 16.447 14.25 23.222l-21.01 21.012c-10.22-10.64-17.7-23.25-22.13-36.95l-3.86.974c4.6 14.386 12.444 27.62 23.191 38.79l-19.029 19.03c-14.23-14.674-24.508-32.179-30.315-51.232l-3.853.971c5.984 19.737 16.617 37.877 31.36 53.067l-21.011 21.012c-18.596-19.054-31.878-41.923-39.18-66.819l-3.893.98c7.66 26.21 21.79 50.237 41.638 70.08 13.441 13.445 28.804 24.266 45.46 32.24l1.972-3.498c-15.763-7.512-30.344-17.635-43.19-30.177l21.01-21.01a131.1 131.1 0 0 0 36.837 25.209l1.96-3.478c-13.157-5.97-25.325-14.202-35.986-24.537l19.027-19.028c8.918 8.58 19.157 15.305 30.245 20.016l1.96-3.472c-10.77-4.52-20.73-11.02-29.39-19.34l21.012-21.012c6.752 6.37 14.612 11.167 23.133 14.22l1.986-3.517a62.285 62.285 0 0 1-22.31-13.51l19.061-19.062c6.054 5.43 13.646 8.573 21.765 9.018v26.959a62.55 62.55 0 0 1-18.516-3.404l-1.986 3.517a66.404 66.404 0 0 0 20.502 3.856v29.713c-12.296-.246-24.21-2.792-35.249-7.423l-1.959 3.472c11.641 4.948 24.215 7.672 37.208 7.923v26.909c-17.706-.273-34.806-4.165-50.494-11.283l-1.96 3.477c16.285 7.442 34.056 11.501 52.455 11.776v29.712c-23.602-.283-46.38-5.634-67.111-15.51l-1.973 3.498c21.91 10.487 46.06 16.031 71.07 16.031 26.233 0 51.51-6.13 74.258-17.64l-1.878-3.643c-21.215 10.745-45.098 16.955-70.398 17.266v-29.713c20.059-.297 39.368-5.105 56.814-13.88l-1.855-3.596a126.23 126.23 0 0 1-54.959 13.503v-26.909c15.05-.29 29.535-3.9 42.657-10.446l-1.844-3.578a95.58 95.58 0 0 1-40.813 10.053v-29.713c9.585-.28 18.812-2.587 27.21-6.698l-1.83-3.557a62.204 62.204 0 0 1-25.38 6.284V402.58a35.326 35.326 0 0 0 21.768-9.018l19.041 19.043a62.85 62.85 0 0 1-15.43 10.647l1.831 3.557a66.595 66.595 0 0 0 16.426-11.377l20.978 20.979a96.468 96.468 0 0 1-23.802 16.756l1.844 3.578a100.27 100.27 0 0 0 24.8-17.492l18.985 18.984a127.52 127.52 0 0 1-31.482 22.361l1.855 3.596a131.09 131.09 0 0 0 32.476-23.106l20.959 20.959c-11.693 11.413-25.137 21.024-39.851 28.473l1.878 3.643a165.13 165.13 0 0 0 42.27-30.63c13.222-13.219 23.891-28.305 31.825-44.645z" style=""/>
      <path d="m608.42 328.87.047 1.193 1.003-.048-.055-1.185zm-1.459-1.626h1.328v1.012h-1.328zm-1.228-.179.14-1.001-1.167-.167-.14.993zm-2.152-.514-1.16-.168.141-1.004 1.16.168zm-9.58-1.337h1.328v1.013h-1.328zm-1.736 2.185.141-1.002-1.16-.167-.14 1.002zm-1.04 1.361-1.332-.338.242-.982 1.332.339zm-2.38 1.247-.165-1.013.985-.165.165 1.012zm-130.49 105.71h1.003l-.173-2.528-1.331-.51v-.842h-.83v1.686h1.331zm10.31 7.418 1.16.851 1.167 2.529-.666 1.176-1.825-1.685-1.332-1.853-.666-1.518-1.168-3.038 2.492 1.177zm39.564 50.617-1.168.676-.665-1.01-1.661-.509-.165-1.518-1.332-2.028 1.998.342 2.155 1.853zm86.605-154.03h-1.828l-.333-3.71.998-.678v-1.855h-5.82l-.165-1.854.833-.507-1.331-.506-.998 1.348-.33 1.519-1.663.339v.842h-1.163v2.192l-4.656 3.88-9.308-.335c-.668 1.517-2.33-.17-2.33-.17-.33-1.012-2.657 0-2.657 0 0 1.857-3.158-.843-3.158-.843l-5.82-4.219c-3.324-3.036-8.31.845-8.476 1.687.166 2.363-3.823.507-3.823.507s-3.324-1.011-3.824.339c-.497 1.348-2.662 1.013-2.662 1.013l-.333.674-1.663.337-.33 1.011-1.996.34 4.986-.17c1.33-.169-.5 2.869-1.33 2.7l-2.324.169-.834.842h-2.16l-.997 1.352-3.157-.17s-1.83 1.519-1.662 2.024c.166.507-.333 2.026-.833 2.026-.499 0-1.496 1.517-1.163 2.023.334.507-.997 2.194-.997 2.194l-.331 1.689-.997.335v4.556l-1.996 1.35v2.024l-2.994 3.206.334 2.698-2.492 2.7.33 2.7-1.496.506-.33 1.18-.665 3.542 1.662.17c.829-.338.664 2.194 0 2.53-.667.338-2.496 1.011-1.496 1.685.998.678-2.66.508-2.66-.505 0-1.01-1.996-1.855-2.493-1.517-.5.336-1.332-1.518-1.332-1.518-1.828-1.855-7.48.168-7.48.168l-.834 2.699c-1.826.339-2.99 3.375-2.99 3.375-1.496.507-2.659 2.36-2.16 2.867.498.507-.833.675-.833.675v3.713l-.83 1.18.164 4.048c1 0 .834 1.858.834 1.858-1.663.168-1.333 2.362-1.333 2.362l-3.489 1.18-.664 1.012-4.322-.17-1.163 1.182-1.167-1.182h-8.311l-.33-.843-1.663-.34-.168-1.853-2.492.167-.498 1.013-2.661.167c.166 1.688-2.66 4.22-2.99 3.547-.337-.676-2.164-2.534-1.331-2.868.832-.34 2.994-.679 2.994-.679v-1.18l-6.153-.167-.663 1.013-2.496.167v2.7l-1.162.338c-.833.504.164 2.362.164 2.362 1.164 1.18-.164 3.034-.164 3.034-1 1.013.829 2.871.829 2.871 1.331.335-.83 1.348-.83 1.348.33 1.686 1.33 2.193 1.33 2.193-1 1.686.667 2.528.667 2.528l.164 2.872 1.164.675v1.852l.664 1.182h2.66l-.166-4.217c-2.328-2.7 1.993-3.375 2.162-2.365.168 1.013 1.996 1.52 1.996 1.52.333 2.532 3.16 4.048 3.988 1.52.832-2.534 1.497-1.013 1.996.166.499 1.183 3.653 4.051 3.653 4.051h2.496l.334 2.363c2.825-.17 3.654.172 4.818 4.048 1.166 3.878 4.323 4.891 4.323 4.891l2.328-.168c0-2.022 2.328.34 2.328 1.354 0 1.008 4.487 4.889 4.487 4.889l4.487 1.01 4.16 3.379 3.156-.338h1.332c.829-2.871 4.82.166 5.15 1.18.336 1.012 2.995 2.7 3.324 1.854.335-.842 2.163-.335 2.496 2.193.332 2.534 1.494 2.027 1.494 2.027l9.477-.169 3.324-2.871 8.48-.166c4.32-.169 1.66-6.075.832-6.075-1.497-1.18.497-6.072.497-6.072l-12.135-11.303c-2.826 0-.333-4.051-.333-4.051 2.16-1.351-.5-3.54-.5-3.54.334-2.028-1.164-4.39-1.164-4.39-2.99-2.024-2.16-5.906-2.16-5.906v-2.7c-2.492-2.36.998-2.7.998-2.7 1.162-2.02-.833-3.54-.833-3.54l-.165-2.194-2.66-.339-.33-7.93-5.985-8.601c-1.166-.34-.334-2.363-.334-2.363 1.496-.844-.335-2.866-.335-2.866l-.165-3.713 3.49-.34.832-1.347h1.662l-.165-4.387c.83-2.193 2.824-1.013 2.824-1.013l2.327.17 1.332-2.532.33-2.025-1.827-.167c-1.995-1.182-.998-5.567-.998-5.567 3.159-4.726 6.814-2.026 6.814-2.026l2.33-.167c3.489 2.36.33 6.747.33 6.747-.665 1.013-.33 4.218-.33 4.218l.83 5.397-2.162 1.858c-1.827 1.013-1.827 3.374.168 3.88 1.329.167.83 3.374-1.166 1.18-2.99 0 1.666 2.7.335 2.022 2.993 1.52 2.325-1.348 2.325-1.348l3.993-3.206c1.497-1.18 4.157 2.532 4.157 3.039 0 .505 6.648.166 6.648.166 1.828 1.181 2.492 4.22 2.492 4.22 1.831-2.365 5.653-.172 2.828 1.18 2.657 1.687 2.657 3.204 2.657 3.204 2.164-.674 2.164 1.013 2.164 1.52 0 .506.664-2.53.664-2.53-2.493-1.857 3.324-2.532 1.664.843l-1 1.52 1.664 1.348.164 3.882c3.659-.34 2.661-4.895 2.661-4.895l1.662-.336c0-1.52 1.162-.676 1.162-.676-1.162-5.737 2.662-6.747 2.662-6.747 2.16-.506 2.326-5.064 2.326-5.064-1.494-.674-.666-3.035.998-1.009 1.66 2.021-.998-4.052-.998-4.052l-1.33-1.18-1.827-.168-.168-1.856h-2.99l-.5 2.363-1.162.337-.335-.676-.497 1.856h-2.992l-.165-2.024 1.828-.506.665-1.012.497-2.7h2.163l2.825-.843c.164-2.868 1.662-2.192 1.662-2.192l.997.842 1.496 1.181.167 1.01-.999.506-.164 1.352.499 1.855h1.328c.499-2.7 3.992-2.7 4.988-1.012l.999-2.362c-2.327-1.18-.044-3.038.62-2.193.665.844 2.205-2.193 2.205-2.193s1.163 1.518 0-.507c-1.164-2.025.83-3.036.83-3.036-.331-2.024 2.162-1.687 2.162-1.687l.167-2.698-2.33-.171c-.495 2.362-2.49.339-1.494-.167 1-.507 1.993-1.52 1.993-1.52V352.2l.999-.337.165-1.687h2.495l2.16-1.012.5-.844 2.326-.168 3.324-3.038-.33-1.348c-1.995 0 0-1.52 0-1.52l.328-2.524z" style=""/>
      <path d="m527.84 373.12-2.993-.337.168 1.18h.83c1.328 2.363.166 8.098.166 8.098s-1.993.167-2.327-.843c-.33-1.012-1.164 2.194-.5 2.7.665.504 2.994 0 3.16 1.857.164 1.854 1.496-1.182 1.496-1.182z" style=""/>
      <path d="m528.5 392.01.337-1.519-1.167-.5.164-2.53 1.003-.174.165-1.185-2.5 1.694-1.66-1.01v4.047l2.663 3.538zm.666 4.389-1.16.167-.172 1.352 1.332.167zm-1.496 8.603-1.41.167v1.185l1.41-.167zm1.96-4.006c.39 0 .703-.319.703-.713a.708.708 0 0 0-.703-.717.71.71 0 0 0-.705.717c0 .394.316.713.705.713z" style=""/>
      <circle cx="530.79" cy="403.83" rx=".71" ry=".71" r=".71" style=""/>
      <circle cx="530.83" cy="384.56" rx=".71" ry=".71" r=".71" style=""/>
      <path d="M588.51 364.01v-3.204h-.995l-.165-1.185-1.833-.167-.33.843h-.83l-.172 1.352h1.003l.164 1.01-.665.675-.33.843-1.331.342-2.993 2.87-.165 1.344-.83 1.185-.995 2.528-3.494.167-.666 3.038.493 2.528 2.993 1.185.337-1.686.995-.509.172-1.685.658-1.185 1.003-1.177.33-1.352 1.66-1.01 1.998-.341.83-1.01.337-2.02.118-1.518.713-1.018zm3.488 7.09v-2.362l-.335-2.194-2.49-1.18-1.828 1.687-.334 2.363v1.517l-1.662.338-.335 4.555-1.328.507.167 1.687-3.656 1.012-.333 2.193-1.328.843-.669 2.025-.83 4.893s1.498 2.868 2.328 1.518c.832-1.349 2.16-1.518 2.16-1.518l.5-1.182 4.488.169c.333-1.858 2.494-1.18 2.494-.337s1.663.167 1.663.167l1.162-1.855h1.827l.167-2.023.832-.507v-3.038c2.661-.843 2.326-3.373 2.326-3.373l.669-.843-.334-1.18c-1.332-.507-.668-1.69.164-1.352.834.337-1.163-1.519-1.163-1.519-.997.846-1.826-1.011-1.826-1.011zm2.66 20.41c-.165 2.024-2.66 2.7-2.66 2.7l-1.828-.506-.997-.844-.167-2.363 1.495-.167.333 1.013zm8.98-10.79c.36 1.471.33-2.365.995-2.194.664.168.168-2.36.168-2.36l-2.993 2.19c1.496.17 1.66 1.69 1.83 2.364zm8.81-8.78c.664 1.52.5 3.713 2.99 5.4.842.569-.499 1.688-1.332 1.18-.83-.505-3.154-4.219-3.154-4.219v-2.192c.498-1.349 1.208-.823 1.496-.169zm2.158 50.781-.995-.342-1.16.85.494.502.494.843zm-6.318-2.191v2.03m25.371-5.317-.532-.851-1.324.835.525.859zm46.779 36.017 1.498.673.164 2.868c1.997 2.024 8.48.338 8.48-.169s-.335-6.241-.335-6.241l-.833-.845-.164-4.22c.664-2.193-3.16-5.4-3.491-4.72-.333.672-2.494.164-2.494.841 0 .673-1.328 4.048-.664 5.23s-.5 1.182-.665 2.362-1.829 3.208-1.496 4.221zm-3.66-6.75c-.315 1.278-1.493 2.024-2.158 1.517-.669-.507.827.842 1.162 1.52.332.673 1.328.673 1.663 0 .33-.679.165-2.193.5-2.868.33-.676-1-.844-1.167-.17zm-7.73-30.95h1.162v3.207h-1.162zm17.21-32.48c-.725-.983 3.324-2.7 3.989-.674.664 2.022 0 1.687-.665 1.518-.667-.17-2.326.505-3.324-.844zm3.402-21.606 1.825.334.18-.994-1.833-.334zm-4.482.747-1.237.7-1.082-.684-.525.85 1.332.844.251.159.25-.144 1.004-.564.125.31.924-.374-.337-.842-.211-.533zm6.23-39.881h-2.495s.832.337-1.493-1.857c-2.331-2.192-3.824.507-3.824.507l-2.66.337v2.7l-1.332.505.168 1.688 1.828-.168s0 2.024.5 1.181c.5-.844 4.655.167 4.321 2.193-.135.832 4.158 3.035 3.66 5.734 2.16.339 1.661 2.533 1.661 2.533l2.825.337.833-1.687.83.169v-1.013l-1.832-.506-.33-5.4-1.163-.843.331-1.35-1.328-.507.665-2.192zm7.31 17.21-1.329-.167-2.996.506-1.659 3.205s.83.506 1.493 1.687c.665 1.182.999 8.097-.996 9.28-1.993 1.181.168.504.168.504l-.335 3.712c.5 1.688 1.329.846 1.828 0 .503-.84 1.002-1.01 1.666-1.854.665-.845 1.661-2.362 1.828-3.544.165-1.18.997-3.035.497-3.542-.497-.506.5-2.867.5-2.867s.665-1.352 0-2.7c-.664-1.351.166-2.87.665-3.545zm2.01 6.883.17-1.35.992.128-.17 1.35zm-.06 4.662-.89-.453.499-1.011.89.452zm-1.45-13.395-.667-1.52s0-1.347.332-2.025c.335-.674-.664-1.347-1.161-1.517-.5-.17-.332-1.518-.5-2.194-.165-.674-1.327-1.18-1.327-1.18s-.336-2.53-.336-3.036-1.495-1.18-.996-1.688c.5-.506.833-1.18 1.332-1.519.499-.337-.5-2.7.33-2.193.832.507.832 1.35 1.165 2.025.332.674-.167 3.037.665 3.544.83.504-.168 2.19 1.163 2.19 1.329 0 .5 3.208.5 3.208s-.335 2.36.495 2.53c.833.169.335 4.218.335 4.218zm-10.8-27.34c.497.674 1.495 1.18 1.495 1.857 0 .675-.332 1.18.667 1.349.995.168 1.662-.17 1.993.674.333.843.333 2.193.168 2.868-.168.676.165 1.687.995 1.687.833 0 .998.17.998.676 0 .505.998-1.857.998-1.857-.833-.674-1.498-2.194-1.498-2.194s-.83-2.361-.83-2.698c0-.338-1.162-.676-1.66-.844-.5-.17-1.333-1.687-1.333-1.687l-1.993.17zm1.66-1.51c-.5-.677-.999-1.182-1.663-1.518-.663-.339-1.162-.676-1.83-.676-.664 0-1.327-.676-.998-1.518.335-.844-.5-1.181-.5-1.857 0-.674.5-.674 1.332-.168.833.507.665.674 1.333 1.52.663.842.994 1.686 1.658 1.517.668-.17 1.166 1.518 1.83 1.012.665-.506.5 1.18.5 1.18zm-19.45 19.06c.917.932-4.986.673-4.986 0 0-.674.5-3.035 1.993-2.532 1.497.508 1.661-3.035 1.661-3.035s-1.328.167-.164-.507c1.163-.674 0-1.687-.5-2.193-.498-.507-.997-1.35-.997-1.35h2.33c.998-.676 1.327-3.88 1.327-3.88 1.994.674 2.992-.676 2.992-.676s.337 1.012 1 1.858c.665.842-1.665 1.18-.833 1.687.834.506 1.164 2.023.834 2.528-.335.507-2.166.17-2.166-.505s-.664.844 0 1.688c.665.843-.83 2.023-1.163 2.023s-2.49.339-.664 1.35c1.827 1.012 3.826.508 3.826.508s1.495-.17 1.993.675c.5.843-.165 1.012-.996 1.012-.83 0-4.822-.339-4.822-.339s-1.163 1.182-.665 1.688zm-10.64 1.52c.834-.169 2.824-.339 3.159.168.334.505-1.164 1.18-1.164 1.18l-1.995.338c-.664-.844-.83-1.517 0-1.686zm21.45-14.17c1.329-.674 4.154-.674 3.989-1.687-.165-1.012 1.661-1.35 1.661-1.35l.5 2.024 1.496 1.012.167 1.856s.497-.337-1.33.17c-1.83.506-.664 1.348-.664 1.348l-3.991.169-.5-1.688zm-6.49-9.11c1.01 0-.33 3.88 2.326 3.543 2.66-.339.17 1.18 2.162 1.349 1.996.17 1.497-1.518 2.161-2.698.667-1.181.335-1.857-.83-2.194-1.166-.337-1.166-.337-1.496-1.689-.331-1.348-1.662-1.687-1.662-1.687l-.5-2.023-2.161 1.349-2.16 2.868c0 2.195 1.162 1.182 2.16 1.182zm4.4 14.256.5-1.012.894.454-.5 1.012zm-1.74-1.606h.998v1.181h-.998zm.839-22.48.167 1.518-.991.112-.168-1.516zm-2.829 15.73h.998v.845h-.998zm-2.618-.017-.098-1.009 1.663-.166.098 1.008zm-13.714 16.225-.914-.399.5-1.18.913.398zm-5.218-3.071-.097-1.005 1.665-.167.097 1.005zm-32.497-.145.047 1.01 3.65-.167-.046-1.01zm-2.448 1.298-.331-1.517.975-.219.331 1.516zm-.699 1.045-.315-.96.498-.169.315.961zm8.314-2.845-.165 1.18 1.826.17s.83.676.83 1.18c0 .507 1.166 1.012 1.83 1.012.665 0 2.493-1.35 2.493-1.35s.832-2.362.168-2.194c-.667.168-1.996 1.181-2.16.168-.17-1.012-2.161-.506-2.161-.506zm8.31-1.86c0 .505-.33 1.18.664 1.35 1.002.167 2.83-.674 2.995.337.168 1.012.168 1.689 1.496 2.196 1.328.504 2.162.674 3.159.674.995 0 3.16-.34 3.16-.34s2.351.368 2.824.845c1.828 1.855 2.99 2.361 3.49 1.518.498-.844-.166-2.698-.331-3.373-.168-.677-2.496-3.882-3.327-3.207-.83.676-.996 0-2.493.505-1.496.506-4.655.17-4.82-.505-.165-.676-2.492-1.01-2.492-1.687 0-.676-1.661-1.518-1.497-.507.165 1.012-1.162 1.518-1.5 1.183-.33-.338-1.328 1.011-1.328 1.011zm38.24-21.6 1.166-3.71c-1.661-.338-1.331-2.192-1.331-2.192-.166-1.52-2.492-3.206-3.324-2.7-.83.505-.5-3.544-.5-3.544s1.498-1.01 2.162-.505c.665.505-5.65-8.435-6.982-7.592-1.329.844-4.319-.843-4.154-2.363.166-1.517-5.984-6.58-5.984-6.58s-1.996-1.347-2.327-.335c-.333 1.011-.997 1.687 0 2.191.996.508.83-.842 1.992.337 1.164 1.181 3.327 2.7 2.495 3.713-.832 1.014-1.83 1.35-1.83 1.35l1.166 1.35h1.828l.333 2.867s1.993 1.013 2.493 2.194c.499 1.18.499 1.856 0 2.532-.5.674-1.493 1.855-1.329 3.034.165 1.181 1.496 1.688 1.496 1.688l1.328.17 1 .506v2.195c1.327-.339 3.488 1.515 3.323 2.698-.165 1.18.33.505 1.993 1.687 1.664 1.18 1.166 1.35 2.329 2.194 1.164.84 2.162.335 2.657-1.185z" style=""/>
      <path d="M645.86 278.14c-.165-.676-.5-3.039.499-2.87.997.17.333 0 1.496.507 1.164.507 1.33-.843 1.33-.843h1.83l2.325 1.854-.333 1.52-1.662.167c-.83-1.348-2.493-.842-2.16.34.332 1.18-.83 3.373-1.494 3.54-.665.17-2.83.17-2.66-.841.165-1.013.829-3.374.829-3.374zm-1.33-4.56v-1.349s-.17-1.349-.998-1.349c-.829 0-2.326-1.011-1.996-1.687.335-.676-2.825-1.35-2.825-1.35s-2.824-2.7-1.827-2.36c.998.336.5-1.183.5-1.183s-1.997.337-2.496.17c-.5-.17-.334-1.688-.334-1.688s-1.992-.506-1.992 0c0 .507.665.507.994 1.517.335 1.012.169 2.7 1.667 3.037 1.496.338 1.826.674 1.995 1.35.166.676 1.993.843 1.993.843l1.331.675zm-18.444-18.556-1.332-.334v1.52l1.825.166zm-.006-5.734c-1.738-1.32 2.325 1.013 2.325 1.013 1.329 0 2.16 1.012 2.16 1.52 0 .505 1.83.337 1.83.337l.169-1.183-1.333-1.687-1.162-.841s-1.828-.17-1.828-.676c0-.505-1.497 2.024-2.161 1.517zm30.58 1.01c-.486 1.476-.664 3.544-1.496 3.544-.83 0-.5 2.195-.5 2.195s2.165 0 2.83.167c.662.167.662 1.854.662 1.854 2.496-.167 3.494 3.207 3.16 4.05s.997.843.997.843 0 2.7-.334 3.374c-.33.676 2.162 1.182 2.826 2.194.665 1.013-.334 4.386-.83 4.555-.5.17 1.327.674 1.162 1.518-.168.845.5 0 .665 1.35s.5 4.217.5 4.217l2.325.17c.334-2.192 4.62-2.277 5.32-2.025 2.826 1.012 4.99 5.399 4.99 6.41 0 1.012-1.831 1.183-1.831 1.183l.334 4.89c2.825.845 5.152 4.895 4.821 5.57-.333.674 1.992.507 1.992.507.335-3.04 3.16-2.026 3.324-1.013.17 1.013.666 3.206.666 3.206l.832 1.516 1.163 1.181 1.828-.168.5 1.013 2.16.339s1.831 2.022 1.996 2.53c.168.504 2.66.337 3.324.504.664.17 1.663.676 1.828 1.52.168.844 1.166 2.193 1.166 2.193s1.993.507 2.16 1.18c.166.674.999 2.193.999 2.193l1.658 1.35.168 1.52 1.828.169.5 2.022 2.99-.167 1.665-1.181c2.16-1.18 3.657-2.7 3.824-3.375.164-.675.497-3.204 2.16-2.698 1.661.506.5-3.713.5-3.713s-2.327-1.687-2.163-2.532c.167-.842-2.325-2.528-2.16-3.204s-2.161-2.024-1.996-2.699c.165-.676-1.163-2.532-1.163-2.532l-2.495-2.36-.333-1.52-1.993-.167-3.989-4.893.165-1.351-1.163-.168v-1.855l-1.162-.676-1.83-.169-3.656-4.047-.333-1.857h-1.828l.331-3.544c1.165-1.519.499-4.386.499-4.386s-2.33 1.18-3.49.674c-1.166-.504.497-1.687.497-1.687v-1.349l-.996-1.012s-2.828.339-2.993-.167c-.166-.507-.664-2.7-.664-2.7l-.167-2.87-1.162-.503-.169-1.014-1.826.168v-2.024l-.999-.337-.996-.506-.166-2.026-3.658-.167-1.163-1.687-1.329-2.025-4.156-.337-.998-1.01-1.662-.34-1.163-.506-.499.845-3.16.167-.164 1.013c-1.662.843-8.31.167-8.48.673zm17.46-4.38c-.263-1.332 3.327-2.53 4.157-1.52.833 1.013 3.159 1.184 3.492 6.245.117 1.812-2.993-1.855-2.993-1.855l-2.495-.844c-1.329-.339-1.996-1.18-2.16-2.026zm-48.757 2.061-.908-.41.667-1.52.908.411zm-8.593-16.571-2.165-2.194v-1.855l-.665-.677-.664-2.36-2.16-.675-2.162.842-2.327 1.519-2.492.34-1.332 1.516 5.32.504.996 1.69 3.827.337 2.49 2.53c2.166.676 2.663-.337 1.334-1.517zm-.33-8.27c-.366-1.483-2.495 1.855-.33 2.528 2.16.679 4.318 0 4.318 0l.5-1.011 8.31.17c.668-.676.998-1.688.998-1.688s1.996-.676 2.825-.339c.832.34.169-2.36-.665-2.023-.83.337-2.491.168-2.491.168h-2.994c-.165-1.18-2.825-.675-2.99 0-.17.675-1.163.843-1.163.843l-3.824.339c-.333 1.013-2.326 1.687-2.494 1.013zm-16.46 28.47c2.556.811 3.49.21 3.659-.464.165-.675.33-.845 1.328-1.012.997-.17-.167-2.193-1.163-2.025-.999.169-1.996-.337-2.16-1.18-.17-.843-1.832-3.037-1.997-1.35-.166 1.688-1.163 1.688-.998 2.869.168 1.178.667 2.949 1.331 3.162zm-19.11 1.9c-.12-.597 3.324-.674 3.824-.17.5.507.165 1.35 1.662 1.35 1.494 0 .83 1.013.664 1.52-.165.505-1.826.337-1.996-.168-.165-.507-2.66-.678-2.66-.678s-1.329-1.013-1.494-1.854zm55.15-33.74.344-.284 1.669-1.35-.627-.79-1.316 1.065-.846-.86-.705.715 1.16 1.181zm-7.514-4.47 1.834-1.182-.533-.853-1.567 1.01-1.066-.674-.524.858 1.331.842.259.17zm-5.17 36.282.838-.541-1.16-1.853-.133-.206-.243-.024-1.66-.175-.102 1.01 1.425.143zM567.9 296.02l.17 1.857h2.49c.999 0-.83-1.181-.83-1.181s-1.994.17-1.83-.676zm3.17.055.637-.78.997.84-.637.78zm-30.288-31.564.707-.716.997 1.013-.707.716zm47.588 218.8.831-.842.486-.493-.619-.318-1.66-.843-.447.906 1.041.525-.344.35zm-12.613-12.093.58-.82-.642-.468.501-.422-.635-.779-1.002.843-.494.421.525.382zm124.05-33.715c-.22-.86-1.19-1.212-1.299-1.248l-.317.962v-.006c.079.03.194.09.31.166l.203.875a3.207 3.207 0 0 1-.22.292l.732.685c.533-.594.73-1.17.591-1.726zm-.089-3.306.125-1.518 1.622.254-.125 1.384zm40.149-13.034c.71-.45 1.62-1.267 1.496.634-.126 1.897-.873 1.266-1.496 1.897-.623.634-.997-1.897 0-2.531zm8.46-7.16c-.014-.033-.023-.15-.03-.235-.022-.279-.058-.658-.255-1.056l-.891.452c.11.226.132.465.151.694.025.295.058.633.341.847.179.136.404.175.673.123l-.19-.98c.076.013.177.083.201.155zm-2.22.83a21.99 21.99 0 0 0 .64 2.078l.935-.356c-.007-.009-.37-.998-.609-1.97zm-3.63 3.98-.993-.1c-.078.797.112 1.78.897 1.94l.196-.992c.007 0 .016.006.018.006-.08-.072-.154-.48-.118-.854zm-4.37-20.13a.91.91 0 0 0-.545-.71c-.738-.324-1.982.213-2.592.627l.552.842c.631-.427 1.46-.633 1.645-.539-.017-.006-.04-.036-.046-.055zm-46.04-53.9c-.664.676-2.16 1.013-2.16 1.013l-.5 1.856-.83.674s.165.506 0 1.687c-.166 1.18-1.663 1.856-1.663 1.856l-.664.844s-4.007.217-4.488 0c-1.497-.675-.498-2.7.5-2.531.995.17-.169-2.869-.169-2.869l1.332-.168s.164-3.038.664-3.038-.165-1.011-.833-1.518c-.664-.504-1.494-2.191-2.162-2.023-.664.167-3.324 0-3.324 0l-.499 1.013-1.83.336s.158 1.305-.161 1.688c-1.002 1.18-4.822 3.71-3.162-.506l.497-1.011v-1.52l-2.989-.167s-1.496-.507-1.496-1.182-.167-1.517-.167-1.517l-3.492-3.88-4.154-.506-.334-.845-2.49-.337c-2.995-1.517-5.656-.169-5.156 2.362.499 2.533 1.328 3.544-.331 3.544-1.665 0-1.996-1.35-1.996-1.35s-1.328-.507-1.328.168c0 .676-.5 2.025 0 2.7.496.673-.668 1.686-1.167 1.18-.495-.507-1.826-2.022-1.493-2.529.331-.506-2.33-3.713.331-4.218 2.661-.507-.166-2.026.833-2.361l1.328-.676h1.329l.832-.676-2.16-.335-1.329-.17-2.495-.168c-2.492 1.687-2.99 3.712-2.99 3.712-1.332 2.53-4.488-1.013-3.324-2.362 1.162-1.35-3.658-.17-4.49.505-.833.675-3.326.338-3.326.338-.497 1.52-2.824-.167-2.16-1.18.665-1.013.665-1.688.665-1.688l-.83-.169-.997 1.856c-2.327 0-2.994 1.348-2.496 2.193.499.842-.664-.169-.998 1.012-.33 1.18.169 1.18 1.167 1.687s-.5.507.165 1.349c.664.845 2.66 0 1.497 1.182-1.163 1.18-3.493.676-3.493.676-.165 1.515-3.324 1.18-3.654.674-.335-.506-2.826-3.544-2.826-3.544l-3.163-.168c-.33-2.36 1.498-1.18 2.163-3.037.668-1.856 1-4.891 1-4.891s-2.663-.169-2.828.674c-.165.844-1.828 1.35-1.828 1.35s-1.331.505-.832 1.18c.5.677-.998 1.011-.998 1.011s.26 1.09-.165 1.52c-1.328 1.35-4.656.167-5.152-.338l-1.996-.844-1.996-1.349-2.326 1.01-.664.677h-2.495l-.165 2.022 4.488.505.333 4.176-1.83-.63h-1.164l-.497-1.013-.999-.17v3.711l.999.845.832.841 1.663.17.333 2.023 4.153.171.5.842 2.495.17 4.82 4.89-.333 1.52-.833.506c.335 1.181-2.158.507-2.158.507v1.01l1.16.17 1.167.673 1.66-2.867c1.829-1.18 2.658.507 2.827 1.519.165 1.012-.833.843-.833.843v2.364l.998.335c1.665 2.025-.664 3.207-.664 3.207l-.5 1.686c-.5 1.519-2.327 1.18-2.327 1.18l-.663 1.013-1.998.507 3.947.505c.376-1.35 1.37-1.687 1.87-1.012.5.676.5 1.857.5 1.857l1 .168-.169 1.855.999.339v5.398l1.163 1.35c1.995-.842 1.995.507.996 1.18-.996.673-.333 3.712-.333 3.712l-.83.842v1.351l-.997.675v1.855c-1.663-.843-3.659-.508-4.159 0-1.493-1.013-4.652-.675-4.652.17.996 1.35-1.162 1.687-1.162 1.687l-1.166 1.35c.833 1.687-.829 1.854-.829 1.854v3.207l-1.996 1.856.168 4.386c0 1.181 2.492 1.349 2.99.675.499-.675 2.495 1.35 2.495 1.35h1.493l.335-3.038-.999-.506v-4.893l1.663-1.857c1.996-.674 1.331 4.39 1.331 4.895.166 1.855.994 1.687 1.828 1.348 1.662-.674.33 1.859-.998 1.688-1.329-.167-.5 1.687-.5 1.687l.834.339-1.498 1.18-1.327 1.52-1.666-.508-1.992-.166-.665-1.184-1.166-.168-.166 2.36-.83 1.013-1.995 2.027c2.661 0-.334 1.852-.998 1.852 1.496.507-.165 2.027-3.988.847v1.179l-1.332.17 1.167 1.347 1.327.17-.499 2.867c0 2.193-5.484.673-5.984.169l-.166 3.037-.998.166.166 2.027-.166 2.869 1.828-.338v1.182l4.49.169 6.484-6.92 3.822-.841c.331-1.69 1.992.338 1.992.338 1.664-.173 1.997 1.01 1.997 1.01l2.162.338c1.826.508.722.685.83 1.352.164 1.01.996.673.996.673l.335-2.193.998.168-.998-1.181-1.831-.845-1.993-.842c-1.332-1.855.332-1.518 1.663-1.348h2.16s2.496 3.372 2.496 4.216c0 .846 1.163 1.014 1.163 1.014l1.493-.17.5 1.18h1.496l.5 1.01h2.992l.166-1.517-2.829-.503-.164-1.69-1.993-.506c-.668-2.866.496-3.71 1.328-2.359l.997.165-.333-2.53 1.163-.338-.332-3.544-.996-.335v-1.182l4.153.172c-.33-2.197.168-3.208.168-3.208h1.163l.166.846 5.086.48 3.596-4.125c-.181-.315.361-.508-.034-.912-.5-.506-1.166 0-2-.506-.83-.503 0-3.374-.165-4.048-.166-.674 2.829-1.69 2.33-.169-.5 1.52 0 2.194 0 2.194 2.16-2.025 3.989.167 3.824.674-.17.506 1.161 1.013 1.991.506.833-.506 1.83 1.52 1.497 2.53-.334 1.011-3.323.844-3.488-.169-.17-1.013-.67-.674-.998-.167-.335.506-1.828.842-2.66.335-.17-.102-.25-.187-.297-.269l-3.596 4.125.233.024c1.993 1.183.998 2.7.335 3.038-.668.337-1.831.337-1.831.337l-.33.676-4.323.336-.334 1.689c-2.161-.341-2.99 2.023-2.492 3.202.5 1.18 0 2.193 0 2.193l1.829.845 2.325-.672c.335-1.69 1.828-2.028 3.16-3.038 1.328-1.013 3.491 1.852 2.824 3.204-.664 1.348-.664 1.855-.664 1.855l.164 1.52-1.66.673-1.33.676-.169.844H627.4l-.83.842-2.162.173-.668 1.01-1.493.17s-2.495 1.181-1.496 2.53c.997 1.351-4.155 1.182-5.322-.675-.333 1.685-2.16.168-2.16.168l-1.828-.507-.165-2.528c-.333-1.689-3.492-1.689-3.324-.506.165 1.181-5.987.506-5.987.506l-1.994.969-1.83 1.056-.165.842-2.994.337-1.328.676-.498-1.013h-1.33l-1.33 1.858c-3.49.17-6.815 2.193-6.483 3.037.333.842-1.328 1.69-1.328 1.69l-1.498.5-.995 1.52-1.995.676-.335 3.544-.995.673v1.52l-1.166.335v.845l-1.661.169.995 2.531 1.334.676c2.327.335 1.328 3.206 1.328 3.206l1.328.166.668 1.855 1.328 2.7c.5 2.027 1.996 1.52 2.66 1.351.665-.166 1.328 2.024 1.328 2.024l6.649.17s-.33.675.833 1.012c1.162.335 8.81.676 9.144.17-.335-1.52 4.153-1.858 5.984-.508 1.826 1.348 4.32.508 4.32.508l2.494 3.033 1.665 3.713 2.825.842 1.993.508.667 2.868 1.494.169.5 1.857c1.83 1.349-.5 4.218-.5 4.218v3.71l1.33.676-.167 1.351 2.164 2.19 2.492.172 6.318 6.747 4.985 1.517.83 2.7 1.333-.169.996-.842 3.989-.169 1.996-1.858 2.16-.335 18.452-15.69-1.664-1.014v-3.71c2.992-2.192 3.158-6.075.333-6.412-2.144-.256-1.162-2.531.833-2.868l1.162-.504v-1.52l3.823-3.541v-2.7l-8.309-6.92c-3.659-1.347 0-9.447 2.49-9.278 2.496.167-.164-12.484-.164-12.484l-1.332-.673.335-4.051h-1.828l-2.993 3.882-.83 2.697c-.333 3.547-10.64 2.868-11.14 2.362-.5-.507-3.989-2.024-3.989-2.024s-2.66-2.193-3.158-1.517c-.5.676-2.825-.845-2.825-.338s-2.16-1.179-2.16-1.179l-3.324-1.182 2.495-.508-.5-2.023 4.318 2.193c.5.672 2.66.507 2.66.507l.665.844s1.332-.171 2.166.843c.83 1.013 5.15.169 5.15.169l1.163 1.01 1.828.676 5.155.17.165-3.204.998-1.013-.166-2.027 1.163-1.01v-1.686l.998-.338.165-3.71.83-.169v-8.099l-2.493-2.363c-.164.845-2.824.845-2.824.845s-.665 1.18-1.164 1.18c-.497 0 .666 1.516.332 2.53-.332 1.01-1.663 1.01-1.663 1.01l-2.495.677-.664.845h-2.66l-.33-2.193 2.99-.845 1.661-.842.833-1.69c.165-1.684 2.16-1.517 2.16-1.517s3.824-3.206 3.99-4.722c.169-1.519 1.497-5.737 3.823-5.737h4.323c1.661-.677 1.163-2.869 1.163-2.869l2.162-.335.333 1.18s2.993.337 3.324-.169c.334-.504.998-1.687 1.83-1.18.831.505 3.49-1.182 3.49-1.182.166-1.181 4.322-.675 4.322-.675l.5-1.517s-2.825-3.88-3.324-3.88c-.5 0-3.159-2.365-3.493-1.52-2.656-.674-2.492-4.387-2.492-4.387l-.998-2.36c0-1.352-2.49-4.22-2.993-3.88-2.495-1.856-.664-4.05 0-4.219.665-.167 2.33-2.53 2.33-2.53l.83-2.363 2.825-.84.333-2.195-1.493-.169s1.66-3.037 2.492-3.037c.833 0 6.318 0 6.813-.339.5-.335 1.496-3.035 1.496-3.541 0-.507 1.333-.676 1.829-.846.499-.167 1.662-1.517 1.995-2.192.333-.68-.828-4.898-1.495-4.223z" style=""/>
      <path d="M599.98 405.6c.25-.25.5.76.998.634.495-.127.747.886.25.886-.5 0-.5.634-.5.887s0 .884-.375 1.264c-.374.38-.75.126-1.249-.126-.497-.253-.744-.253-1.37-.253-.622 0-.126 1.013-.126 1.013s-2.618-.127-2.119-.508c.5-.376.998-.506.626-.76-.376-.253 0-.504 0-1.01 0-.508 1.247-.253.87-.634-.371-.38.008-1.848.623-1.013l.376-.887c-.376-.379-.124-.507-.872-.756-.748-.253-.127-1.773-.127-1.773l.127-1.012c.249-1.263 2.741-1.391 2.867-.254.123 1.14 0 1.9 0 1.9l.75.251s-.127.763-.75.763c-.626 0 0 .375-.375.757l.376.63zm-8.23 1.27c.375-.76 1.246-4.05 2.245-3.037.994 1.013 1.62 0 1.62 0s.499.508.249 1.52c-.25 1.01-.5 2.024-1.125 2.15-.621.127-1.121.507-1.866.634-.747.127-1.123-1.267-1.123-1.267z" style=""/>
    </g>
  </g>
</svg>