<?xml version="1.0" encoding="utf-8"?>
<svg xmlns="http://www.w3.org/2000/svg" height="1198.3px" width="2116.7px">
  <path id="world" d="M 927.811 0.028 C 923.414 0.144 919.017 0.289 914.623 0.482 C 906.057 0.859 897.487 1.187 888.93 1.74 C 864.598 3.311 840.342 6.662 815.96 6.853 C 803.603 6.95 791.49 2.592 779.133 2.598 C 754.99 2.61 730.896 4.951 706.833 6.906 C 697.39 7.673 687.424 7.128 678.674 10.761 C 672.614 13.277 666.502 18.203 664.542 24.466 C 663.455 27.939 675.007 30.771 671.848 32.576 C 665.395 36.264 656.974 32.594 649.554 33.032 C 642.988 33.419 636.485 34.915 629.907 34.878 C 621.005 34.828 612.053 33.517 603.203 34.478 C 601.491 34.664 598.242 37.099 599.59 38.171 C 599.715 38.27 623.921 48.155 627.285 47.593 C 635.141 46.282 641.545 39.465 649.476 38.733 C 652.357 38.467 641.903 45.273 644.707 45.986 C 656.488 48.981 669.041 47.678 681.164 46.789 C 688.644 46.24 709.832 44.971 703.081 41.704 C 691.116 35.913 651.297 43.758 663.359 38.171 C 676.572 32.05 692.505 41.152 707.012 39.883 C 711.661 39.476 715.075 35.133 719.354 33.271 C 741.009 23.847 764.508 14.417 788.724 17.586 C 792.853 18.126 780.729 19.917 776.734 21.092 C 766.01 24.245 738.252 21.345 744.566 30.569 C 753.098 43.033 776.82 30.268 789.067 39.108 C 796.15 44.221 793.159 56.398 792.408 65.102 C 791.585 74.641 785.924 83.24 784.443 92.7 C 783.034 101.702 785.336 126.865 793.007 133.225 C 815.421 151.808 815.277 140.178 825.038 129.661 C 829.598 124.748 834.842 120.503 839.427 115.613 C 843.132 111.662 845.164 105.84 849.875 103.168 C 854.551 100.516 860.768 102.527 865.805 100.65 C 874.288 97.489 881.358 91.062 889.957 88.23 C 902.32 84.159 915.903 84.518 928.153 80.118 C 935.697 77.408 942.521 72.614 948.45 67.219 C 954.008 62.162 956.398 54.184 962.069 49.255 C 965.568 46.214 972.145 47.793 975.001 44.142 C 977.415 41.055 972.742 35.394 975.258 32.39 C 982.768 23.426 995.155 19.556 1002.92 10.814 C 1004.36 9.202 999.467 7.951 997.353 7.523 C 984.457 4.909 971.369 3.292 958.299 1.768 C 949.851 0.783 929.498 -0.016 927.811 0.028 Z M 1266.71 14.668 C 1265.72 15.328 1268.69 16.241 1269.87 16.328 C 1272.01 16.484 1274.08 15.551 1276.21 15.365 C 1285.85 14.525 1296.13 16.727 1305.16 13.251 C 1310.77 11.095 1270.65 12.046 1266.71 14.668 Z M 1438.46 10.484 C 1433.68 11.393 1421.52 16.206 1426 18.095 C 1438.82 23.493 1453.8 25.297 1467.46 22.699 C 1471.65 21.902 1441.81 9.847 1438.46 10.484 Z M 1238.78 13.304 C 1255.28 27.617 1230.07 5.74 1238.78 13.304 Z M 1127.1 15.767 C 1117.31 17.096 1101.73 10.112 1097.64 19.112 C 1094.08 26.966 1111.11 30.151 1118.88 33.888 C 1120.96 34.885 1141.45 29.577 1141.83 29.524 C 1146.99 28.808 1156.49 33.868 1157.42 28.749 C 1158.39 23.441 1140.95 25.332 1143.46 20.558 C 1146.74 14.328 1169.04 21.086 1164.1 16.062 C 1157.71 9.551 1130.38 15.322 1127.1 15.767 Z M 1473.16 19.85 C 1472.54 19.684 1471.37 19.415 1471.22 20.049 C 1470.64 22.597 1468.79 27.223 1471.31 27.892 C 1478.19 29.714 1490.96 32.635 1492.55 25.698 C 1494.07 19.119 1479.69 21.578 1473.16 19.85 Z M 1488.52 29.151 C 1486.88 30.432 1486.98 33.469 1485.1 34.371 C 1481.03 36.332 1476.31 36.576 1471.82 37.182 C 1458.58 38.972 1445.2 40.539 1432.34 44.168 C 1430.31 44.741 1425.53 44.535 1426.43 46.443 C 1427.77 49.254 1438.03 48.949 1435.08 49.949 C 1426.97 52.702 1414.36 45.156 1409.47 52.197 C 1405.72 57.613 1432.64 62.139 1426.09 62.909 C 1412.43 64.517 1399.32 54.315 1385.58 55.008 C 1382.28 55.175 1384.87 61.949 1386.35 64.912 C 1389.06 70.341 1392.8 75.537 1397.65 79.184 C 1400.11 81.035 1405.22 77.678 1406.82 80.306 C 1408.84 83.605 1407.26 88.44 1405.36 91.809 C 1403.83 94.538 1400.61 96.787 1397.48 96.922 C 1395.89 96.991 1397.37 93.743 1397.23 92.16 C 1396.92 88.611 1397.44 84.835 1396.11 81.53 C 1394.44 77.374 1390.84 74.27 1388.49 70.456 C 1386.1 66.571 1385.27 61.536 1381.89 58.461 C 1379.33 56.126 1375.3 56.319 1371.96 55.383 C 1369.76 54.765 1367 52.295 1365.28 53.804 C 1361.76 56.894 1358.69 68.426 1362.54 73.154 C 1366.09 77.509 1381.42 83.149 1375.81 83.543 C 1362.82 84.457 1350.4 77.809 1337.7 74.901 C 1332.79 73.775 1324.88 66.77 1322.97 71.441 C 1321.06 76.14 1332.83 75.579 1335.73 79.74 C 1336.82 81.304 1332.82 82.585 1330.93 82.85 C 1322.87 83.979 1314.75 80.59 1306.61 80.734 C 1293.22 80.971 1280.57 92.123 1269.19 92.563 C 1267.09 92.644 1274.63 88.593 1272.87 87.425 C 1268.19 84.304 1261.46 81.657 1256.34 83.997 C 1253.31 85.384 1261.56 89.532 1261.05 92.829 C 1260.71 95.071 1256.69 94.129 1254.63 95.083 C 1250.01 97.229 1246.39 101.457 1241.52 102.98 C 1237.33 104.29 1231.13 101.484 1228.51 105.01 C 1226.66 107.502 1236.3 108.479 1235.27 111.408 C 1234.3 114.188 1229.22 111.898 1226.45 110.902 C 1222.65 109.535 1211.25 99.527 1210.69 96.092 C 1210.35 93.947 1215.03 96.428 1217.2 96.444 C 1226.59 96.511 1237.07 100.718 1245.37 96.341 C 1249.26 94.295 1241.18 88.292 1237.67 85.659 C 1233.97 82.881 1229.11 82.085 1224.65 80.81 C 1218.18 78.955 1211.59 77.453 1204.95 76.289 C 1199.72 75.371 1193.99 76.676 1189.11 74.575 C 1187.29 73.79 1195.95 72.867 1194.33 71.714 C 1180.28 61.671 1147.1 69.598 1132.41 76.289 C 1127.13 78.698 1121.77 80.946 1116.48 83.355 C 1113.97 84.498 1109.72 84.275 1109.03 86.944 C 1108.45 89.192 1116.07 83.372 1115.88 85.686 C 1115.7 87.949 1101.48 106.696 1099.7 108.145 C 1091.39 114.921 1079.41 116.456 1071.6 123.803 C 1067.69 127.482 1068.07 142.72 1070.58 145.243 C 1074.82 149.502 1081.72 150.417 1087.71 150.837 C 1091.88 151.129 1093.91 142.703 1097.98 143.633 C 1099.9 144.071 1100.3 146.825 1101.32 148.506 C 1103.56 152.165 1106.13 155.673 1107.75 159.641 C 1108.52 161.518 1110 164.529 1108.34 165.696 C 1095.39 174.813 1098.96 154.017 1097.73 153.808 C 1083.68 151.417 1088.65 178.73 1083.25 182.401 C 1080.5 184.272 1076.52 182.872 1073.4 184.029 C 1070.33 185.169 1067.58 187.126 1065.01 189.166 C 1060.02 193.131 1046.22 209.514 1038.63 212.081 C 1035.04 213.298 1030.66 210.569 1027.24 212.217 C 1025.28 213.163 1027.36 217.625 1025.35 218.479 C 1021.07 220.301 1015.45 216.663 1011.4 218.959 C 1009.48 220.048 1012.42 223.287 1013.36 225.281 C 1017.8 234.644 1024.85 242.941 1027.5 252.956 C 1028.1 255.223 1024.11 256.911 1021.76 257.025 C 1009.69 257.614 990.985 247.905 981.337 261.95 C 979.81 264.173 982.8 267.314 982.365 269.976 C 981.088 277.791 971.81 293.164 979.367 301.994 C 985.618 309.299 1002.39 300.663 995.125 317.198 C 993.978 319.809 973.582 341.234 972.687 342.355 C 957.565 361.296 926.915 398.956 920.873 422.666 C 919.662 427.418 925.804 431.808 925.326 436.689 C 924.236 447.823 916.79 457.847 916.333 469.025 C 916.045 476.082 919.463 483.074 923.186 489.076 C 927.071 495.338 934.374 498.886 938.601 504.922 C 942.06 509.863 941.981 516.886 945.88 521.488 C 955.592 532.952 971.474 542.063 986.647 543.569 C 991.163 544.017 995.386 540.67 999.923 540.545 C 1005 540.405 1009.96 543.478 1014.99 542.789 C 1020.09 542.092 1045.69 530.018 1052.25 531.363 C 1057.8 532.499 1060.13 539.998 1065.35 542.182 C 1071.39 544.707 1080 540.504 1084.79 544.966 C 1090.39 550.184 1091.27 559.197 1091.81 566.833 C 1092.19 572.213 1085.78 577.287 1087.45 582.415 C 1091.9 596.051 1103.45 606.431 1109.03 619.64 C 1113.31 629.751 1114.17 640.987 1116.74 651.66 C 1117.62 655.309 1120.24 658.949 1119.39 662.606 C 1116.76 673.957 1107 683.508 1106.63 695.156 C 1106.22 708.331 1113.87 720.509 1117.16 733.273 C 1124.74 762.68 1130.24 813.647 1153.14 834.775 C 1154.55 836.072 1156.97 835.222 1158.87 835.032 C 1168.41 834.078 1178.29 834.343 1187.39 831.349 C 1210.02 823.909 1222.02 811.49 1234.93 791.947 C 1240.72 783.185 1245.92 773.807 1249.06 763.784 C 1252.56 752.608 1249.31 739.53 1254.62 729.093 C 1263.11 712.423 1287.59 707.124 1294.71 689.829 C 1298.78 679.969 1290.65 655.486 1288.62 646.624 C 1286.85 638.85 1281.72 630.919 1283.74 623.204 C 1293.47 586.018 1327.69 571.731 1344.55 543.809 C 1351.82 531.773 1358.15 518.872 1361.68 505.263 C 1369.76 474.164 1332.49 500.248 1325.28 499.105 C 1317.7 497.903 1314.64 488.031 1309.27 482.539 C 1301.08 474.157 1291.31 467.094 1284.6 457.484 C 1278.21 448.329 1275.3 437.182 1270.55 427.077 C 1265.08 415.439 1259.69 403.762 1253.94 392.257 C 1248.95 382.264 1241.56 373.295 1238.35 362.594 C 1236.98 357.998 1243.98 370.806 1248.2 373.088 C 1249.8 373.951 1251.48 369.533 1253 370.518 C 1263.34 377.193 1272.74 402.594 1279.12 413.345 C 1283.82 421.255 1290.1 428.254 1294.02 436.575 C 1296.22 441.227 1295.29 446.899 1297.19 451.676 C 1300.9 460.962 1303.03 472.061 1310.72 478.443 C 1315.8 482.656 1324.28 481.498 1330.5 479.299 C 1349.11 472.722 1368 465.05 1383.43 452.746 C 1396.81 442.082 1412.9 429.115 1414.78 412.111 C 1418.64 377.248 1369.9 388.228 1358.85 384.888 C 1351.4 382.634 1343.72 377.577 1340.44 370.516 C 1338.24 365.772 1340.04 355.027 1345.24 355.577 C 1352.7 356.365 1353.73 368.431 1359.97 372.58 C 1366.97 377.23 1375.42 379.619 1383.69 381.119 C 1386.64 381.653 1389.47 377.359 1392.26 378.438 C 1397.84 380.591 1400.3 388.479 1406.13 389.788 C 1419.73 392.841 1434.3 388.024 1447.92 390.935 C 1462.61 394.072 1474.78 416.505 1485.69 425.283 C 1489.69 428.5 1495.96 429.327 1498.54 433.764 C 1503.7 442.638 1504.25 453.496 1507.7 463.16 C 1513.11 478.285 1519.82 492.943 1526.97 507.325 C 1528.84 511.072 1529.69 517.16 1533.82 517.844 C 1554.43 521.257 1545.1 510.976 1546.16 504.783 C 1547.16 498.953 1549.9 493.499 1550.78 487.65 C 1551.47 483.103 1549.79 467.093 1553.18 461.689 C 1557.53 454.756 1582.62 435.821 1587.61 429.052 C 1589.61 426.352 1587.58 421.257 1590.35 419.365 C 1594.25 416.706 1599.96 419.212 1604.39 417.601 C 1608.44 416.13 1610.8 410.58 1615.1 410.372 C 1617.71 410.246 1617.91 414.783 1619.47 416.873 C 1626.07 425.673 1636.26 432.775 1639.08 443.401 C 1640.53 448.822 1634.84 457.69 1639.85 460.214 C 1645.49 463.054 1651.02 451.008 1657.15 452.504 C 1662.01 453.689 1662.37 461.191 1663.66 466.022 C 1665.83 474.112 1666.2 482.579 1667.43 490.863 C 1668.42 497.501 1669.06 515.687 1671.97 520.466 C 1673.75 523.378 1678.18 523.747 1680.28 526.435 C 1682.77 529.614 1683.73 533.732 1685.25 537.469 C 1691.54 552.935 1695.15 564.396 1711.11 572.692 C 1712.52 573.423 1712.51 569.337 1711.37 564.425 C 1709.59 556.726 1709.41 548.388 1705.71 541.402 C 1702.52 535.354 1695.2 532.376 1691.41 526.678 C 1686.09 518.671 1671.17 489.5 1683.02 478.607 C 1685.1 476.698 1686.41 483.149 1688.41 485.133 C 1693.84 490.502 1698.86 496.472 1705.2 500.715 C 1707.87 502.497 1712.16 502.2 1713.85 504.92 C 1715.68 507.852 1710.94 516.161 1714.28 515.276 C 1720.42 513.649 1722.41 505.408 1727.3 501.356 C 1730.78 498.476 1737.03 498.726 1739.11 494.719 C 1745.43 482.558 1736.38 466.406 1730.04 457.482 C 1729.7 457.004 1709.75 440.652 1712.14 435.134 C 1712.42 434.484 1726.32 412.564 1734.75 420.65 C 1739.65 425.344 1721.98 433.41 1732.81 436.447 C 1737.75 437.831 1742.28 431.333 1744.89 426.922 C 1745.84 425.327 1740.61 425.483 1740.4 423.641 C 1740.2 421.878 1742.6 420.77 1744.08 419.794 C 1748.73 416.734 1753.36 413.378 1758.64 411.631 C 1760.24 411.104 1761.73 413.863 1763.35 413.421 C 1781.48 408.481 1791.21 392.296 1795.9 375.253 C 1801.14 356.232 1804.21 354.791 1794.18 342.917 C 1787.84 335.406 1780.3 328.988 1773.63 321.768 C 1772.37 320.402 1769.05 319.198 1769.95 317.573 C 1773.19 311.766 1784.93 309.898 1783.91 303.328 C 1781.97 290.815 1747.98 309.881 1748.79 290.325 C 1748.86 288.733 1763.1 272.071 1769.35 281.245 C 1771.33 284.139 1768.23 288.88 1770.29 291.712 C 1771.36 293.172 1772.66 288.671 1774.4 288.184 C 1779.98 286.622 1786.31 283.417 1791.61 285.743 C 1795.09 287.269 1791.71 293.968 1794.18 296.852 C 1797.35 300.535 1803.17 300.762 1807.03 303.705 C 1811.91 307.428 1811.29 317.369 1813.45 321.855 C 1816.17 327.469 1829.87 321.536 1831.01 315.406 C 1833.88 299.972 1809.76 296.071 1806.51 285.958 C 1804.98 281.189 1809.83 276.174 1813.28 272.544 C 1817.18 268.449 1834.36 261.53 1837 253.168 C 1840.15 243.242 1842.18 232.741 1841.97 222.332 C 1841.86 216.888 1838 212.191 1836.06 207.102 C 1834.63 203.339 1828.4 193.717 1831.86 195.777 C 1848.84 205.886 1853.19 230.144 1866.29 239.892 C 1867.87 241.062 1865.71 234.956 1867.49 234.136 C 1869.34 233.286 1871.96 238.58 1872.97 236.817 C 1874.06 234.933 1870.23 233.446 1868.86 231.754 C 1864.66 226.547 1856.78 222.794 1856.27 216.122 C 1855.98 212.212 1866.18 221.787 1867.84 218.238 C 1869.5 214.7 1861.69 213.41 1858.76 210.819 C 1855 207.49 1851.47 203.91 1847.79 200.49 C 1839.82 193.077 1831.98 185.512 1823.81 178.321 C 1823.17 177.759 1825.95 180.417 1825.1 180.524 C 1820.73 181.078 1816.2 180.831 1811.91 179.83 C 1802.14 177.55 1791.52 176.381 1783.22 170.75 C 1780.84 169.13 1786.04 165.701 1787.16 163.042 C 1789.73 156.948 1789.15 148.71 1794.27 144.523 C 1798.92 140.725 1806.27 144.83 1812.25 145.243 C 1816.05 145.505 1824.41 140.903 1827.41 141.285 C 1836.59 142.454 1845.61 154.157 1854.48 141.739 C 1857.28 137.832 1851.99 129.608 1856.27 127.444 C 1861.27 124.92 1866.75 134.067 1872.2 132.796 C 1876.48 131.799 1875.42 122.748 1879.74 121.978 C 1883.7 121.273 1887.98 125.91 1888.9 129.823 C 1890.87 138.163 1881.59 145.459 1879.66 153.808 C 1879.17 155.957 1880.6 158.221 1881.8 160.068 C 1890.86 173.949 1897.58 181.552 1910.66 191.358 C 1915.09 194.673 1919.46 201.477 1924.79 200.037 C 1929.08 198.881 1927.63 191.329 1927.1 186.922 C 1926.72 183.772 1922.55 181.906 1922.22 178.75 C 1921.79 174.544 1925.46 170.563 1924.96 166.364 C 1924.69 164.1 1921.95 162.903 1920.16 161.491 C 1916.42 158.541 1911.64 156.851 1908.43 153.327 C 1904.98 149.526 1896.29 142.752 1900.64 140.026 C 1909.74 134.328 1955.38 146.122 1959.48 122.277 C 1960.9 114.003 1944.33 114.617 1938.06 109.027 C 1935.3 106.561 1929.65 99.157 1933.35 98.962 C 1944.61 98.369 1955.07 105.101 1966.07 107.552 C 1971.79 108.826 1977.65 110.878 1983.46 110.122 C 1986.66 109.707 1994.05 105.714 1991.16 104.289 C 1976.08 96.849 1959 94.433 1942.77 90.044 C 1937.29 88.561 1891.67 74.575 1872.12 74.575 C 1867.64 74.575 1820.82 77.419 1810.45 76.048 C 1774.41 71.28 1739.19 60.693 1702.97 57.444 C 1696.97 56.905 1690.88 58.417 1685.07 60.014 C 1682.92 60.606 1681.8 63.55 1679.59 63.869 C 1672.59 64.88 1665.42 64.341 1658.35 63.869 C 1641.72 62.757 1626.48 53.78 1610.05 50.939 C 1608.39 50.651 1609.17 55.26 1607.48 55.303 C 1592.4 55.684 1577.12 55.188 1562.34 52.144 C 1557.32 51.108 1554.29 45.641 1549.67 43.392 C 1542.07 39.685 1534.15 36.466 1525.94 34.398 C 1514.85 31.601 1489.48 28.399 1488.52 29.151 Z M 518.093 38.572 C 512.597 45.745 535.361 44.02 544.215 45.828 C 553.701 47.765 579.272 50.779 583.774 38.252 C 584.359 36.623 581.647 34.428 579.945 34.744 C 576.415 35.399 574.512 40.443 570.927 40.634 C 566.437 40.873 562.007 38.437 558.296 35.897 C 557.294 35.211 559.153 33.416 558.723 32.281 C 558.336 31.26 536.942 13.973 518.093 38.572 Z M 1296.68 43.9 C 1291.82 49.242 1281.02 56.748 1285.46 62.446 C 1292.1 70.963 1306.49 72.487 1316.98 69.941 C 1322.65 68.566 1304.72 63.691 1304.31 57.873 C 1303.95 52.659 1310.86 49.403 1315.35 46.738 C 1321.24 43.246 1328.48 42.687 1334.71 39.857 C 1338.58 38.101 1342.66 36.222 1345.5 33.059 C 1346.47 31.981 1303.15 36.795 1296.68 43.9 Z M 1655.86 37.521 C 1653.61 37.71 1648.04 37.9 1649.42 39.696 C 1656.21 48.514 1682.3 48.379 1687.61 42.188 C 1691.02 38.217 1660.21 37.158 1655.86 37.521 Z M 492.646 51.876 C 485.206 54.571 477.217 56.994 471.286 62.232 C 467.422 65.645 469.827 74.675 464.948 76.339 C 457.178 78.989 448.799 72.589 440.591 72.699 C 423.917 72.922 407.437 78.126 390.781 77.333 C 370.252 76.356 350.44 66.221 329.923 67.433 C 302.313 69.064 275.387 77.462 248.988 85.711 C 244.249 87.192 242.69 93.782 238.283 96.067 C 231.345 99.665 216.606 95.114 215.853 102.893 C 215.137 110.283 237.389 102.712 236.922 110.122 C 236.437 117.813 222.201 114.705 214.945 117.301 C 206.725 120.241 196.625 120.493 190.51 126.723 C 185.42 131.908 182.669 140.929 184.996 147.812 C 186.404 151.976 200.992 145.882 198.108 149.198 C 190.595 157.836 178.979 161.961 168.561 166.706 C 157.798 171.608 142.319 168.753 134.92 177.979 C 128.968 185.4 153.93 176.016 163.106 173.508 C 174.628 170.359 185.508 165.209 196.72 161.088 C 233.014 147.749 238.7 142.589 273.372 139.246 C 280.226 138.585 287.888 136.342 294.029 139.458 C 301.9 143.452 307.681 151.193 312.04 158.868 C 314.868 163.846 313.436 170.251 314.693 175.836 C 316.174 182.417 320.632 188.564 320.236 195.298 C 319.992 199.446 312.499 201.285 312.955 205.415 C 313.642 211.641 321.737 215.12 323.097 221.234 C 323.718 224.025 319.478 225.687 318.01 228.14 C 314.945 233.262 312.681 238.841 309.529 243.91 C 299.755 259.629 285.14 272.017 284.907 291.5 C 284.793 301.045 284.953 310.903 287.905 319.981 C 291.362 330.614 298.802 339.518 303.774 349.532 C 311.501 365.094 308.398 381.648 315.791 394.552 C 318.889 399.958 321.94 410.18 327.995 408.711 C 333.45 407.388 327.853 397.401 326.599 391.93 C 323.89 380.115 315.431 369.766 314.343 357.693 C 313.936 353.18 312.903 345.652 317.263 344.417 C 321.23 343.293 321.889 351.303 323.499 355.099 C 325.339 359.436 325.878 364.234 327.541 368.642 C 334.383 386.773 347.334 402.156 354.408 420.198 C 356.003 424.266 350.622 430.174 353.688 433.287 C 363.42 443.171 376.125 450.135 388.991 455.318 C 397.677 458.817 407.835 456.302 416.876 458.743 C 421.034 459.866 438.357 474.011 440.48 475.737 C 450.548 483.923 460.931 491.754 470.516 500.501 C 475.722 505.251 479.021 512.03 484.75 516.133 C 490.644 520.355 497.559 523.374 504.638 524.94 C 509.718 526.064 518.378 519.113 520.216 523.98 C 524.347 534.922 520.234 547.594 517.483 558.962 C 516.362 563.594 511.124 566.197 508.971 570.448 C 500.9 586.385 495.415 607.901 502.848 625.824 C 506.274 634.085 513.312 640.358 517.886 648.043 C 523.948 658.226 527.082 670.295 534.716 679.36 C 547.247 694.241 570.081 701.006 577.597 718.95 C 586.838 741.011 579.725 766.743 581.315 790.609 C 583.526 823.808 588.108 856.824 592.799 889.765 C 594.431 901.223 592.113 913.822 597.235 924.2 C 614.582 959.347 627.929 980.223 663.986 986.216 C 699.599 992.135 662.14 970.41 661.441 969.685 C 656.196 964.241 649.187 958.832 648.09 951.353 C 647.227 945.471 657.248 941.483 656.44 935.593 C 655.55 929.108 643.881 927.062 643.859 920.517 C 643.827 911.231 656.075 904.876 656.304 895.592 C 656.455 889.458 644.263 887.311 644.827 881.201 C 645.785 870.827 683.232 861.476 684.061 859.786 C 687.808 852.148 678.386 843.744 675.334 835.803 C 674.876 834.612 672.317 832.771 673.544 832.419 C 683.036 829.698 694.723 833.568 702.825 827.923 C 711.01 822.221 712.637 810.552 717.463 801.822 C 719.39 798.337 722.332 795.189 723.081 791.278 C 724.639 783.146 718.965 772.849 724.237 766.464 C 735.246 753.131 760.893 754.972 768.523 739.456 C 778.225 719.727 772.914 695.232 780.496 674.596 C 789.042 651.338 815.23 644.768 798.481 616.565 C 795.083 610.843 786.444 610.884 780.41 608.076 C 765.433 601.105 750.736 593.487 735.448 587.226 C 727.21 583.852 716.562 585.208 709.969 579.227 C 702.299 572.269 703.385 558.75 696.026 551.464 C 687.477 542.999 674.607 540.443 664.388 534.094 C 658.053 530.158 652.524 525.05 646.48 520.68 C 642.156 517.554 636.122 516.132 633.292 511.609 C 630.818 507.653 636.459 499.284 632.083 497.664 C 624.517 494.864 616.411 502.357 608.343 502.375 C 600.598 502.392 592.683 500.831 585.57 497.767 C 578.462 494.705 575.947 483.922 566.462 486.58 C 558.675 488.762 550.763 491.393 544.083 495.952 C 541.167 497.942 533.237 515.485 527.974 515.945 C 520.577 516.591 513.412 512.588 506.639 509.545 C 499.065 506.142 488.119 504.553 485.264 496.757 C 481.868 487.485 494.492 477.119 491.336 467.763 C 489.184 461.382 479.365 461.195 472.785 459.762 C 467.336 458.575 455.905 465.655 456.058 460.08 C 456.461 445.393 476.132 434.287 473.882 419.768 C 472.668 411.932 457.895 420.823 450.354 423.272 C 437.987 427.288 396.48 462.154 405.367 412.06 C 408.385 395.047 416.06 377.751 428.335 365.59 C 435.241 358.748 447.516 362.41 457.103 360.803 C 469.024 358.805 480.911 352.948 492.86 354.773 C 499.883 355.846 504.462 363.236 508.97 368.727 C 509.933 369.899 507.427 371.744 507.959 373.164 C 510.546 380.068 512.198 397.398 518.013 392.865 C 526.261 386.435 519.442 371.81 522.518 361.814 C 525.328 352.682 528.984 343.27 535.442 336.228 C 541.738 329.362 552.886 328.438 559.31 321.692 C 568.288 312.265 573.208 299.602 578.769 287.832 C 578.934 287.483 579.193 288.718 579.575 288.663 C 581.185 288.431 582.913 288.07 584.182 287.052 C 586.155 285.469 587.08 282.853 588.943 281.143 C 592.873 277.535 598.737 276.758 603.125 273.724 C 607.236 270.881 610.493 266.963 614.337 263.77 C 624.695 255.167 641.678 240.669 656.225 242.888 C 661.569 243.703 640.526 255.086 645.922 255.412 C 657.216 256.094 667.571 248.678 677.962 244.2 C 681.806 242.543 686.034 240.624 688.341 237.132 C 689.544 235.311 688.962 231.276 686.842 230.759 C 678.546 228.736 668.239 235.392 661.227 230.519 C 656.769 227.421 664.789 219.56 663.24 214.357 C 662.496 211.857 653.299 213.009 655.745 212.103 C 663.696 209.159 672.526 209.594 680.822 207.846 C 692.94 205.292 704.691 200.921 716.956 199.204 C 718.257 199.022 716.264 201.748 715.748 202.956 C 712.291 211.05 702.457 218.681 705.043 227.094 C 707.668 235.634 729.585 229.237 732.877 223.616 C 734.176 221.397 732.04 218.542 731.593 216.01 C 731.301 214.356 732.095 211.931 730.66 211.058 C 726.898 208.768 719.658 211.701 717.889 207.667 C 716.416 204.309 723.892 203.169 725.837 200.06 C 727.769 196.97 730.748 192.926 729.161 189.645 C 725.497 182.069 714.944 179.072 711.894 171.229 C 707.378 159.618 712.882 145.371 707.561 134.106 C 705.797 130.371 701.717 140.066 698.19 142.216 C 693.292 145.202 687.424 152.362 682.536 149.361 C 677.858 146.488 685.602 137.74 683.015 132.898 C 680.074 127.394 674.036 122.822 667.864 121.899 C 637.144 117.303 640.653 132.452 630.961 154.826 C 629.436 158.347 629.134 163.013 625.985 165.207 C 619.109 169.997 609.082 169.184 602.647 174.552 C 595.58 180.447 596.319 199.231 587.282 197.491 C 578.947 195.886 595.649 179.247 590.811 172.273 C 584.784 163.585 571.571 163.328 561.453 160.257 C 556.79 158.842 550.836 161.81 546.894 158.945 C 544.686 157.34 548.146 153.629 548.64 150.945 C 549.565 145.918 549.123 140.511 551.15 135.819 C 552.055 133.724 554.815 133.068 556.827 131.991 C 568.227 125.889 579.046 118.276 591.351 114.303 C 596.711 112.572 602.584 115.216 608.214 115.398 C 612.503 115.536 616.795 115.293 621.086 115.262 C 626.779 115.222 633.889 118.944 638.165 115.185 C 647.395 107.07 648.45 92.265 657.134 83.569 C 663.092 77.603 669.656 89.721 672.499 91.304 C 676.479 93.52 688.501 92.677 685.346 95.963 C 677.638 103.99 657.444 98.809 654.891 109.641 C 652.862 118.251 671.956 114.321 680.395 116.973 C 690.614 120.185 700.192 126.157 710.85 127.228 C 713.35 127.479 707.645 121.823 709.224 119.869 C 711.496 117.059 716.692 118.736 719.527 116.495 C 722.915 113.816 723.505 108.49 726.935 105.865 C 733.131 101.123 748.503 102.725 747.652 94.969 C 746.681 86.121 730.902 87.977 724.314 81.991 C 716.242 74.656 712.22 63.682 704.616 55.863 C 693.06 43.98 648.936 52.026 638.456 59.959 C 634.933 62.626 642.67 72.613 638.293 73.212 C 630.358 74.299 614.2 70.609 616.565 62.957 C 619.678 52.887 637.264 56.728 645.444 50.081 C 648.433 47.652 637.793 48.466 633.958 48.823 C 629.027 49.282 623.873 50.053 619.562 52.49 C 615.223 54.943 612.764 59.824 608.909 62.984 C 598.464 71.547 574.177 90.19 560.921 87.635 C 559.187 87.301 557.535 84.113 558.729 82.813 C 562.632 78.563 570.879 78.99 573.554 73.878 C 574.944 71.221 564.732 72.422 565.658 69.57 C 567.967 62.462 583.859 59.346 580.432 52.705 C 576.702 45.478 561.181 58.31 553.403 56.96 C 545.751 55.632 538.248 53.528 530.758 51.472 C 525.432 50.01 499.848 49.267 492.646 51.876 Z M 614.689 49.36 C 609.137 46.077 601.793 50.428 595.496 51.824 C 591.425 52.727 585.59 52.456 583.78 56.213 C 582.325 59.232 586.029 64.107 589.346 64.587 C 608.538 67.365 618.104 51.379 614.689 49.36 Z M 948.267 99.631 C 937.672 100.05 935.868 91.532 925.057 102.012 C 923.68 103.347 929.566 103.632 929.596 105.55 C 929.621 107.178 925.087 105.928 925.143 107.555 C 925.299 112.086 930.706 113.653 933.964 113.953 C 941.087 114.608 948.387 116.89 955.376 115.366 C 963.789 113.532 972.838 110.539 978.672 104.206 C 985.022 97.312 956.396 99.309 948.267 99.631 Z M 1167.85 102.09 C 1167.08 106.522 1162.21 109.2 1160.29 113.269 C 1157.46 119.273 1153.28 125.445 1153.72 132.068 C 1154.78 147.63 1180.03 135.818 1184.64 136.325 C 1187 136.584 1191.35 140.367 1189.35 141.652 C 1185.75 143.974 1180.75 140.998 1176.5 141.576 C 1171.76 142.222 1166.89 143.108 1162.63 145.293 C 1152.4 150.543 1159.1 166.7 1150.55 173.51 C 1142.17 180.192 1125.17 176.606 1115.7 177.338 C 1110.81 177.717 1104.8 182.834 1101.14 179.557 C 1098.32 177.022 1104.98 172.597 1108.24 170.649 C 1110.14 169.513 1112.64 171.566 1114.84 171.367 C 1120.47 170.858 1126.25 168.624 1130.51 164.917 C 1137.37 158.949 1130.31 155.843 1131.88 149.424 C 1133.07 144.589 1137.97 140.943 1138.39 135.983 C 1138.72 132.19 1132.54 129.003 1133.94 125.464 C 1135.94 120.424 1142.79 119.108 1146.61 115.263 C 1152.65 109.194 1168.17 100.27 1167.85 102.09 Z M 1024.52 145.67 C 1021.13 147.472 1017.37 148.52 1013.99 150.356 C 1007.72 153.772 1004.17 155.678 1003.45 163.334 C 1002.98 168.358 1011.63 175.104 1013.56 176.405 C 1015.82 177.923 1020.27 176.572 1021.27 179.103 C 1022.37 181.877 1011.97 188.486 1011.59 189.946 C 1010.9 192.63 1012.33 195.562 1013.65 197.998 C 1014.29 199.169 1017.88 198.999 1017.07 200.062 C 1014.19 203.882 1004.04 204.155 1005.59 208.68 C 1007.09 213.028 1014.59 206.773 1019.13 206.058 C 1025.85 205 1055.07 206.421 1048.93 189.921 C 1046.9 184.446 1028.73 173.015 1028.12 166.683 C 1027.82 163.526 1031.78 160.886 1031.37 157.74 C 1030.91 154.095 1021.2 156.617 1021.44 152.951 C 1021.69 149.248 1025.63 145.081 1024.52 145.67 Z M 983.68 179.505 C 982.412 181.252 985.275 183.716 984.965 185.852 C 984.419 189.621 978.583 193.868 981.197 196.637 C 984.277 199.899 990.291 197.186 994.644 196.104 C 1005.3 193.457 1011.37 186.35 1008.52 173.611 C 1007.92 170.924 989.451 171.557 983.68 179.505 Z M 545.362 233.039 C 544.402 236.425 538.334 233.725 534.818 233.57 C 525.146 233.144 506.815 240.935 505.862 231.3 C 505.01 222.68 550.456 215.066 545.362 233.039 Z M 1256.06 233.733 C 1254.9 235.466 1257.12 237.954 1256.58 239.97 C 1256.23 241.285 1252.78 241.768 1253.65 242.81 C 1259.92 250.279 1269.72 254.374 1277.39 260.16 C 1279.36 261.642 1282.21 262.741 1282.87 265.11 C 1283.55 267.521 1282.87 270.89 1280.82 272.339 C 1268.08 281.376 1251.28 265.531 1237.57 266.9 C 1224.45 268.211 1221.85 276.093 1205.62 271.209 C 1202.44 270.25 1200.88 265.546 1201.25 262.241 C 1201.99 255.661 1213.51 238.757 1217.95 234.325 C 1218.54 233.739 1219.31 235.332 1220.1 235.585 C 1223.88 236.792 1228.96 235.708 1231.57 238.685 C 1233.02 240.333 1225.95 240.902 1226.6 242.994 C 1227.67 246.394 1231.46 249.182 1235 249.606 C 1239.26 250.116 1243.71 247.987 1247.16 245.46 C 1249.72 243.589 1239.8 241.471 1240.74 238.446 C 1242.97 231.322 1258.52 230.075 1256.06 233.733 Z M 1345.99 243.32 C 1344.51 246.816 1338.77 245.692 1335.29 247.224 C 1333.89 247.844 1330.93 248.291 1331.43 249.743 C 1332.69 253.386 1336.7 255.38 1339.14 258.36 C 1342.33 262.238 1344.12 267.537 1348.3 270.302 C 1349.98 271.407 1352.04 267.364 1353.9 268.109 C 1357.42 269.517 1361.18 272.223 1362.21 275.869 C 1373.55 315.898 1343.36 244.878 1351.65 277.42 C 1353.37 284.174 1361.06 289.032 1361.24 295.999 C 1361.36 300.623 1357.03 307.035 1352.41 306.705 C 1344.31 306.125 1335.5 301.059 1331.69 293.883 C 1329.3 289.376 1339.44 285.046 1338.29 280.076 C 1337.03 274.612 1329.6 272.92 1325.87 268.726 C 1310.18 251.048 1351.71 229.832 1345.99 243.32 Z M 539.851 237.913 C 629.133 213.333 508.238 273.403 512.607 267.516 C 520.599 256.747 526.922 241.473 539.851 237.913 Z M 565.732 241.28 C 565.174 243.319 562.423 243.932 560.962 245.46 C 557.142 249.456 554.931 255.51 549.912 257.829 C 546.948 259.199 541.517 258.007 540.569 254.882 C 534.483 234.821 566.079 240.013 565.732 241.28 Z M 1151.53 269.015 C 1155.47 273.539 1153.94 280.774 1155.47 286.575 C 1157.49 294.213 1159.66 297.271 1165.75 303.416 C 1168.45 306.134 1170.95 311.051 1174.74 310.558 C 1177.65 310.181 1174.55 303.963 1176.71 301.993 C 1179.01 299.91 1186.58 303.458 1185.87 300.442 C 1183.96 292.21 1173.46 287.778 1171.49 279.559 C 1170.77 276.534 1177.71 279.379 1180.82 279.371 C 1184.65 279.361 1189.38 277.042 1192.3 279.507 C 1194.68 281.507 1191.21 285.828 1192.04 288.819 C 1193.13 292.702 1196.49 295.63 1197.86 299.422 C 1198.89 302.277 1196.63 311.751 1203.94 311.414 C 1206.15 311.312 1206.36 307.211 1208.48 306.601 C 1212.52 305.441 1216.92 305.906 1221.07 306.488 C 1226.14 307.197 1231.66 308.009 1235.68 311.17 C 1236.19 311.573 1233.9 310.893 1233.76 311.529 C 1233.46 312.879 1233.34 315.324 1234.7 315.571 C 1237.59 316.095 1240.8 314.947 1243.18 313.241 C 1244.92 311.997 1245.78 309.609 1246 307.484 C 1246.09 306.702 1242.94 308.131 1243.72 308.091 C 1245.58 307.997 1247.76 306.203 1249.25 307.319 C 1257.73 313.669 1254.5 332.973 1249.25 338.927 C 1237.37 352.419 1205.82 347.552 1192.47 343.724 C 1185.46 341.713 1179.78 335.858 1172.6 334.542 C 1168.13 333.722 1163.12 335.141 1159.32 337.643 C 1154.39 340.892 1153.21 348.94 1147.67 350.979 C 1143.52 352.507 1139.22 348.316 1135.17 346.534 C 1125.44 342.251 1114.91 339.163 1106.39 332.804 C 1097.29 326.006 1104.73 310.983 1097.14 303.945 C 1095.15 302.101 1091.8 302.63 1089.09 302.771 C 1081.06 303.188 1073.13 304.919 1065.11 305.607 C 1059.71 306.071 1054.18 305.219 1048.84 306.224 C 1038.56 308.16 1038.15 310.231 1032.14 311.98 C 1026.78 313.54 1021.58 315.895 1016.04 316.632 C 1011.87 317.187 1004.53 319.866 1003.45 315.801 C 1001.64 308.974 1025.2 301.686 1026.66 300.571 C 1039.55 290.733 1039.74 269.817 1053.98 261.203 C 1058.12 258.702 1063.69 260.333 1068.28 258.813 C 1074.75 256.67 1080.11 249.485 1086.87 250.307 C 1091.84 250.911 1092.16 259.027 1096.03 262.187 C 1098.53 264.219 1130.32 280.138 1130.63 286.547 C 1130.66 287.089 1083.88 307.309 1124.04 306.489 C 1127.59 306.417 1127.65 300.374 1129.43 297.305 C 1131.85 293.156 1133.26 288.247 1136.63 284.835 C 1138.36 283.089 1141.36 283.477 1143.73 282.855 C 1144.47 282.663 1146.42 282.998 1145.96 282.394 C 1141.89 277.046 1137.22 272.119 1132.17 267.678 C 1126.16 262.384 1117.83 259.622 1112.9 253.304 C 1110.44 250.142 1110.84 245.273 1111.62 241.339 C 1111.88 240.048 1141.46 257.451 1151.53 269.015 Z M 1871.37 254.403 C 1871.62 258.56 1867.2 262.1 1867.43 266.258 C 1867.62 269.556 1874.84 268.031 1876.08 271.09 C 1878.65 277.399 1882.49 284.375 1880.79 290.971 C 1879.84 294.659 1872.66 291.991 1870 294.722 C 1866.9 297.913 1872.98 305.533 1869.31 308.05 C 1864.11 311.623 1855.68 306.454 1850.47 310.03 C 1846.45 312.793 1844.31 317.631 1841.74 321.782 C 1836.79 329.791 1838.6 332.076 1846.62 339.796 C 1848.08 341.198 1851.43 343.26 1852.44 341.508 C 1854.82 337.393 1851.07 331.202 1853.81 327.324 C 1855.28 325.244 1858.96 330.138 1861.26 329.036 C 1864.51 327.479 1864.53 321.689 1867.94 320.549 C 1870.45 319.712 1872.25 325.188 1874.8 324.515 C 1878.86 323.446 1880.85 318.628 1884.3 316.241 C 1889.83 312.421 1899.07 316.226 1898.43 305.532 C 1898.16 301.026 1894.83 297.148 1894.15 292.685 C 1893.93 291.18 1896.46 289.854 1895.86 288.453 C 1892.55 280.619 1887.65 273.536 1883.02 266.397 C 1882.47 265.55 1880.29 265.722 1880.49 264.733 C 1880.68 263.813 1882.38 265.377 1883.28 265.11 C 1887.77 263.778 1905.36 259.299 1899.29 249.933 C 1898.52 248.746 1896.77 251.42 1895.35 251.509 C 1888.86 251.918 1871.1 249.648 1871.37 254.403 Z M 583.777 246.429 C 585.307 246.565 583.227 250.29 581.713 250.55 C 576.956 251.368 565.129 253.581 567.29 249.265 C 569.787 244.279 578.223 245.934 583.777 246.429 Z M 1091.98 253.66 C 1089.62 254.225 1086.99 255.922 1086.33 258.26 C 1085.42 261.519 1088.31 264.942 1087.87 268.298 C 1087.64 270.103 1084.73 270.756 1084.45 272.555 C 1083.88 276.309 1083.4 280.725 1085.47 283.905 C 1089.34 289.828 1093.21 278.783 1093.53 274.405 C 1093.97 268.446 1093.01 253.414 1091.98 253.66 Z M 539.028 264.366 C 535.869 265.111 544.323 260.454 547.377 259.355 C 552.481 257.517 547.666 262.328 539.028 264.366 Z M 1875.32 266.343 C 1875.87 265.332 1873.71 269.348 1875.32 266.343 Z M 1180.49 308.468 C 1179.62 308.38 1177.32 309.59 1178.18 309.764 C 1199.79 314.103 1185.65 308.987 1180.49 308.468 Z M 1799.91 391.19 C 1799.4 397.244 1800.62 403.685 1803.42 409.076 C 1804.37 410.894 1805.85 405.679 1806.42 403.712 C 1807.39 400.405 1808.14 396.934 1807.96 393.494 C 1807.81 390.608 1800.14 388.477 1799.91 391.19 Z M 497.239 408.257 C 493.787 410.573 484.495 415.295 488.305 416.958 C 495.816 420.237 504.982 412.653 512.817 415.057 C 520.423 417.391 523.841 427.403 531.307 430.151 C 537.966 432.602 545.508 430.132 552.591 429.697 C 553.501 429.641 555.823 429.284 555.134 428.686 C 551.272 425.336 546.267 423.562 542.101 420.599 C 538.8 418.251 536.746 413.81 532.842 412.729 C 524.508 410.421 498.557 407.373 497.239 408.257 Z M 5.337 414.023 Z M 0 418.182 Z M 11.946 420.254 C 13.465 422.616 10.583 418.134 11.946 420.254 Z M 18.952 421.866 C 18.357 421.571 16.469 421.864 16.999 422.265 C 24.621 428.036 20.905 422.833 18.952 421.866 Z M 25.858 428.9 C 23.17 430.296 22.878 435.813 25.025 437.95 C 26.761 439.678 31.322 437.002 31.546 434.563 C 31.791 431.899 28.232 427.667 25.858 428.9 Z M 560.381 430.313 C 559.723 430.957 560.611 432.376 559.979 433.046 C 557.165 436.028 548.356 437.31 550.456 440.832 C 554.621 447.817 583.225 450.219 587.977 444.181 C 598.123 431.288 561.036 429.671 560.381 430.313 Z M 1812.1 434.256 C 1802.5 433.31 1807.52 463.941 1809.63 469.133 C 1810.95 472.375 1812.53 475.605 1814.77 478.291 C 1815.87 479.603 1818.39 482.142 1819.3 480.698 C 1820.64 478.585 1815.43 473.157 1817.93 473.314 C 1827.32 473.903 1831.82 488.596 1836.26 482.737 C 1836.55 482.362 1838.46 470.176 1837.72 469.237 C 1834.88 465.591 1822.58 467.555 1819.48 460.595 C 1816.45 453.771 1822.18 445.156 1819.48 438.195 C 1818.47 435.595 1814.88 434.529 1812.1 434.256 Z M 596.863 443.461 C 600.41 444.347 604.588 444.221 607.782 442.443 C 609.668 441.393 595.142 443.031 596.863 443.461 Z M 529.566 441.173 C 528.134 441.006 525.96 443.983 527.167 444.771 C 541.811 454.325 532.426 441.506 529.566 441.173 Z M 1846.8 506.135 C 1847.17 507.802 1843.99 508.103 1842.77 509.297 C 1840.92 511.104 1839.8 513.692 1837.63 515.103 C 1833.01 518.116 1823.26 513.579 1825.47 526.238 C 1826.31 531.008 1836.32 519.95 1837.55 521.261 C 1840.38 524.251 1838.97 529.705 1841.49 532.954 C 1843.49 535.526 1847.44 539.299 1850.14 537.485 C 1853.1 535.499 1848.98 529.953 1850.65 526.805 C 1851.47 525.268 1853.35 532.925 1853.48 531.19 C 1854.64 516.162 1845.67 501.036 1846.8 506.135 Z M 1822.83 489.922 C 1821.22 491.211 1826.68 510.755 1831.13 510.582 C 1834.48 510.452 1840.22 510.414 1840.56 507.078 C 1841.31 499.875 1824.8 488.356 1822.83 489.922 Z M 1804.07 501.802 C 1801.31 505.896 1797.3 509.121 1794.91 513.443 C 1794.35 514.465 1794.85 517.576 1795.76 516.842 C 1801.14 512.496 1805.4 506.882 1809.72 501.484 C 1811.45 499.331 1805.89 499.112 1804.07 501.802 Z M 1551.48 505.253 C 1549.45 504.896 1549.11 508.869 1548.99 510.933 C 1548.67 516.399 1549.31 532.222 1558.84 533.495 C 1561.89 533.901 1564.42 529.232 1564.41 526.162 C 1564.38 516.51 1554.89 505.85 1551.48 505.253 Z M 1789.48 530.71 C 1783.23 537.538 1778.05 545.496 1770.81 551.267 C 1756.1 563.002 1738.56 558.813 1743.23 580.126 C 1744.52 585.974 1745.07 593.201 1749.83 596.83 C 1757.9 602.982 1768.66 604.642 1778.52 607.021 C 1782.38 607.952 1787.83 609.625 1790.42 606.619 C 1794.73 601.622 1792.88 593.559 1795.39 587.458 C 1797.61 582.07 1803.31 578.23 1804.47 572.519 C 1806.2 564.017 1804.88 555.099 1803.7 546.504 C 1803.01 541.414 1800.72 536.662 1798.9 531.858 C 1797.93 529.298 1791.41 528.601 1789.48 530.71 Z M 1652.2 540.031 C 1659.15 549.517 1668.58 556.999 1675.58 566.448 C 1677.91 569.59 1678.13 573.863 1679.86 577.369 C 1686.67 591.159 1694.77 603.637 1705.64 614.759 C 1708.51 617.689 1713.42 618.189 1716 621.371 C 1717.39 623.079 1715.02 626.2 1716.34 627.957 C 1718.12 630.321 1721.31 631.326 1724.14 632.189 C 1743.56 638.111 1763.13 639.042 1782.81 642.708 C 1786.53 643.4 1789.9 645.881 1793.68 645.919 C 1805.23 646.034 1816.73 644.459 1828.2 643.162 C 1834.19 642.485 1840.56 642.582 1846.01 640.002 C 1848.69 638.734 1840.15 638.845 1837.19 638.905 C 1827.64 639.097 1818.14 640.894 1808.58 640.754 C 1805.95 640.715 1803.65 638.778 1801.05 638.374 C 1791.03 636.817 1780.46 638.041 1770.81 634.887 C 1768.75 634.211 1775.74 631.85 1774.93 629.833 C 1774.13 627.833 1770.66 629.222 1768.5 629.14 C 1754.58 628.612 1740.74 631.003 1728.17 622.176 C 1712.93 611.471 1732.49 602.747 1724.23 591.314 C 1723.3 590.024 1722.61 595.579 1721.14 594.954 C 1715.93 592.727 1711.03 589.03 1707.87 584.324 C 1706.2 581.828 1709.17 578.054 1707.95 575.305 C 1707 573.161 1696.56 564.32 1694.16 562.542 C 1683.72 554.791 1674.18 545.72 1662.99 539.089 C 1660.08 537.364 1651.39 538.917 1652.2 540.031 Z M 1824.77 569.257 C 1822.43 569.743 1819.2 569.357 1817.91 571.373 C 1812.81 579.364 1808.5 588.212 1806.7 597.524 C 1806.01 601.133 1810.4 604.082 1810.89 607.725 C 1811.43 611.652 1807.49 616.257 1809.69 619.554 C 1811.12 621.691 1815.75 618.926 1816.8 616.582 C 1819.26 611.111 1817.5 604.529 1819.03 598.731 C 1819.34 597.556 1820.09 600.922 1820.65 601.996 C 1823.74 607.827 1824.3 616.113 1829.99 619.443 C 1832.97 621.185 1835.9 614.087 1835.47 610.663 C 1834.62 603.786 1825.99 598.786 1826.56 591.879 C 1826.92 587.497 1835.08 588.27 1837.61 584.675 C 1838.59 583.291 1834.47 583.395 1832.82 582.988 C 1827.15 581.582 1818.74 584.23 1815.69 579.244 C 1813.42 575.526 1824.13 576.984 1828.19 575.416 C 1835.18 572.721 1832.53 567.649 1824.77 569.257 Z M 1897.13 580.392 C 1892.52 578.795 1881.97 579.55 1883.01 584.323 C 1884.48 591.013 1896.76 589.475 1900.39 595.278 C 1901.98 597.804 1891.87 596.409 1892.42 599.338 C 1895.21 614.01 1911.34 604.292 1915.38 611.758 C 1920.29 620.812 1921.45 631.859 1927.54 640.162 C 1929.25 642.486 1933.4 639.384 1936.19 640.111 C 1942.28 641.696 1948.02 644.422 1953.75 646.989 C 1956.51 648.223 1958.95 652.886 1961.62 651.486 C 1967.69 648.311 1968.5 638.057 1974.99 635.879 C 1993.66 629.619 1978.69 689.106 2012.15 655.049 C 2018.56 648.53 1997.83 643.076 1993.31 635.134 C 1991.86 632.587 1996.97 629.57 1996.06 626.783 C 1995.05 623.654 1990.65 622.922 1988.52 620.41 C 1986.45 617.96 1986.44 613.686 1983.64 612.109 C 1969.09 603.904 1953.82 596.63 1937.82 591.818 C 1933.28 590.451 1928.09 592.119 1923.77 594.097 C 1919.88 595.884 1918.46 602.907 1914.18 602.662 C 1910.57 602.455 1910.98 596.113 1908.78 593.239 C 1905.27 588.649 1902.6 582.282 1897.13 580.392 Z M 1935.55 708.875 C 1852.96 717.137 1928.25 679.873 1918.68 672.926 C 1908.53 665.548 1893.34 665.242 1881.26 668.667 C 1873.45 670.883 1873.45 684.189 1866.18 687.813 C 1858.51 691.637 1847.86 684.597 1840.49 688.987 C 1828.29 696.261 1823.31 712.243 1811.63 720.337 C 1797.24 730.316 1778.83 733.087 1763.84 742.144 C 1751.23 749.766 1754.18 775.209 1753.22 783.722 C 1751.59 798.206 1744.45 812.844 1747.57 827.082 C 1748.97 833.471 1758.26 836.081 1764.78 836.504 C 1776.3 837.25 1787.79 833.631 1798.87 830.405 C 1814.96 825.723 1829.24 812.152 1845.97 812.872 C 1856.25 813.314 1860.73 827.32 1869.01 833.421 C 1875.43 838.142 1884.36 839.367 1889.82 845.156 C 1894.16 849.75 1891.69 859.035 1896.76 862.8 C 1903.31 867.656 1912.63 869.457 1920.65 868.025 C 1949.37 862.901 1963.2 840.797 1980.86 820.682 C 1984.67 816.341 1989.31 812.432 1991.74 807.191 C 1998.43 792.762 2002.71 777.334 2007.92 762.308 C 2010 756.317 1999.38 752.902 1995.68 747.747 C 1989.57 739.211 1983.13 730.793 1978.37 721.432 C 1975.32 715.41 1974.88 708.359 1972.47 702.049 C 1969.68 694.723 1965.09 688.108 1962.79 680.609 C 1960.5 673.096 1940.53 708.377 1935.55 708.875 Z M 1336.56 687.752 C 1331.73 692.514 1324.12 693.492 1318.83 697.74 C 1316.75 699.41 1315.8 702.278 1315.23 704.883 C 1311.72 721.015 1306.38 750.167 1315.32 766.265 C 1317.25 769.742 1324.42 768.233 1327.22 765.409 C 1333.36 759.222 1335.88 750.228 1339.21 742.179 C 1343.43 732.002 1348.21 721.776 1349.83 710.879 C 1351.04 702.804 1342.5 681.897 1336.56 687.752 Z M 2100.46 834.021 C 2099.62 841.749 2102.52 850.182 2099.44 857.32 C 2096.88 863.266 2088.2 864.613 2084.87 870.167 C 2083.15 873.043 2088.51 878.308 2085.73 880.19 C 2080.55 883.704 2072.83 879.809 2067.06 882.244 C 2057.23 886.393 2049.32 894.116 2040.08 899.461 C 2030.12 905.232 2018.99 909.021 2009.51 915.564 C 2008.17 916.489 2008.12 919.993 2009.68 920.447 C 2027.88 925.725 2027.82 918.028 2042.14 909.399 C 2046.21 906.947 2051.1 906.008 2055.07 903.403 C 2062.92 898.257 2069.26 890.91 2077.42 886.272 C 2081.84 883.761 2087.66 884.71 2092.15 882.331 C 2095.11 880.765 2117.04 867.607 2116.73 857.92 C 2116.61 853.933 2106.97 852.097 2105.52 848.669 C 2103.45 843.767 2100.53 833.396 2100.46 834.021 Z M 1903.99 880.018 C 1902.5 886.879 1894.49 899.397 1901.34 900.918 C 1910.39 902.925 1917.47 891.255 1923.69 884.388 C 1924.92 883.038 1921.2 881.529 1919.5 880.876 C 1915.3 879.262 1904.27 878.745 1903.99 880.018 Z M 732.144 1043.79 C 729.634 1044.49 726.408 1044.89 725.078 1047.13 C 723.305 1050.12 726.066 1054.69 724.008 1057.49 C 722.054 1060.14 716.977 1058.62 714.8 1061.09 C 713.135 1062.98 713.346 1066.26 714.209 1068.63 C 715.836 1073.09 725.571 1077.58 721.917 1080.62 C 717.602 1084.21 711.466 1075.35 705.859 1075.57 C 700.534 1075.78 694.967 1078.11 691.145 1081.82 C 689.529 1083.39 690.902 1086.98 692.644 1088.41 C 697.003 1091.99 703.132 1092.68 707.95 1095.61 C 710.586 1097.21 717.852 1101.62 714.776 1101.86 C 705.47 1102.59 696.483 1097.6 687.155 1097.24 C 665.932 1096.42 645.796 1099.83 624.609 1097.66 C 605.822 1095.73 593.556 1089.82 575.82 1096.29 C 574.527 1096.76 577.831 1098.19 578.979 1098.95 C 583.747 1102.11 589.311 1104.18 593.538 1108.03 C 594.491 1108.9 594.438 1112.06 593.161 1111.88 C 579.613 1110.01 566.846 1103.71 553.227 1102.46 C 549.726 1102.14 565.04 1109.01 561.525 1108.97 C 533.026 1108.68 504.833 1101.35 476.335 1101.69 C 466.057 1101.81 456.622 1107.53 446.736 1110.34 C 435.38 1113.57 423.324 1113.63 411.811 1116.25 C 403.928 1118.04 396.555 1121.63 388.789 1123.88 C 376.607 1127.4 341.806 1126.01 351.997 1133.56 C 381.556 1155.45 420.62 1160.07 455.067 1172.96 C 458.839 1174.37 462.601 1176.45 466.628 1176.47 C 675.88 1177.62 885.138 1176.46 1094.39 1176.47 C 1498.41 1176.5 1576.73 1246.66 1837.79 1135.44 C 1840.44 1134.31 1833.77 1130.69 1830.93 1130.21 C 1812.78 1127.14 1794.35 1125.74 1775.95 1124.99 C 1766.86 1124.62 1757.2 1130.18 1748.72 1126.87 C 1744.57 1125.24 1754.91 1119.98 1759.08 1118.39 C 1775.02 1112.29 1792.08 1109.56 1808.24 1104.09 C 1817.78 1100.86 1831.52 1101.33 1836.07 1092.35 C 1839.03 1086.51 1823.82 1087.74 1817.66 1085.5 C 1806.98 1081.6 1797.04 1075.27 1785.88 1073.08 C 1778.4 1071.61 1770.5 1073.41 1763.02 1071.88 C 1747.25 1068.65 1731.21 1065.42 1716.51 1058.86 C 1713.6 1057.56 1716.51 1050.9 1713.52 1049.78 C 1710.91 1048.8 1710.04 1054.69 1707.35 1055.43 C 1699.55 1057.59 1691.28 1057.49 1683.2 1058.17 C 1666.63 1059.57 1650.07 1062.08 1633.44 1061.69 C 1624.22 1061.47 1615.49 1056.98 1606.29 1056.38 C 1589.65 1055.29 1572.73 1059.32 1556.27 1056.63 C 1548.77 1055.4 1544.25 1044.53 1536.66 1044.98 C 1526.44 1045.58 1519.43 1056.81 1509.51 1059.38 C 1500.28 1061.78 1490.4 1058.65 1480.9 1059.46 C 1468.25 1060.54 1455.52 1061.88 1443.22 1065.03 C 1429.19 1068.62 1416.73 1078.59 1402.28 1079.59 C 1394.93 1080.1 1389.96 1070.77 1382.76 1069.22 C 1365.74 1065.55 1347.91 1067.25 1330.77 1064.17 C 1323.26 1062.82 1316.95 1055.17 1309.36 1056.03 C 1284.94 1058.78 1262.14 1069.92 1238.02 1074.62 C 1230.12 1076.16 1221.92 1074.29 1213.87 1074.62 C 1207.11 1074.89 1200.39 1075.85 1193.65 1076.42 C 1137.97 1081.16 1135.76 1082.45 1082.06 1082.5 C 1069.01 1082.51 1055.96 1080.98 1042.92 1081.47 C 1007.35 1082.8 992.504 1092.73 961.047 1104.17 C 955.031 1106.36 948.552 1107.35 942.804 1110.17 C 939.66 1111.71 937.971 1115.45 934.839 1117.02 C 926.48 1121.2 917.645 1124.44 908.719 1127.21 C 897.542 1130.68 860.081 1128.89 859.098 1128.81 C 852.727 1128.28 846.713 1125.62 840.459 1124.3 C 826.65 1121.38 812.606 1119.54 798.922 1116.08 C 791.314 1114.16 782.901 1113.06 776.74 1108.2 C 774.434 1106.38 779.435 1101.93 777.853 1099.46 C 772.238 1090.68 762.261 1085.3 756.529 1076.59 C 755.532 1075.08 760.835 1074.13 760.09 1072.48 C 758.049 1067.95 749.773 1066.66 749.814 1061.69 C 749.865 1055.59 757.902 1052.31 760.305 1046.7 C 761.534 1043.83 741.403 1041.22 732.144 1043.79 Z" style="fill: rgb(255, 255, 255);"/>
</svg>