<?xml version="1.0" encoding="utf-8"?>
<!-- Generator: Adobe Illustrator 26.0.1, SVG Export Plug-In . SVG Version: 6.00 Build 0)  -->
<svg version="1.1" id="Слой_1" xmlns="http://www.w3.org/2000/svg" xmlns:xlink="http://www.w3.org/1999/xlink" x="0px" y="0px"
	 viewBox="0 0 500 500" style="enable-background:new 0 0 500 500;" xml:space="preserve">
<style type="text/css">
	.st0{fill:#FFFFFF;}
</style>
<path class="st0" d="M270,0l-76.9,96.1l39.9,41.7c0,0,29-7.8,49.5,2.1l23.7-94.7L270,0z M315.2,56.5l-12,91.9
	c31.5-19.4,31.5-19.4,31.5-19.4s15.3-10.7,34.4-5L315.2,56.5z M83.3,56.7c-10.7-0.2-20.3,4-27.6,10C37,82,26.9,113.4,41.7,135.6
	c20,30.1,106.9,136.3,110.6,140.8c1.5,1.8,3.5,3,5.8,3.5l44.9,9c-30.5,16.8-61.2,33.1-83.8,44.9l2.8-3c2.2-2.4,3.1-5.7,2.5-8.9
	c-0.7-3.2-2.9-5.8-5.9-7.1l-11.6-5l2.5-6.5c1.8-5.2,6.8-9.9,15.2-14.4c4.9-2.6,6.8-8.6,4.2-13.5c-2.6-4.9-8.7-6.8-13.5-4.2
	c-13.2,6.9-21.3,15.3-24.7,25.3l-2.1,5.5l-40-17.1c-2.5-1.1-5.3-1.1-7.8,0l-14.6,6.1c-3.2,1.3-5.5,4.3-6,7.7s0.8,6.9,3.5,9.2
	L71,347.5l-7.7,20.1c-1.4,3.7-0.5,7.9,2.3,10.7c1.9,1.9,4.5,2.9,7,2.9c1.2,0,2.5-0.2,3.7-0.7l32.7-13.1l51.1,25.5
	c1.4,0.7,3,1.1,4.5,1.1c2.6,0,5.2-1,7.1-2.9l10-10c3.9-3.9,3.9-10.2,0-14.1l-20.5-20.5l85.7-34.4l25,33.9c1.4,1.9,3.4,3.2,5.6,3.8
	l103.3,25.8c5.5,1.4,11.1,2.1,16.8,2.1c7.4,0,14.8-1.2,21.9-3.6l33.4-11.1c5.6-1.9,9.5-6.7,10.2-12.5c0.7-5.8-1.9-11.4-6.9-14.6
	l-52.7-33.5l15.8-7.7c5-2.4,7-8.4,4.6-13.4c-2.4-5-8.3-7-13.4-4.6l-27,13l-26.9-17.1l-12-15.2l49.5-28.3c3.3-1.6,9-5.9,9.8-16.3
	c0.2-2.9-0.2-6.4-0.8-10c8.4,13.9,19.4,30.6,29.3,40.1c18.9,18.3,24.1,5.9,13.7-9.1s-50.2-59.4-50.2-59.4s7.2-24.1,6.5-39.1
	c-0.6-15-12.4-22.8-13-7.8s-0.6,41.1-0.6,41.1s-0.3,0-0.5-0.1c-4.2-5.7-8.9-10.8-14.1-14.4c-9.4-6.4-19.6-7.5-28.7-3
	c-0.4,0.2-0.7,0.4-1.1,0.6l-78.1,50.7l-0.1-0.1c-0.3-0.3-10.3-8.4-25.1-20.7l20.5-12.7c4.7-2.9,6.1-9.1,3.2-13.8
	c-2.9-4.7-9-6.2-13.8-3.2L225.1,168c-35.4-29.7-84.4-71.5-108-95.1C105.6,61.5,93.9,56.9,83.3,56.7z M69.8,81.2
	c15.3,4.8,49,19.9,55,59.9c4.6,30.3,55.8,56.7,97.9,73.4l-13.2,32.9l22,7.3l-23.5,14.7l-42.6-8.5c-14.1-17.2-89.4-109.8-107.2-136.4
	c-8.3-12.4-1.4-32.9,10-42.3C68.8,81.8,69.3,81.5,69.8,81.2z M345.1,175.1c1.2,2.8,4,5.3,8.6,5.8c0.4,0.1,1,0,1.4,0.1
	c1.7,5.6,4.2,11.7,7.8,17.9c0,0,0,0,0.1,0.1c-14.6,0.1-35.7,3.9-51.6,21.7c-2.4,2.6-6.2,5.9-11.3,9.7c0-0.1,0-0.1,0-0.2
	c0-3.4-1.6-6.6-4.5-8.5l-11-7.3L345.1,175.1z M93.1,221.1L70,250l18,22.4l33.6-17.2L93.1,221.1z M292.8,287.1L310,310l100.6,45.7
	c-8.1,2.2-16.7,2.4-24.9,0.4l-99.8-24.9l-20.9-28.3L292.8,287.1z M238.5,358.9l-8.4,15.7l-22.5,1l-21,20.3l37.8,47.3L238.5,358.9z
	 M259.2,363l-25.1,92.1L270,500l84.6-105.7c-27.1-5.2-72.9-14.6-82.4-20.7C267.7,370.7,263.2,366.8,259.2,363z"/>
</svg>
